<svg width="148" height="131" viewBox="0 0 148 131" fill="none" xmlns="http://www.w3.org/2000/svg">
<path d="M86.1757 56.4236C83.8663 56.4265 82.4198 53.9284 83.572 51.9269L104.16 16.1619C105.313 14.1604 108.199 14.1568 109.357 16.1553L130.036 51.868C131.193 53.8665 129.753 56.3684 127.443 56.3713L86.1757 56.4236Z" fill="#FFE352"/>
<path d="M70.0477 59.1099L90.4977 22.9262C91.3329 21.4498 90.7481 19.5813 89.2187 18.8573C74.9509 12.0874 57.6287 12.2422 42.8544 20.8266C19.5567 34.3729 11.2431 64.2715 24.2822 87.6163C37.7061 111.651 68.3051 119.901 92.2513 106.076C106.998 97.5617 115.743 82.6937 117.011 66.995C117.149 65.3085 115.823 63.8677 114.127 63.8529L72.5598 63.461C70.3369 63.437 68.957 61.047 70.0477 59.1099Z" fill="#FF9433"/>
</svg>
