<svg id="Layer_1" data-name="Layer 1" xmlns="http://www.w3.org/2000/svg" viewBox="0 0 129.6 129.6"><title>University of Arkansas Seal logo - Brandlogos.net</title><path d="M370.35,432.07a.4.4,0,0,0-.19-.33.54.54,0,0,0-.26-.06c-.49,0-.78,0-1.07,0s-.5,0-.77-.06a1.49,1.49,0,0,0-.22,0,.39.39,0,0,0-.25.09.4.4,0,0,0-.14.25.45.45,0,0,0,0,.08.49.49,0,0,0,.36.42c.41.16.73.15.75.63,0,0,0,.06,0,.09l-.07,1.86a4.78,4.78,0,0,1-.36,1.92,1.41,1.41,0,0,1-1.33.8h-.23c-1.32-.08-1.59-.75-1.68-1.9,0-.16,0-.33,0-.5l.08-2c0-.74.2-.83.28-.87a1,1,0,0,1,.22-.06.44.44,0,0,0,.35-.4v0h0a.43.43,0,0,0-.07-.23.4.4,0,0,0-.31-.17c-.2,0-.86,0-1.33,0s-1.14-.08-1.29-.09h-.06a.46.46,0,0,0-.45.39.35.35,0,0,0,0,.07.49.49,0,0,0,.33.42c.19.07.36.1.47.16s.13.07.15.23a.47.47,0,0,1,0,.05l-.11,3.06c0,.14,0,.27,0,.4a2.61,2.61,0,0,0,2.89,2.65h.53c2.35-.1,3-1.86,3-3.66l.08-2.13c0-.48.13-.49.19-.52l.19-.05a.42.42,0,0,0,.32-.38v0Z" transform="translate(-305 -314)" style="fill:#231f20"/><path d="M393.62,430.69a2.26,2.26,0,0,0,1.46-2.07,2.35,2.35,0,0,0-.2-.91,2,2,0,0,0-1.92-1.26,3.66,3.66,0,0,0-1.46.35l-1.36.63c-.67.29-1.14.45-1.23.49a.54.54,0,0,0-.37.49.44.44,0,0,0,0,.19.45.45,0,0,0,.43.26c.22,0,.38-.07.52-.07s.2,0,.36.31l1.69,3.89a1.36,1.36,0,0,1,.13.51.47.47,0,0,1-.12.33c-.05.1-.21.15-.25.47a.47.47,0,0,0,0,.16.44.44,0,0,0,.38.27h0a.79.79,0,0,0,.23-.05c.09,0,.74-.36,1.08-.51.17-.08.59-.22,1.22-.48a1.46,1.46,0,0,0,.17-.09.4.4,0,0,0,.19-.34.51.51,0,0,0,0-.19.46.46,0,0,0-.44-.27c-.17,0-.29,0-.39,0s-.29,0-.52-.46l-.62-1.43h.07a2.5,2.5,0,0,0,.91-.25m-1.21-.64a.33.33,0,0,0-.12.08l-.81-1.87a.64.64,0,0,1-.07-.23c0-.06,0-.07.2-.18a1.4,1.4,0,0,1,.57-.14h0c.66,0,1.05.72,1.1.86a1.65,1.65,0,0,1,.11.53.82.82,0,0,1-.57.82c-.16.07-.26.06-.44.13" transform="translate(-305 -314)" style="fill:#231f20"/><path d="M334.33,353.42a.55.55,0,0,0,0-.22h-.11c-.62,2.06-3.62,2.9-3.84,5.27v.07h.3v-.05c.24-1.81,2.17-2.51,3.22-4l-.05,0,.06,0c.12-.34.47-.69.48-1.09" transform="translate(-305 -314)" style="fill:#231f20"/><path d="M384.05,435.1H384a.59.59,0,0,0-.39.42c-.17.39-.22,1-1.89,1.35l-.21,0c-.13,0-.08,0-.14-.07a2.37,2.37,0,0,1-.14-.51l-.25-1.2c0-.17-.06-.29-.07-.36l.1,0,.69-.15.18,0c.22,0,.28.09.39.26s.09.18.16.28a.48.48,0,0,0,.41.27h.08a.48.48,0,0,0,.38-.48,1.24,1.24,0,0,0-.08-.39l-.42-1.65a.49.49,0,0,0-.45-.43.45.45,0,0,0-.13,0c-.29.1-.28.29-.32.37-.1.33-.11.61-.52.71l-.59.12-.11,0,0-.17-.28-1.31a1.79,1.79,0,0,1-.05-.31v0a4.07,4.07,0,0,1,.85-.22,2.66,2.66,0,0,1,.55-.07c.43,0,.46.12.55.26s.06.17.11.29a.48.48,0,0,0,.43.31h.1a.47.47,0,0,0,.38-.47,1.23,1.23,0,0,0-.07-.37l-.23-.91a.48.48,0,0,0-.47-.37h-.11c-.83.18-1.47.35-2.13.49-1.43.3-2.1.41-2.5.49a.48.48,0,0,0-.41.46.47.47,0,0,0,.46.48c.22,0,.43,0,.57,0s.17,0,.23.26l.93,4.39a1.5,1.5,0,0,1,0,.32c0,.24,0,.2-.12.26l-.21.12a.49.49,0,0,0-.19.53.41.41,0,0,0,.39.31h0l.13,0c.53-.11.93-.24,1.2-.29.45-.1,1-.18,2.46-.48a1.73,1.73,0,0,0,1.28-1.74,1.88,1.88,0,0,0,0-.39.47.47,0,0,0-.42-.43" transform="translate(-305 -314)" style="fill:#231f20"/><path d="M377.14,436.11H377c-.24.07-.26.2-.38.31a2.55,2.55,0,0,1-1.75,1.14h-.21c-1.38,0-2.19-1.46-2.31-2.63a2.25,2.25,0,0,1,0-.27,2,2,0,0,1,1.61-2.17h.18a2.63,2.63,0,0,1,2.08,1.33c.07.06.12.37.54.42h0a.44.44,0,0,0,.4-.44,1.09,1.09,0,0,0,0-.23l-.29.06.28-.06-.35-1.74a.34.34,0,0,0-.2-.25.41.41,0,0,0-.17,0h-.07a.42.42,0,0,0-.34.33,5.3,5.3,0,0,0-1.76-.35l-.35,0a3.62,3.62,0,0,0-3.2,3.86c0,.14,0,.28,0,.42a3.33,3.33,0,0,0,3.34,3.06l.44,0a3.25,3.25,0,0,0,3-2.35s0,0,0,0a.41.41,0,0,0-.43-.36" transform="translate(-305 -314)" style="fill:#231f20"/><path d="M329.17,368a14.14,14.14,0,0,0,.61-2.64,2.71,2.71,0,0,0-.06-.56v0h-.15l-.22,1.38a13.43,13.43,0,0,0-.42,1.5.61.61,0,0,0,.14.4Z" transform="translate(-305 -314)" style="fill:#231f20"/><path d="M331.69,402.84h0a1.59,1.59,0,0,1-1.32-.9,1.07,1.07,0,0,1-.15-.46c-.06-.63,1.39-.36,1.5-1.33a.71.71,0,0,0,0-.27,1.2,1.2,0,0,0-.45-.84,1.83,1.83,0,0,0-1.29-.44c-.64,0-1.31.21-1.93.25-.34-.1-.4-.54-.51-.88a1.35,1.35,0,0,1,1.15-.7h0v0a1.4,1.4,0,0,0,.37-.84c0-1-1.92-1.15-2.17-2.15a3.72,3.72,0,0,1-.12-.87,1.57,1.57,0,0,1,.35-1.1,1.27,1.27,0,0,1,.75-.32c.85,0,1.22,1.59,2,2a1.3,1.3,0,0,0,.39.06,1.16,1.16,0,0,0,.85-.35.85.85,0,0,0,.24-.66,2.6,2.6,0,0,0-.13-.72l0-.06-.06,0c-.47.18-.14.84-.49,1h-.06c-.81,0-.69-1.13-1.46-1.63h0a1.9,1.9,0,0,0-1.31-.46,1.74,1.74,0,0,0-1.47.72,1.46,1.46,0,0,0-.33,1,3.81,3.81,0,0,0,.65,1.79c.49.75,1.4.92,1.94,1.54a2.54,2.54,0,0,1,0,.27c.05.94-1.42.24-1.83,1.16a1.41,1.41,0,0,0-.06.43,2,2,0,0,0,.5,1.22,4.67,4.67,0,0,0,1.76.34,3.43,3.43,0,0,0,1.35-.27c.28.09.48.16.58.41a1,1,0,0,1,.09.37c0,.59-1.09.45-1.51,1a1.74,1.74,0,0,0,0,.35,2.5,2.5,0,0,0,1.3,2.15c.2,0,.43.12.65.12h0a.45.45,0,0,0,.36-.18.37.37,0,0,0,.07-.21c0-.22-.22-.36-.29-.5Z" transform="translate(-305 -314)" style="fill:#231f20"/><path d="M330,395.71h-.18l-.05.1a10.88,10.88,0,0,0,4.06,4l.08-.08c-.49-1-1.56-1.17-2.14-1.78Z" transform="translate(-305 -314)" style="fill:#231f20"/><path d="M332.49,384.89l0,0c-2.19-1.94-.53-5.55-2.12-7.84l0,0h-.14a.16.16,0,0,0-.15.09v0l0,0c1.61,2.32-.24,6,2.3,8l0,0,0,0a.15.15,0,0,0,.08-.14s0-.08,0-.1v-.06Z" transform="translate(-305 -314)" style="fill:#231f20"/><path d="M335.75,418.94a.38.38,0,0,0-.24-.09,1,1,0,0,0-.45.16l-5.45,2.67a.56.56,0,0,1-.29.06c-.13,0-.23-.05-.42-.07a.42.42,0,0,0-.35.15.34.34,0,0,0-.09.22c0,.35.23.36.27.43.23.19.45.33.64.49s.4.37.64.58c.1.05.18.26.52.32a.39.39,0,0,0,.41-.37c0-.31-.17-.39-.26-.54a.63.63,0,0,1-.15-.33.17.17,0,0,1,.05-.11,2.49,2.49,0,0,1,.54-.37,1,1,0,0,1,.46-.19l.05,0,.18-.22-.18.22,1.39,1.16,0,0h0a3.92,3.92,0,0,1-.17.67,1.31,1.31,0,0,1-.21.48c-.08.08-.09.07-.15.07s-.22-.07-.45-.09a.43.43,0,0,0-.36.15.36.36,0,0,0-.09.23c0,.34.22.35.28.43.22.19.5.37.8.62.46.38.61.56.88.78s.15.19.41.23h0a.41.41,0,0,0,.33-.16.45.45,0,0,0,.11-.26c0-.31-.18-.35-.22-.42a.3.3,0,0,1-.08-.23.77.77,0,0,1,0-.15l1.69-5.89a1.63,1.63,0,0,0,.07-.34.4.4,0,0,0-.15-.33m-2.3,3.11v0l-.86-.72h0l1.21-.61Z" transform="translate(-305 -314)" style="fill:#231f20"/><path d="M343,426.06c0,.15-.08.33-.09.57a.47.47,0,0,0,.22.42.45.45,0,0,0,.66-.24,1.9,1.9,0,0,0,.1-.25l.34-.77a.63.63,0,0,0,.08-.27.41.41,0,0,0-.21-.36c-.75-.44-1.3-.72-2.45-1.41s-1.67-1-2.42-1.47a.41.41,0,0,0-.22-.06.49.49,0,0,0-.4.26l-.74,1a.63.63,0,0,0-.2.4.42.42,0,0,0,.22.36.45.45,0,0,0,.24.06c.36,0,.46-.24.64-.37a.73.73,0,0,1,.46-.23.62.62,0,0,1,.3.1l.67.39.14.1a.94.94,0,0,1-.09.17l-2.18,3.69c-.18.29-.28.29-.38.3s-.34-.14-.66-.16a.42.42,0,0,0-.37.21.5.5,0,0,0-.08.26.57.57,0,0,0,.36.47c.34.2.61.32,1.13.63s.76.49,1.1.69a1,1,0,0,0,.49.2h0a.46.46,0,0,0,.38-.24.41.41,0,0,0,.05-.19c-.07-.39-.27-.39-.39-.56a.65.65,0,0,1-.23-.45.77.77,0,0,1,.12-.37l2.12-3.6a1.31,1.31,0,0,1,.11-.16h0l.14.08.68.4c.32.19.32.29.34.44" transform="translate(-305 -314)" style="fill:#231f20"/><path d="M349.56,427.79c-.76-.37-1.37-.62-2-.91-1.31-.63-1.89-1-2.26-1.14a.51.51,0,0,0-.23-.06.45.45,0,0,0-.48.43c0,.41.3.48.43.63s.23.24.22.33a.39.39,0,0,1,0,.16l-1.94,4c-.24.45-.31.39-.38.41l-.27,0a.49.49,0,0,0-.47.29.3.3,0,0,0,0,.15.46.46,0,0,0,.29.42c.48.23.87.38,1.11.5.41.2.92.49,2.22,1.12a1.46,1.46,0,0,0,.57.14h0a1.87,1.87,0,0,0,1.69-1.06.69.69,0,0,0,.07-.26.4.4,0,0,0-.21-.37.41.41,0,0,0-.17,0c-.33,0-.42.18-.61.26a1.35,1.35,0,0,1-.76.17,3.48,3.48,0,0,1-1.32-.4c-.29-.15-.24-.17-.25-.21a1.88,1.88,0,0,1,.21-.51l.53-1.09.16-.33.09,0,.63.31c.31.17.3.26.31.45s0,.28-.06.46a.45.45,0,0,0,.24.44.52.52,0,0,0,.18,0,.51.51,0,0,0,.46-.29,1.74,1.74,0,0,0,.11-.26l.67-1.54a.79.79,0,0,0,.07-.27.42.42,0,0,0-.13-.32.53.53,0,0,0-.14-.09.31.31,0,0,0-.14,0c-.35,0-.37.19-.53.28a.65.65,0,0,1-.41.16.59.59,0,0,1-.24-.06l-.54-.26-.1-.05.07-.16.58-1.19a1.49,1.49,0,0,1,.15-.28h0a3.31,3.31,0,0,1,.81.34c.74.37.75.59.75.73s-.09.26-.11.51a.46.46,0,0,0,.26.43.52.52,0,0,0,.18,0c.51-.07.5-.47.56-.53l.37-.85a.49.49,0,0,0-.23-.63" transform="translate(-305 -314)" style="fill:#231f20"/><path d="M358.36,430.55c-.48-.1-.94-.17-1.39-.27-.88-.19-1-.26-1.22-.3h-.1a.44.44,0,0,0-.42.28h0a.39.39,0,0,0,0,.15c.09.45.4.43.53.55s.24.15.25.34a.76.76,0,0,1,0,.16l-.94,4.29c-.1.31-.1.23-.23.27s-.16,0-.28,0a.46.46,0,0,0-.37.35h0a.32.32,0,0,0,0,.09.42.42,0,0,0,.31.39l.25.06c.3.07.58.09.83.14s.81.22,1.85.45a3,3,0,0,0,.66.06h0a3.66,3.66,0,0,0,3.65-2.92,4.13,4.13,0,0,0,.1-.89c0-2.35-2.4-3-3.45-3.2m1.61,4c-.34,1.47-1.1,2.05-2.07,2.07a2.61,2.61,0,0,1-.57-.06c-.32-.06-.69-.25-.66-.44a.39.39,0,0,1,0-.09l-.28-.06.28.06.91-4.13a1.42,1.42,0,0,1,.14-.44s0,0,.14-.06l.28,0a2.27,2.27,0,0,1,1.88,2.41,3.24,3.24,0,0,1-.07.7" transform="translate(-305 -314)" style="fill:#231f20"/><path d="M326.48,388.33a.29.29,0,0,0,.18-.09l0,0v0s0,0,0-.06c0-.49.76-.6.9-1.21,0-.2.2-.5.2-.76a.33.33,0,0,0-.25-.32l-.05,0,0,.05c-.2.46-.18,1-.57,1.3a.9.9,0,0,1-.81.33h-.21a2.55,2.55,0,0,1-1.42-1.66,2.72,2.72,0,0,1,2.16-.93,2.83,2.83,0,0,0,1.25,1c.22.07.37,0,.51.14l0,0h.08a4.49,4.49,0,0,1,3.08,1.55l0,0,0,0h.14a.19.19,0,0,0,.15-.07v0c-.08-.43-.45-.69-.73-1-1.26-1.23-3.25-.71-4.17-2.29-.19-1-1.18-1.62-1.18-2.61,0,0,0-.06,0-.09a1.06,1.06,0,0,1,.89-.53h.1c.42.24.81.67,1.33.67a.86.86,0,0,0,.29,0h0v0a1.85,1.85,0,0,0,.14-.7c0-1.51-2.23-2-2.22-3.46a1.69,1.69,0,0,1,.08-.5,1.28,1.28,0,0,1,1.28-.6h.46a1.14,1.14,0,0,0,.68-1.12c0-.48-.18-1-.18-1.46,0,0,0-.07,0-.11a1,1,0,0,1,.49-.84,2,2,0,0,1,.88-.21h.24a1.54,1.54,0,0,1,.69,1h0c.2.89-.13,2,.47,2.84a.85.85,0,0,0,.43.14c.64,0,.65-1.06,1.21-1.19a.45.45,0,0,1,.27-.11.8.8,0,0,1,.61.45,1.93,1.93,0,0,1,.16.76,2.74,2.74,0,0,1-.66,1.71,2.59,2.59,0,0,0,.35,2.68.7.7,0,0,0,.32.08,1.2,1.2,0,0,0,.82-.51s0,0,.07,0a.56.56,0,0,1,.37.15,1.8,1.8,0,0,1,.37,1.06c0,1.19-1.32,2.25-1.37,3.6,0,.1.09.15.16.15s.14-.08.19-.09h0v0c.46-1.06,1.71-1.85,1.7-3.18a2.21,2.21,0,0,0,0-.35c-.07-.65-.12-1.38-.72-1.78a.92.92,0,0,0-.41-.1c-.5,0-.85.46-1.17.73a.77.77,0,0,1-.32-.69,4.53,4.53,0,0,1,.06-.61,3.87,3.87,0,0,0,.92-2.57,3.58,3.58,0,0,0-.27-1.37,1,1,0,0,0-1-.58,1.29,1.29,0,0,0-.4.07c-.63.17-.78.77-1.12,1.2-.05.07-.09.08-.12.08s-.23-.17-.37-.29a1.84,1.84,0,0,1,0-.2c0-.65.23-1.3.24-2h0v-.06h0v-.06h0a2.44,2.44,0,0,0-.08-.57,2.83,2.83,0,0,0-.86-1.08h.36a4.1,4.1,0,0,0,1.51-.22,2.34,2.34,0,0,1,1.34-.53h.06v-.06a.18.18,0,0,0,0,0c0-.26-.29-.25-.32-.37a1.57,1.57,0,0,0,0-.26,2.68,2.68,0,0,0-1.15-2.23c0-.17.26-.18.41-.4a2.94,2.94,0,0,0,1.09-2.13,2.21,2.21,0,0,0-.14-.74.82.82,0,0,0-.92-.63l-.59,0a.86.86,0,0,1-.8-.34.85.85,0,0,1,0-.22c0-.41.35-.77.61-1.15a3.68,3.68,0,0,0,.34-1.56,2.5,2.5,0,0,0-.64-1.73,3.09,3.09,0,0,0-1.22-.29l-.26,0a2,2,0,0,0-1.47,1.38c-.28.95.25,2.41-1,2.56a2.28,2.28,0,0,0-1.23-.47,1.21,1.21,0,0,0-.51.12,1.75,1.75,0,0,0-.9,1,2.26,2.26,0,0,0-.16.88,4.06,4.06,0,0,0,.65,2,4.63,4.63,0,0,1,.65,1.89,1.34,1.34,0,0,1-.35,1,.69.69,0,0,1-.25.05c-.29,0-.58-.21-.9-.26-.4.13-.89.09-1.22.49a2.65,2.65,0,0,0-.37,1.43,6.76,6.76,0,0,0,.62,2.4,2.06,2.06,0,0,0,.09.2h0l0,.09,0,0h0a12.89,12.89,0,0,0,1.89,2.06.39.39,0,0,0,.17,0,2,2,0,0,0-1,1.86c.48,1.71,2.61,1.61,2.61,3.37,0,0,0,.05,0,.08a.3.3,0,0,1-.16.07c-.22,0-.37-.49-.77-.51a1,1,0,0,0-.36-.06,1.55,1.55,0,0,0-.91.35.8.8,0,0,0-.44.74,6.83,6.83,0,0,0,.42,1.41,3.17,3.17,0,0,0-2.81,1.76,1.63,1.63,0,0,0-.06.45,1.44,1.44,0,0,0,.55,1.14c.88.24,1.32,1.51,2.39,1.52l.28,0c.16,0,.15.29.38.34m0-3.79c-.09.09-.24,0-.37,0,0-.33-.14-.73-.16-1,.4.13.25.68.54.94m3.18-13.1a.63.63,0,0,1-.27-.42c.16.29.79-.16.69.37l.2.2c0,.13-.51,0-.62-.15m.13-2.84c0-.29.33-.31.46-.53.2,0,.29.2.49.15l0-.38a.94.94,0,0,1,.86.26c0,.15-.35.14-.53.22-.18-.09-.31-.13-.37.09l0,.07-.72,1.26c-.22.13-.51-.06-.75-.15,0-.29.13-.88.59-.58.15,0,.33.24.46,0Zm.12,1.52.05.75c-.24-.2-.6-.06-.8-.32l0-.62Zm3.37.19a2.51,2.51,0,0,1-.19.73,2.35,2.35,0,0,1-2.22.39c-.15,0-.27-.13-.42-.15a2.36,2.36,0,0,1,.4-2.27,1.11,1.11,0,0,1,.83-.49,2.44,2.44,0,0,1,1.6,1.79m-7.84,3.34h0a5.85,5.85,0,0,1-1.1-3.14c0-.11,0-.22,0-.33s.21-.56.48-.63a.66.66,0,0,1,.27-.06,1.56,1.56,0,0,1,.85.42l.25,0a1.29,1.29,0,0,0,.89-.37,2.82,2.82,0,0,0,.49-1.78c-.31-1.12-1.22-2.25-1.22-3.37a2,2,0,0,1,.47-1.29.58.58,0,0,1,.24-.06c.29,0,.55.25.87.33a1,1,0,0,0,.33.05,1.49,1.49,0,0,0,.94-.45c.3-1,.12-1.94.48-2.83a1.75,1.75,0,0,1,1.64-.84h.1a1.49,1.49,0,0,1,.57.71,1.88,1.88,0,0,1,.09.56c0,1.11-1,2-1,3.08a1.7,1.7,0,0,0,.29.92,1.11,1.11,0,0,0,.72.2,7.65,7.65,0,0,0,.77-.07c.27,0,.45.33.51.59a1.74,1.74,0,0,1,.08.5,2.61,2.61,0,0,1-1.2,1.94l-.23-.26a1.69,1.69,0,0,0-1.77-.17,3.51,3.51,0,0,0-1.64,3s0,.09,0,.13,0,.06,0,.09c0,.72.68,1,1,1.4-.31.21-.82.32-1,.8a1.17,1.17,0,0,0-.25.8s0,0,0,0v0s0,0,0,0v.06h0c0,.37.14.75.14,1.11a1.3,1.3,0,0,1-.07.46.65.65,0,0,1-.73.54c-.28,0-.6-.06-.9-.06a1.27,1.27,0,0,0-.29,0h0c.11-.11.06-.33.11-.37l0,0,0,0c-.41-.56-.83-1.12-1.21-1.71m.12,10a3.82,3.82,0,0,1,.27,1c-.79.58-.51-.57-1-.79a1.91,1.91,0,0,1,.68-.23m-1,.38a1.91,1.91,0,0,1,.49.9l-.48.2c-.11-.26-.4-.48-.36-.83Zm-.51,1.9c-.27,0-.38-.7-.27-1l.17-.27a2,2,0,0,1,.42.73c-.11.18-.44.27-.33.53" transform="translate(-305 -314)" style="fill:#231f20"/><path d="M361.11,331.65h0l0,0a4,4,0,0,1,1-1.21h0c1,0,.4,1.27,1,1.89a1,1,0,0,0,.4.09c.76,0,1.17-1,1.73-1.27a1.84,1.84,0,0,1,.38,0,.64.64,0,0,1,.64.31.91.91,0,0,1,.09.35c0,.52-.71.77-1.12,1.17a2.52,2.52,0,0,0-.27.88.77.77,0,0,0,.07.32c.15.16.07.65.48.67h0l0,0a.62.62,0,0,0,.08-.23.13.13,0,0,0-.06-.11,1.41,1.41,0,0,1,0-.32c0-.75,1.16-.93,1.44-1.74a2.39,2.39,0,0,0,0-.28,2,2,0,0,0-.46-1.27,1.32,1.32,0,0,0-.77-.26c-.8,0-1.42.83-2.09,1.12-.38-.21-.19-.78-.49-1.17a1,1,0,0,0-.93-.53l-.25,0a3.21,3.21,0,0,0-1,1,1,1,0,0,0-.16.4.22.22,0,0,0,.2.22" transform="translate(-305 -314)" style="fill:#231f20"/><path d="M335.25,355.09a.53.53,0,0,0,.05-.23.33.33,0,0,0-.33-.34h0l0,0a7.35,7.35,0,0,1-1.35,1.28.47.47,0,0,0-.08.26c0,.3.29.51.46.67a3,3,0,0,0,.66.08,1.13,1.13,0,0,0,.56-.13l0,0v0a.13.13,0,0,1,0,0c0-.47-.64-.33-.82-.54a.27.27,0,0,0,0-.08c0-.39.64-.49.86-.92" transform="translate(-305 -314)" style="fill:#231f20"/><path d="M428.34,376.22c0-.73-.83-1.23-1-1.8h-.06l.06,0c-.3-.92-1.42-1-1.69-1.58l0-.06-.23.12h0v0c-.12.54-1,.62-1.2,1.33,0,.83-.93.93-.94,1.83a.94.94,0,0,0,0,.12,1.89,1.89,0,0,0,.73,1.47,2.6,2.6,0,0,0-.66.76,1.41,1.41,0,0,0-.05.41,1.39,1.39,0,0,0,.45,1c.5.1.37.67.69,1,.29.7,1.17.79,1.32,1.35v0h0a.35.35,0,0,0,.18.05.68.68,0,0,0,.49-.39,2.45,2.45,0,0,0,1.43-1.93,1.37,1.37,0,0,0,.53-1s0,0,0-.06a2.27,2.27,0,0,0-.89-1.22,4.43,4.43,0,0,0,.7-1,1,1,0,0,0,.15-.54m-3.08-2.48a1.49,1.49,0,0,1,1.37.47,2.7,2.7,0,0,1,.54,1.74,2.57,2.57,0,0,1-2.49.4c-.26-.09-.49-.22-.53-.53a2.33,2.33,0,0,1,1.11-2.08m1.81,3.42a1,1,0,0,1-.84.27c.18-.26,0-.9.52-.84.26,0,.14.42.31.57m-.95.27h-.57v-.62H426c0,.13-.08.49.12.62m-1.78.76a1.2,1.2,0,0,1,.62-.27c-.13.38.36,1.05-.35,1-.07,0-.09,0-.11.07-.22-.2,0-.53-.16-.75m.3-1.55c.2,0,.35.15.57.11v.68c-.42,0-.82-.28-.58-.79m-.8-.46c.33.28.58.37.49.9a.85.85,0,0,1-.49-.9m.14,3.06a.56.56,0,0,1-.12-.64l.15-.2a2.52,2.52,0,0,1,.23.68Zm2.29,2.14a1.27,1.27,0,0,1-1.21-.25,2.78,2.78,0,0,1-.7-1.74c.35-.29.93-.25,1.14-.65-.31,0-.14-.44-.27-.61s.17-.35.26-.11c.07-.07.08-.22.22-.16s0,.44.22.57c.2-.13,0-.35,0-.53.18-.13.35,0,.53,0,0,.17.22.5,0,.7l-.26.27a1.84,1.84,0,0,1,1.06.67,2.14,2.14,0,0,1-1,1.79m1-2.85-.15.42c-.51-.06-.22-.46-.27-.79.15-.07.64.08.42.37m.26,0c.13.15.33.48.12.68-.44-.06-.18-.44-.12-.68m0-1.9c-.18.09-.13.35-.35.31,0-.31-.27-.7.19-.84.09-.09.22-.18.15-.33a.76.76,0,0,1,0,.86" transform="translate(-305 -314)" style="fill:#231f20"/><path d="M406.45,417.67a3.62,3.62,0,0,0-2.27.88,3.7,3.7,0,0,0-1.48,2.91,4.15,4.15,0,0,0,1,2.56,3.42,3.42,0,0,0,2.68,1.38h0a3.55,3.55,0,0,0,2.2-.84,3.67,3.67,0,0,0,1.56-2.92,4.32,4.32,0,0,0-1-2.58,3.41,3.41,0,0,0-2.69-1.37m1.73,5.93h0a1.49,1.49,0,0,1-1,.36,3.65,3.65,0,0,1-2.48-1.47,3,3,0,0,1-.77-1.74,1.58,1.58,0,0,1,.65-1.25,1.71,1.71,0,0,1,1.1-.4,3.06,3.06,0,0,1,2.32,1.33,3.2,3.2,0,0,1,.84,1.86,1.64,1.64,0,0,1-.68,1.31" transform="translate(-305 -314)" style="fill:#231f20"/><path d="M425.81,364.23a2.14,2.14,0,0,0-1.68,2,15.06,15.06,0,0,1-.38,1.78c-.14.34-.2.4-.53.49l-.16,0a.94.94,0,0,1-1-.84,1.51,1.51,0,0,1,0-.22,2.08,2.08,0,0,1,1.25-1.82.53.53,0,0,0,.32-.5.62.62,0,0,0,0-.09.47.47,0,0,0-.49-.37,1.09,1.09,0,0,0-.38.13l.13.28-.13-.28-1.25.59a1.12,1.12,0,0,0-.31.18.61.61,0,0,0-.17.46c0,.43-.08.88,0,1.39a2.74,2.74,0,0,0,.06.39,2.38,2.38,0,0,0,2.53,2h0l.41-.06c1.36-.28,1.75-1.24,2-2.36a14.6,14.6,0,0,1,.32-1.49c.12-.28.15-.31.38-.38l.14,0c.39,0,.61.16.73.63a2.19,2.19,0,0,1,0,.26,1.48,1.48,0,0,1-.56,1.25,5.46,5.46,0,0,1-.47.36l-.2.15a.4.4,0,0,0-.16.34.47.47,0,0,0,0,.07.55.55,0,0,0,.18.3.49.49,0,0,0,.35.1,1,1,0,0,0,.24,0l1.26-.39.28-.08a.43.43,0,0,0,.28-.42s0,0,0-.07a1,1,0,0,0-.18-.34l-.07-.1v0h0a6,6,0,0,0,.11-1.16,3.07,3.07,0,0,0-.05-.38,2.16,2.16,0,0,0-2.33-1.76l-.37.06m2.64,3.25h0Z" transform="translate(-305 -314)" style="fill:#231f20"/><path d="M406.34,357.69c0,.12,0,.12-.1.13s-.41-.18-.68-.18a.41.41,0,0,0-.25.08.91.91,0,0,0-.45.93c0,.1,0,.2,0,.29a3.15,3.15,0,0,0,2.33,2.11c.23,0,.35.4.68.42h0c.13,0,.15-.14.15-.21s0-.06,0-.08v0l0,0c-.84-.73-2-.86-2.58-1.86a.84.84,0,0,1-.05-.29.81.81,0,0,1,.19-.54.24.24,0,0,1,.11,0,.65.65,0,0,1,.34.14,1.7,1.7,0,0,0,.57.17.42.42,0,0,0,.35-.19,1.84,1.84,0,0,0,.06-.47,1.21,1.21,0,0,0-.39-.93l0,0,0-.05-.42-.26c-.38-.09-.71-.73-1.12-.75a.39.39,0,0,0-.28.13l0,0v0c.33.82,1.28.68,1.54,1.38" transform="translate(-305 -314)" style="fill:#231f20"/><path d="M419.08,357.71c-.11-.07-.15-.25-.49-.28l-.13,0a.38.38,0,0,0-.25.38.86.86,0,0,0,.08.29c.1.28.22.52.31.76s.15.53.25.84c0,.06,0,.17.09.29a.46.46,0,0,0,.43.33l.13,0a.47.47,0,0,0,.26-.5c0-.12,0-.23,0-.34s0-.3.15-.36a1.21,1.21,0,0,1,.32,0h.34c.63,0,.48.08.53.12l.61,1.73v0a4.39,4.39,0,0,1-.5.5,1.4,1.4,0,0,1-.43.3l-.08,0c-.06,0-.1,0-.19-.12s-.16-.28-.5-.3l-.13,0a.39.39,0,0,0-.26.38,1,1,0,0,0,.08.3c.1.28.25.58.38,1,.2.57.24.8.36,1.14,0,.09.05.16.1.25a.41.41,0,0,0,.35.22h0l.15,0a.43.43,0,0,0,.29-.42c0-.15,0-.22,0-.29s0-.14.16-.31l4.53-4.25c.15-.17.28-.2.3-.49a.44.44,0,0,0,0-.13.45.45,0,0,0-.37-.29l-.27,0-6.13-.51a.6.6,0,0,1-.38-.17m3.39,2.62-.12,0,.13,0Zm-.22-1.18,1.37.1-1,1h0l-.38-1.07h0" transform="translate(-305 -314)" style="fill:#231f20"/><path d="M369.3,316.42a62.39,62.39,0,1,0,62.88,61.89,62.39,62.39,0,0,0-62.88-61.89m44.58,105.77a61.85,61.85,0,1,1,17.76-43.88,61.67,61.67,0,0,1-17.76,43.88" transform="translate(-305 -314)" style="fill:#231f20"/><path d="M405.41,352.48h-.07v.07c0,.21.26.37.27.53.42,1.77,1.65,3.17,2.69,4.66.21.23.16.69.51.92l0,0h0a.19.19,0,0,0,.14-.19c0-.12-.07-.24-.06-.32v-.06c-1.07-1.58-2.38-3.07-2.9-4.87l-.06,0,0,0c-.16-.18-.21-.67-.62-.7" transform="translate(-305 -314)" style="fill:#231f20"/><path d="M428.62,387.92h-.14a.45.45,0,0,0-.34.3c-.12.3-.15.5-.4.54a1,1,0,0,1-.32,0l-4.36-.87c-.37-.1-.3-.13-.34-.24s0-.12,0-.23a.45.45,0,0,0-.35-.39.42.42,0,0,0-.16,0,.4.4,0,0,0-.3.25,1.59,1.59,0,0,0-.07.28c-.11.53-.14.88-.2,1.18s-.17.65-.24,1a.81.81,0,0,0,0,.33.41.41,0,0,0,.33.34h.15c.41-.14.38-.41.5-.57s.18-.28.29-.3h.16l4.39.88c.36.09.34.16.39.27s0,.15.07.26a.49.49,0,0,0,.36.33.51.51,0,0,0,.15,0h0a.4.4,0,0,0,.3-.31c.05-.26.09-.65.17-1,.14-.7.24-1,.32-1.38a1.08,1.08,0,0,0,0-.32.42.42,0,0,0-.33-.35" transform="translate(-305 -314)" style="fill:#231f20"/><path d="M369.28,314a64.8,64.8,0,1,0,1,129.6h0a64.8,64.8,0,1,0-1-129.6M415.6,423.88a64.26,64.26,0,1,1,18.46-45.59,64.07,64.07,0,0,1-18.46,45.59" transform="translate(-305 -314)" style="fill:#231f20"/><path d="M424.51,391.51a3.5,3.5,0,0,0-1.57-.15c-1.88.3-2.55,2.25-2.84,3.2-.14.47-.25.94-.38,1.38-.27.87-.35,1-.41,1.21a.37.37,0,0,0,0,.2.44.44,0,0,0,.3.36.51.51,0,0,0,.19,0c.36-.11.37-.34.49-.46s.17-.22.29-.24a.57.57,0,0,1,.26,0l4.25,1.3c.26.1.23.13.25.2s0,.19,0,.38a.46.46,0,0,0,.32.38.4.4,0,0,0,.19,0c.43-.15.35-.45.41-.52.09-.3.14-.57.21-.82s.28-.79.6-1.83a3.84,3.84,0,0,0,.08-1.6,3.6,3.6,0,0,0-2.62-3m1.58,4.58c-.07.27-.28.63-.44.62a.33.33,0,0,1-.15,0l-.08.27.08-.27-4.1-1.26c-.44-.14-.49-.2-.48-.25a1,1,0,0,1,.06-.36,2.19,2.19,0,0,1,1.88-1.68,3.45,3.45,0,0,1,1.42.1c1.23.38,1.79,1,1.91,1.81a2.34,2.34,0,0,1-.1,1" transform="translate(-305 -314)" style="fill:#231f20"/><path d="M421.39,407.33a.45.45,0,0,0-.33.22,1.77,1.77,0,0,0-.1.27l0,.06h0l-2-.05-.71,0h-.06a3.12,3.12,0,0,0,0-.39v0a1.75,1.75,0,0,0-.87-1.31,2,2,0,0,0-1.23-.29,2.54,2.54,0,0,0-1.87,1.4c-.34.55-.64,1.13-1,1.66s-.37.53-.61.92a.56.56,0,0,0-.09.34.42.42,0,0,0,.2.32.41.41,0,0,0,.26.06c.31-.06.37-.23.5-.33a.54.54,0,0,1,.31-.18.6.6,0,0,1,.37.11l.16-.25-.15.25,3.57,2.18c.4.25.43.4.45.5s0,.2,0,.45a.42.42,0,0,0,.21.33.44.44,0,0,0,.28.07h0a.58.58,0,0,0,.42-.34c.25-.42.47-.84.73-1.27s.35-.51.46-.68a.68.68,0,0,0,.13-.42.4.4,0,0,0-.19-.31.42.42,0,0,0-.27-.07c-.31.06-.36.23-.47.32a.42.42,0,0,1-.25.16.57.57,0,0,1-.33-.11l-1.4-.86-.08-.05.07-.13c.2-.31.21-.3.39-.34H418l1.7.1a5.13,5.13,0,0,0,.78,0,1.46,1.46,0,0,0,1.18-.7,1.92,1.92,0,0,0,.27-1,.62.62,0,0,0-.27-.48.42.42,0,0,0-.26-.06m-5,2.39.09-.15.06-.1Zm.28-.58a2.82,2.82,0,0,1-.17.26l0,0-1.57-1c-.19-.12-.18-.17-.19-.17a.71.71,0,0,1,.13-.27,1.08,1.08,0,0,1,.84-.57,1.51,1.51,0,0,1,.92.25c.27.17.4.27.42.46a1.78,1.78,0,0,1-.36,1" transform="translate(-305 -314)" style="fill:#231f20"/><path d="M423.68,400.58a.58.58,0,0,0-.32-.06.4.4,0,0,0-.35.45c.12.45.39.53.45,1.07a3,3,0,0,1-.35,1.55c-.12.26-.18.25-.19.25a1.43,1.43,0,0,1-.53-.2l-1.1-.5L421,403l0-.09.29-.64c.14-.28.23-.29.36-.32s.35.06.63,0a.44.44,0,0,0,.35-.24.44.44,0,0,0,0-.24c-.13-.47-.5-.44-.56-.5l-1.55-.64a.63.63,0,0,0-.33-.06.38.38,0,0,0-.27.15.52.52,0,0,0-.08.13h0a.34.34,0,0,0,0,.19c.07.28.19.31.27.45a.76.76,0,0,1,.18.36.56.56,0,0,1-.05.29l-.25.54,0,.1-.16-.07-1.2-.55a1.57,1.57,0,0,1-.28-.14h0a3.09,3.09,0,0,1,.32-.82c.31-.67.54-.75.66-.77s.29.1.63.1a.45.45,0,0,0,.35-.26.49.49,0,0,0,0-.24c-.13-.46-.47-.43-.54-.49l-.85-.35a.46.46,0,0,0-.24,0,.48.48,0,0,0-.38.29c-.35.76-.59,1.37-.86,2-.6,1.32-.92,1.91-1.09,2.27a.53.53,0,0,0,0,.29.45.45,0,0,0,.26.36.46.46,0,0,0,.24,0c.35-.08.41-.3.55-.43s.22-.23.31-.24a.4.4,0,0,1,.2,0l4,1.84c.41.2.4.29.41.34s0,.15,0,.38a.49.49,0,0,0,.29.39.42.42,0,0,0,.2,0,.48.48,0,0,0,.36-.3c.22-.49.36-.87.47-1.12.19-.42.47-.93,1.07-2.24a1.46,1.46,0,0,0,.12-.78,1.89,1.89,0,0,0-1.09-1.46" transform="translate(-305 -314)" style="fill:#231f20"/><path d="M415.57,414.15c-.31-.27-.33-.41-.33-.45s.08-.08.12-.41a.48.48,0,0,0-.16-.33.43.43,0,0,0-.3-.12.38.38,0,0,0-.28.13c-.23.25-.42.52-.63.75s-.59.6-.89.93a.77.77,0,0,0-.31.53.49.49,0,0,0,.17.34.39.39,0,0,0,.27.1c.32-.05.35-.21.47-.29a.46.46,0,0,1,.29-.15c.09,0,.27,0,.56.3a.92.92,0,0,1,.4.63,1.7,1.7,0,0,1-.57,1.09,1.46,1.46,0,0,1-1.08.49,3.27,3.27,0,0,1-2.11-.89,2.87,2.87,0,0,1-1.15-2,1.56,1.56,0,0,1,.41-1.1,2.18,2.18,0,0,1,1.57-.85,2.12,2.12,0,0,1,.83.15,2.19,2.19,0,0,0,.61.2.33.33,0,0,0,.23-.1.56.56,0,0,0,.17-.38.44.44,0,0,0-.15-.31h0l-1.13-1a.73.73,0,0,0-.48-.24.4.4,0,0,0-.28.14.39.39,0,0,0-.1.29.85.85,0,0,0,0,.16,5.3,5.3,0,0,0-2,1.29,3.29,3.29,0,0,0-.9,2.35,4.16,4.16,0,0,0,1.4,2.86,3.7,3.7,0,0,0,2.43.91h0A3.23,3.23,0,0,0,415,418a6.52,6.52,0,0,0,1.33-2.87.62.62,0,0,0,0-.13.53.53,0,0,0-.21-.38c-.12-.11-.32-.24-.59-.49" transform="translate(-305 -314)" style="fill:#231f20"/><path d="M355.65,336.32l0,0,0,0a.31.31,0,0,0-.21-.09c-.28,0-.46.38-.65.46-1.24.34-2.22,1.28-3.46,1.61a2.19,2.19,0,0,0-1.25.93l.09.08a9.19,9.19,0,0,1,2-1c1.09-.8,2.46-1,3.49-1.94" transform="translate(-305 -314)" style="fill:#231f20"/><path d="M337.08,344.58l0,0a.75.75,0,0,0,.22-.51s0,0,0-.06c.1-.27.24-.54.51-.58.47.57.85.81,1.2.81,1.12,0,1.5-2.49,2.9-2.48H342c.29.2.4.4.4.58,0,.57-1,1.2-1.08,1.94a.74.74,0,0,0,.71.53h0l0,0a.5.5,0,0,0,.12-.25.18.18,0,0,0,0,0,1.94,1.94,0,0,0-.31-.28c.21-.75,1.07-.57,1.34-1.4a1.61,1.61,0,0,0,.05-.43,1.54,1.54,0,0,0-.39-1.06l0,0,0-.06-.27-.09A1.55,1.55,0,0,0,342,341c-1.17,0-1.74,1.59-2.52,2.23a.37.37,0,0,1-.17.05c-.25,0-.42-.43-.66-.68a1.16,1.16,0,0,0-1.07,0c-.78.31-.73,1.12-.92,1.69l0,.05.42.16Z" transform="translate(-305 -314)" style="fill:#231f20"/><path d="M348,338.82l.07,0a3.72,3.72,0,0,0,1.71-2.7c.45-.52.84-1.58,1.58-1.58l.18,0s0,.05,0,.08,0,.23,0,.35c0,.45.06,1,.58,1.16l.26,0c1.33,0,1.35-1.75,2-2.5a3.08,3.08,0,0,1,2.55-1.54l.33,0a.64.64,0,0,1,.08.32c0,.42-.36.87-.36,1.35a.78.78,0,0,0,.13.42l0,0h.21c1.36,0,1.9-1.82,3-1.81a1.43,1.43,0,0,1,.64.16,1.65,1.65,0,0,1,.06.41c0,1.22-1.78,1.3-2.46,2.29a.77.77,0,0,0-.07.33,1,1,0,0,0,.47.81c.36.36,1.11.27,1.09.77,0,0,0,.07,0,.11a1.44,1.44,0,0,1-1.37.78c-.69,0-1.49-.26-2.23-.26l-.35,0c-.64.27-1.8.22-1.85,1.24.23.65.94.69,1.38.93a1.69,1.69,0,0,1,0,.17.67.67,0,0,1-.25.58,2.49,2.49,0,0,1-.82.14c-1.06,0-2.13-.59-3.26-.69l-.19,0c-.18,0-.42,0-.63,0s-.52.06-.61.33l.08.07a2.32,2.32,0,0,1,.67-.1c1.32,0,2.47,1.09,3.76,1.09a2.11,2.11,0,0,0,1.08-.31A1.44,1.44,0,0,0,356,340c-.08-.56-.7-.4-.87-.75a.49.49,0,0,1-.06-.23.55.55,0,0,1,.26-.44,3.2,3.2,0,0,1,1.14-.17c.54,0,1.13.05,1.69,0a2.15,2.15,0,0,0,2.2-1.11,1.07,1.07,0,0,0,.06-.33c0-.71-1-.68-1.24-1.09a1.33,1.33,0,0,1,0-.23c0-.86,1.28-.64,1.82-1.37a2.79,2.79,0,0,0,.47-1.34.91.91,0,0,0-1-1,2.74,2.74,0,0,0-1.11.29c-.55.25-1,.9-1.49,1l.1-1h-.06l.06,0c-.27-.64-1-.62-1.56-.67a4.22,4.22,0,0,0-2.89,1.91c-.35.71-.35,1.88-1.26,1.87h0a1.19,1.19,0,0,1-.18-.71c0-.09,0-.18,0-.28a.53.53,0,0,0-.57-.37,1.65,1.65,0,0,0-.36,0,4.14,4.14,0,0,0-2.66,3.69c0,.28-.45.47-.46.88a.43.43,0,0,0,0,.09Z" transform="translate(-305 -314)" style="fill:#231f20"/><path d="M404.06,426.52a.48.48,0,0,0-.23.08,1.21,1.21,0,0,0-.2.21l-.08,0-1.78-.89-.63-.32,0,0a3.06,3.06,0,0,0,.17-.4,1.86,1.86,0,0,0,.08-.64,1.76,1.76,0,0,0-.31-.9,1.93,1.93,0,0,0-1.72-.89,3.08,3.08,0,0,0-1.53.58c-.54.35-1.05.74-1.57,1.08s-.56.32-.94.58a.49.49,0,0,0-.25.43.42.42,0,0,0,.07.21.43.43,0,0,0,.39.18c.29,0,.46-.16.63-.16s.22,0,.41.28l2.29,3.46a1.1,1.1,0,0,1,.21.5.41.41,0,0,1-.08.25.7.7,0,0,0-.19.44.43.43,0,0,0,.07.21.45.45,0,0,0,.38.21h0a.73.73,0,0,0,.36-.15c.41-.27.78-.56,1.19-.83s.53-.3.7-.42a.57.57,0,0,0,.31-.49.4.4,0,0,0-.07-.2.43.43,0,0,0-.39-.19c-.29,0-.44.16-.57.16s-.17,0-.35-.25l-.9-1.36-.05-.08.12-.09a.78.78,0,0,1,.35-.16.67.67,0,0,1,.34.12l1.49.8a2.61,2.61,0,0,0,1.34.44,1.4,1.4,0,0,0,.7-.24,1.55,1.55,0,0,0,.73-1.11.52.52,0,0,0-.08-.26.43.43,0,0,0-.38-.19m-5.23-.06-.16.1.16-.11Zm.34-.29a1.83,1.83,0,0,1-.29.17l-1-1.52a.49.49,0,0,1-.1-.21s0-.06.24-.2a1.19,1.19,0,0,1,.61-.22,1.29,1.29,0,0,1,1.11.67,1,1,0,0,1,.2.45c0,.14-.08.42-.76.87" transform="translate(-305 -314)" style="fill:#231f20"/><path d="M334,349.21h0v0a10.94,10.94,0,0,0,.15-1.22c.19-.26.4-.63.69-.62a.51.51,0,0,1,.24.06l.08,0,0-.77,0,0a.91.91,0,0,0-.56-.17h-.12a1.5,1.5,0,0,0-.92.63,1,1,0,0,0-.18.62,6,6,0,0,0,.18,1c0,.14.07.46.37.47" transform="translate(-305 -314)" style="fill:#231f20"/><path d="M363.75,333.41l-.05,0c-.74.7-1.82.77-2.63,1.29l0,.11a4.84,4.84,0,0,0,2.71-1.14l0,0v-.17l0-.06Z" transform="translate(-305 -314)" style="fill:#231f20"/><path d="M328.12,359.5h0a.34.34,0,0,0,.27-.32.45.45,0,0,0,0-.11,5.12,5.12,0,0,1-1.1-3.1c0-.14,0-.28,0-.42.28-.69.17-1.7,1.07-1.86a1.15,1.15,0,0,1,.28.64c.2.37.19,1.2.83,1.21a1,1,0,0,0,.32-.07,1.26,1.26,0,0,0,.67-1.2c0-.6-.25-1.27-.25-1.89a1.77,1.77,0,0,1,.07-.55c.26-.56.41-1.38,1.11-1.44.33.46,0,1.28.69,1.72a.94.94,0,0,0,.86.39h.2c.63-.3.64-1,.83-1.48a1.55,1.55,0,0,1,1.3-.88h0l.06-.09a.34.34,0,0,0-.31-.18c-.25,0-.54.19-.74.2-.67.15-.86.87-1.1,1.32a1.13,1.13,0,0,1-.27,0c-.52,0-.52-1-1-1.38a.89.89,0,0,0-.46-.12,3.63,3.63,0,0,0-1,.27,3.18,3.18,0,0,0-.65,1.64,1.74,1.74,0,0,0-.07.51c0,.51.18,1,.18,1.45a1.29,1.29,0,0,1-.18.7c-.32,0-.18-.44-.29-.75,0-.47-.54-.63-.9-.62h-.13c-1.3,0-1.23,1.61-1.6,2.39a3.09,3.09,0,0,0-.12.88,6,6,0,0,0,.51,2.18c.24.28.33.81.78.91" transform="translate(-305 -314)" style="fill:#231f20"/><path d="M376.85,333.71h0a.14.14,0,0,0-.08.12c0,.1.09.15.13.2,1.08.36,2.14,1,3.15,1.25l.05-.11a15.55,15.55,0,0,0-3.2-1.46Z" transform="translate(-305 -314)" style="fill:#231f20"/><path d="M382.55,335.59c.34.22.45.39.45.51,0,.42-1.34.67-1.52,1.28a1,1,0,0,0-.06.36,2.24,2.24,0,0,0,.57,1.2,2.52,2.52,0,0,0,1.67.53,8.64,8.64,0,0,0,2-.35c.24.11.31.23.31.38,0,.32-.36.77-.36,1.21a.61.61,0,0,0,0,.09,1.55,1.55,0,0,0,1,1.21,3.56,3.56,0,0,0,.84.11,1.1,1.1,0,0,0,.77-.25l0,0v0a.8.8,0,0,0-.17-.52l0,0H388a.29.29,0,0,0-.29.15.57.57,0,0,1-.3.08,3,3,0,0,1-1-.36.68.68,0,0,1-.27-.54c0-.4.3-.86.3-1.31a.86.86,0,0,0-.46-.74,1.75,1.75,0,0,0-.55-.09c-.78,0-1.44.48-2.2.48a1.81,1.81,0,0,1-.65-.11,1.49,1.49,0,0,1-.72-.8,1.35,1.35,0,0,1,0-.29c0-.94,1.48-.49,1.94-1.41a2,2,0,0,0,0-.27c0-1.51-2-.77-2.64-1.63a2.31,2.31,0,0,1-.59-1.36,1.15,1.15,0,0,1,.12-.53,1.74,1.74,0,0,1,.66-.13,3.21,3.21,0,0,1,1.57.51c.76.34,1.35,1.71,2.32,1.72a1.17,1.17,0,0,0,.55-.15,1.34,1.34,0,0,0,.62-1.27.4.4,0,0,1,.43-.3c.22,0,.49.09.71.09h.07a2.7,2.7,0,0,1,1.53,2c.16.28.42.67.79.67a.51.51,0,0,0,.2,0l0,0v-.24l0,0c-.62-.59-.63-1.46-1.23-2.15a2.71,2.71,0,0,0-2-.95,2.23,2.23,0,0,0-.43,0,1.44,1.44,0,0,0-.66,1.34c0,.23-.17.25-.39.26h-.32l-.21-.1a5.93,5.93,0,0,0-2.51-1.72,7.85,7.85,0,0,0-1.08-.11,1.2,1.2,0,0,0-1.15.58,1.31,1.31,0,0,0-.07.44,3.48,3.48,0,0,0,.35,1.19c.38,1,1.4,1,2.09,1.4" transform="translate(-305 -314)" style="fill:#231f20"/><path d="M409.17,360.25l-.07-.06,0,.09c-.21.63-.86,1.13-.86,1.91a1.21,1.21,0,0,0,0,.18,1.33,1.33,0,0,1,.22.78c0,.34-.07.7-.07,1.05a1.14,1.14,0,0,0,.69,1.11,3.2,3.2,0,0,0,1.3.32,2,2,0,0,0,.49-.06,3.3,3.3,0,0,0,2.25-1.8,1.8,1.8,0,0,0,.13-.64c0-1.21-1.78-1.25-2.21-2.3l-.06,0,0,0c-.64-.45-1.34-.12-1.85-.56m-.34,4.17c0-.15-.2-.29,0-.42.33.06.31.55.53.72.09-.16,0-.37,0-.57.33.11.45.68.6.9a1.27,1.27,0,0,1-1.13-.63m3.11-1.94a1.07,1.07,0,0,1,.43,1.28c-.09-.33-.62-.72-.38-1.1Zm.17,1.65c-.09.11-.09.29-.26.31,0-.44-1-.92-.16-1.26a1.3,1.3,0,0,1,.43.94m-.65-1.91c.14.26.25.57-.1.75-.13.29-.66.29-.53.65.38-.07.49.35.65.57s0,.57-.3.69c-.35,0-.29-.88-.75-.57l.38.64c-.09.11-.33.07-.48.16a2.54,2.54,0,0,1-.47-.94c.06-.2.31,0,.31-.27-.31-.22-.77,0-1.1-.15a2.43,2.43,0,0,1-.28-2c.22-.27.39-.55.72-.62a2.12,2.12,0,0,1,2,1.13" transform="translate(-305 -314)" style="fill:#231f20"/><path d="M374.29,334.22c.24.36.29.85.57,1.26a1.59,1.59,0,0,0,.69.28.52.52,0,0,0,.26-.07,1,1,0,0,1,.36-.07c.77,0,1,1.19,1.59,1.7a2.08,2.08,0,0,0,1.26.35,6.92,6.92,0,0,0,1.4-.2c.14-.15.43-.26.45-.49a.34.34,0,0,0-.17-.26l0,0h0a9.2,9.2,0,0,1-1.68.39,1.47,1.47,0,0,1-.66-.14c-.78-.28-.81-1.28-1.5-1.83a.58.58,0,0,0-.44-.18c-.25,0-.48.12-.69.12a.45.45,0,0,1-.34-.14c-.22-1.17-1.82-1.28-1.86-2.43a.48.48,0,0,1,.29-.36,1.16,1.16,0,0,1,.35-.06,1.15,1.15,0,0,1,.84.34.75.75,0,0,0,.4.13c.51,0,.78-.65,1.15-.93a1.2,1.2,0,0,1,.45-.1c.92,0,1,1.57,2.07,1.59h.11v-.43l0,0c-.48-.24-.62-.82-1.05-1.24a1.51,1.51,0,0,0-1-.33,1.8,1.8,0,0,0-.61.11c-.53.15-.51.82-1,.8h0a1.51,1.51,0,0,0-1.27-.58,2.67,2.67,0,0,0-.52.06c-.56.18-.59.77-.61,1.23a2.76,2.76,0,0,0,1.25,1.52" transform="translate(-305 -314)" style="fill:#231f20"/><path d="M385.73,335.92h0c-.12,0-.28-.14-.46-.14a.23.23,0,0,0-.21.13l0,.06.06,0c.83.39,1.61.89,2.46,1.3l.07-.1a4.84,4.84,0,0,0-1.84-1.28" transform="translate(-305 -314)" style="fill:#231f20"/><path d="M334.78,390l0,0h-.28l0,.08c.34.95.83,1.81,1.24,2.7,1.43,1.34,1,3.5,2.5,4.87l0,0h.18v-.06a3.62,3.62,0,0,0-.91-1.83c-.47-2.11-1.95-3.77-2.75-5.74" transform="translate(-305 -314)" style="fill:#231f20"/><path d="M379.19,424.42l-.3,0c-.14,0-.12.05-.2-.21l-.57-3.07c0-.22,0-.5-.07-.68a.34.34,0,0,0-.33-.27.28.28,0,0,0-.11,0h0c-.16.07-.12.11-.16.13a2.4,2.4,0,0,1-.92.6.48.48,0,0,0-.37.43.41.41,0,0,0,0,.07c0,.11,0,.26.37.32h0c.16,0,.27-.11.37-.14l0,.12.51,2.76a.47.47,0,0,1,0,.08c0,.1,0,.06-.12.12l-.22.08a.39.39,0,0,0-.25.35.28.28,0,0,0,0,.07.44.44,0,0,0,0,.12.32.32,0,0,0,.29.18h.06l.95-.21.82-.13a2.05,2.05,0,0,0,.27-.06.38.38,0,0,0,.27-.36.34.34,0,0,0,0-.07.38.38,0,0,0-.39-.3" transform="translate(-305 -314)" style="fill:#231f20"/><path d="M419,352c0,.12,0,.24,0,.36,0,.66.07,1.15.07,1.51,0,.59-.06.69-.4.88a1,1,0,0,1-.44.11,1,1,0,0,1-.86-.62,1.42,1.42,0,0,1-.15-.64A2.42,2.42,0,0,1,418,352a.56.56,0,0,0,.21-.4.52.52,0,0,0-.06-.23.45.45,0,0,0-.4-.26.8.8,0,0,0-.49.24l.19.24-.19-.23-1.05.86a.64.64,0,0,0-.33.52.83.83,0,0,0,0,.2,7.63,7.63,0,0,0,.44,1.7,2.37,2.37,0,0,0,2.11,1.4h0a2.57,2.57,0,0,0,1.16-.28,2.21,2.21,0,0,0,1.31-2.25c0-.15,0-.31,0-.47,0-.55-.06-1-.06-1.27,0-.5,0-.55.28-.69a.82.82,0,0,1,.36-.1.72.72,0,0,1,.63.47,1.47,1.47,0,0,1,.17.67,1.7,1.7,0,0,1-.39,1c-.11.14-.21.26-.3.36s-.18.15-.21.42a.32.32,0,0,0,0,.17.49.49,0,0,0,.44.3.72.72,0,0,0,.38-.13l1.11-.68c.1-.11.34-.05.43-.49a.43.43,0,0,0,0-.19,1,1,0,0,0-.26-.28l-.09-.08,0,0h0a4,4,0,0,0-.32-1.5,2.13,2.13,0,0,0-1.92-1.24,2.36,2.36,0,0,0-1.07.26,1.94,1.94,0,0,0-1.13,2" transform="translate(-305 -314)" style="fill:#231f20"/><path d="M412.16,345.42c-.22,0-.36-.23-.79-.3a.48.48,0,0,0-.28.08.39.39,0,0,0-.18.31.59.59,0,0,0,.17.38c.15.23.32.41.47.63s.31.53.57.91c.08.06.09.29.47.36a.37.37,0,0,0,.21-.06.45.45,0,0,0,.2-.36c0-.36-.2-.51-.18-.72s.08-.4.63-.78l2.21-1.49-1.39,5.95a.57.57,0,0,0,0,.17.51.51,0,0,0,.1.32.38.38,0,0,0,.29.17h0a.67.67,0,0,0,.39-.16l4.26-2.88a.65.65,0,0,1,.38-.15.46.46,0,0,1,.25.1.79.79,0,0,0,.41.19.41.41,0,0,0,.24-.07.39.39,0,0,0,.18-.31.5.5,0,0,0-.1-.3c-.07-.1-.26-.32-.58-.79s-.45-.73-.55-.89a.43.43,0,0,0-.34-.19.45.45,0,0,0-.27.08.41.41,0,0,0-.18.34c0,.34.19.61.17.84a.33.33,0,0,1-.17.29l-2.32,1.57,1.23-5.1c0-.09,0,0,.09-.3a.59.59,0,0,0-.13-.35c-.28-.41-.45-.6-.57-.78s-.14-.27-.26-.45a.43.43,0,0,0-.35-.2.48.48,0,0,0-.48.45c0,.31.14.42.12.58s-.08.39-.67.8l-2.88,1.95a.61.61,0,0,1-.36.13" transform="translate(-305 -314)" style="fill:#231f20"/><path d="M369.39,327.8a51,51,0,1,0,51.41,50.59,51,51,0,0,0-51.41-50.59m36.38,86.39a50.46,50.46,0,1,1,14.49-35.8,50.3,50.3,0,0,1-14.49,35.8" transform="translate(-305 -314)" style="fill:#231f20"/><path d="M400,344v-.23l0,0c-1.07-.49-2-1.39-3-2l-.05,0-.12.21,0,.05.05,0c1,.62,1.92,1.68,3.14,1.94Z" transform="translate(-305 -314)" style="fill:#231f20"/><path d="M412,379a2.15,2.15,0,0,0,.33,1.23l0,0,.16,0h0l0-2.21a7.25,7.25,0,0,0,.75-3.56,14.69,14.69,0,0,0-.18-2.12v-.11h-.32v.13c0,.71.06,1.44.07,2.16a5.38,5.38,0,0,1-.71,3.11A10.37,10.37,0,0,0,412,379" transform="translate(-305 -314)" style="fill:#231f20"/><path d="M405.09,347.17v0l0,0a2.71,2.71,0,0,1,.85,2.38V350a3.35,3.35,0,0,0,.5,2.08,1.06,1.06,0,0,0,.66.3l.16,0a.75.75,0,0,0,.42-.74c0-.31-.1-.65-.1-1a1.12,1.12,0,0,1,0-.25.64.64,0,0,1,.48-.36l.14,0a2.25,2.25,0,0,1,1,1.85,2,2,0,0,1,0,.3,3.57,3.57,0,0,0-.29,1.51,5.34,5.34,0,0,0,.25,1.54.79.79,0,0,0,.73.51c.51,0,1.07-.44,1.57-.43a.77.77,0,0,1,.23,0,1.36,1.36,0,0,1,.68,1.08c0,1-1.37,2-1.37,3.26a1.6,1.6,0,0,0,0,.33v0h0l.13,0a.37.37,0,0,0,.33-.29v0c0-1.32,1.65-2.09,1.66-3.45a1.81,1.81,0,0,0-.1-.57,2,2,0,0,0-1.38-1.24,1.06,1.06,0,0,0-.37-.06,1.78,1.78,0,0,0-1,.39c-.09.12-.15.15-.22.15s-.33-.17-.44-.33a3.63,3.63,0,0,1-.07-.68c0-.76.18-1.54.18-2.27a2.24,2.24,0,0,0-.73-1.76,1.9,1.9,0,0,0-.93-.45.71.71,0,0,0-.31.08,1,1,0,0,0-.63,1c0,.26,0,.53,0,.77a1.07,1.07,0,0,1-.11.54l-.37-.31a5.2,5.2,0,0,1-.05-.73c0-.66.09-1.29.1-2h-.06l.06,0a3.78,3.78,0,0,0-1-1.71,1.16,1.16,0,0,0-.48-.16.26.26,0,0,0-.26.2" transform="translate(-305 -314)" style="fill:#231f20"/><path d="M374.48,420.79a.4.4,0,0,0-.3-.12h-.11l-2.12.07c-.38.06-.43.34-.52.56a2.64,2.64,0,0,0-.11.76v0a.75.75,0,0,0,0,.21.37.37,0,0,0,.35.26h0a.39.39,0,0,0,.35-.26c.12-.27.07-.35.32-.37l1.24,0h0a4,4,0,0,1-.18.4c-.3.68-1.3,1.61-1.3,2.9a.4.4,0,0,0,0,.06,1.58,1.58,0,0,0,.06.45.54.54,0,0,0,.5.41h0a3.33,3.33,0,0,0,.43-.07,1.54,1.54,0,0,0,.27-.09l.11-.07h.14v-.27h0a.1.1,0,0,0,0,0h0v0a6,6,0,0,1-.14-.73v0a3.74,3.74,0,0,1,.33-1.31,6.68,6.68,0,0,0,.72-2.27s0,0,0-.07a.51.51,0,0,0-.12-.35" transform="translate(-305 -314)" style="fill:#231f20"/><path d="M399,334.43a.31.31,0,0,0-.07.2c.05.36.2.34.32.47s.68.47,1,.75.6.51.84.69a.69.69,0,0,0,.39.18.4.4,0,0,0,.33-.16.5.5,0,0,0,.1-.27.89.89,0,0,0-.26-.53.49.49,0,0,1-.13-.29.44.44,0,0,1,.11-.24l.78-1c.18-.21.08-.15.21-.19l.28,0s0,0,0,.07l-.09,3.29a.81.81,0,0,0,.32.77c.24.19.43.28.54.37s.36.33.56.48a.44.44,0,0,0,.26.1.42.42,0,0,0,.34-.18.44.44,0,0,0,.09-.25c0-.34-.15-.32-.21-.5a2.16,2.16,0,0,1-.14-1l.06-3.13c0-.07,0-.12,0-.17v-.08h.1v-.31l0,.3,2.33-.21.46,0a3.79,3.79,0,0,1,.9.19.43.43,0,0,0,.35-.17.48.48,0,0,0,.1-.27.54.54,0,0,0-.25-.44c-.35-.27-.59-.4-.75-.53s-.72-.6-.82-.68a.58.58,0,0,0-.33-.14.47.47,0,0,0-.39.21.38.38,0,0,0-.09.23.68.68,0,0,0,.21.45l0,0a2.28,2.28,0,0,1-.64.17c-.37.06-.76.08-1,.11l-1.48.17,1.14-1.47c.22-.28.31-.27.32-.27s.09.09.43.15a.46.46,0,0,0,.38-.19.42.42,0,0,0,.09-.24.49.49,0,0,0-.23-.41c-.18-.14-.68-.47-1.1-.8s-.73-.61-.9-.74a.54.54,0,0,0-.31-.12.43.43,0,0,0-.36.18.45.45,0,0,0-.1.28.84.84,0,0,0,.28.55.44.44,0,0,1,.14.29.72.72,0,0,1-.18.39l-2.6,3.36c-.36.46-.53.48-.58.48s-.14-.08-.43-.12a.51.51,0,0,0-.42.22" transform="translate(-305 -314)" style="fill:#231f20"/><path d="M373.7,425.57h0Z" transform="translate(-305 -314)" style="fill:#231f20"/><polyline points="68.7 111.57 68.7 111.57 68.7 111.57 68.7 111.57" style="fill:#231f20"/><path d="M369.33,423a1.12,1.12,0,0,0,.56-.91s0-.05,0-.08a1.49,1.49,0,0,0-1.52-1.32h-.15a1.6,1.6,0,0,0-1.7,1.43.71.71,0,0,0,0,.11,1.38,1.38,0,0,0,.3.87,1.55,1.55,0,0,0-.65,1.14,1.07,1.07,0,0,0,0,.11c0,.61.44,1.47,1.74,1.53h.25a1.67,1.67,0,0,0,1.79-1.52c0-.05,0-.1,0-.15a1.41,1.41,0,0,0-.61-1.2m-.51,1.64c0,.32-.29.47-.7.48H368c-.51,0-.75-.41-.77-.95,0,0,0-.07,0-.1a.52.52,0,0,1,.24-.47l.82.37c.34.17.48.3.49.6,0,0,0,0,0,.06m0-2.54c0,.27-.15.39-.39.4h0a1.75,1.75,0,0,1-.49-.21c-.22-.14-.36-.31-.35-.41h0c0-.26.22-.41.52-.43h0v0c.46,0,.69.21.7.59a.6.6,0,0,1,0,.06" transform="translate(-305 -314)" style="fill:#231f20"/><path d="M364,424.68a1.78,1.78,0,0,1-.32-.08c-.06,0-.06,0-.08-.16a.73.73,0,0,1,0-.08l-.26,0,.27,0,.41-3.1c0-.23.11-.49.14-.67v-.06a.33.33,0,0,0-.28-.32h-.05a.38.38,0,0,0-.21.08,2.43,2.43,0,0,1-1.06.28,1.18,1.18,0,0,0-.2,0,.42.42,0,0,0-.3.31.12.12,0,0,0,0,0s0,0,0,0a.37.37,0,0,0,.31.38h.07l.27,0h0a.91.91,0,0,1,0,.13l-.36,2.77c0,.15,0,.15-.08.14H362a.59.59,0,0,0-.23,0,.38.38,0,0,0-.22.29c0,.05,0,.05,0,.07a.44.44,0,0,0,0,.15.32.32,0,0,0,.25.2l1,.1.82.13a2.08,2.08,0,0,0,.27,0,.4.4,0,0,0,.24-.07.37.37,0,0,0,.15-.26V425a.38.38,0,0,0-.31-.35" transform="translate(-305 -314)" style="fill:#231f20"/><path d="M406.26,339.49c-.18,0-.28-.09-.56-.12a.43.43,0,0,0-.31.13.37.37,0,0,0-.11.27c0,.32.2.35.25.42.21.21.43.38.61.56s.37.42.6.65c.1.06.15.32.55.38a.42.42,0,0,0,.3-.12.4.4,0,0,0,.11-.28,1.11,1.11,0,0,0-.21-.52.82.82,0,0,1-.13-.35.18.18,0,0,1,.07-.14A2.7,2.7,0,0,1,408,340a1.16,1.16,0,0,1,.46-.15c.06,0,0,0,.07,0l1.32,1.32,0,0a4.51,4.51,0,0,1-.25.68,1.36,1.36,0,0,1-.26.47c-.08.07-.1.06-.14.07s-.24-.11-.55-.14a.44.44,0,0,0-.32.13.39.39,0,0,0-.12.28c0,.32.19.33.25.43.21.21.48.43.76.71.43.43.58.63.84.89.13.09.14.23.45.28a.47.47,0,0,0,.44-.44.68.68,0,0,0-.18-.4.32.32,0,0,1-.07-.21.56.56,0,0,1,0-.21l2.28-5.9a1.22,1.22,0,0,0,.11-.4.41.41,0,0,0-.13-.29.42.42,0,0,0-.3-.12,1.12,1.12,0,0,0-.42.12l-5.85,2.24a.65.65,0,0,1-.23,0m3.34-.1,1.3-.51-.5,1.32v0l-.82-.82h0" transform="translate(-305 -314)" style="fill:#231f20"/><circle cx="373.7" cy="425.6" transform="translate(-496.99 83.6) rotate(-45.88)" style="fill:#231f20"/><path d="M371.54,374.06h-.08a.88.88,0,0,0-.53.41l0,16.73a.63.63,0,0,0,.65.48h.11a.79.79,0,0,0,.53-.51c0-.86,0-1.71,0-2.58,0-4.51,0-9.36,0-13.94h0a.7.7,0,0,0-.68-.59" transform="translate(-305 -314)" style="fill:#231f20"/><path d="M373.68,391.68h.21a.82.82,0,0,0,.47-.63c-.1-2.48-.14-5-.17-7.61,0-2.4,0-4.82,0-7.21,0-.54,0-1.08,0-1.62h0a.62.62,0,0,0-.66-.55.6.6,0,0,0-.63.49l.25,16.78a.56.56,0,0,0,.59.38" transform="translate(-305 -314)" style="fill:#231f20"/><path d="M371.61,395.57a.67.67,0,0,0-.59.33l-.08,5.17.17.29a.27.27,0,0,0,.27.13h.12a.22.22,0,0,1,.15,0l0,0h0a1,1,0,0,0,.57-.58l0-4.89h0a.59.59,0,0,0-.63-.49" transform="translate(-305 -314)" style="fill:#231f20"/><path d="M379,394.9l-2.44,0,0-2.83,2.06,0v-.5l-2,0,0-2.41,2,0v-.49l-2.06,0,0-2.68,2.33,0,0-.44v-.06l-2.27,0-.07-2.74,2.8,0,0-.44v-.05l-2.75,0,0-2.94,2.21,0,0-.41v-.07l-2.23,0,0-3.26,2.49,0v-.06c0-.05,0-.18,0-.28a.28.28,0,0,0,0-.15l0,0-2.46,0,0-2.9h2.44a.07.07,0,0,0,0-.06v-.42h-2.47c0-.17,0-.34,0-.51a5.54,5.54,0,0,0-.42-2.4l3.88-1.77v0l-.07-.31,0-.07-.07,0c-1.31.52-2.53,1.34-3.84,1.79a10.29,10.29,0,0,0-1.49-2.14c.56-.53,3.78-3.91,3.84-4v0c-.06-.11-.09-.28-.26-.29h0l-4,4a6.46,6.46,0,0,0-2.14-1.21l2.49-4.61,0,0s0,0-.06,0l-.18-.1-.07,0h0v0h0s0,0,0,0,0,.08-.11.19l-1.39,2.58-.72,1.33-.23.42-.06.11h0a13.12,13.12,0,0,0-1.79-.14,7.46,7.46,0,0,0-1.07.09c-.29-.53-2.26-4.13-2.34-4.21h0l-.42.25-.05,0,2.26,4.06a11.14,11.14,0,0,0-2.49,1.31l-4-4.65-.31.32,0,0,3.9,4.67a6.08,6.08,0,0,0-1.61,2.11c-.9-.34-1.7-.94-2.6-1.32h0l0,0a.46.46,0,0,0-.19.31.12.12,0,0,0,0,.07l2.58,1.47a8.84,8.84,0,0,0-.32,2.43c0,.21,0,.42,0,.62h-2.13v.6l2.13,0,0,2.82-2.16,0v.43l2.17,0,0,3.32-2.17,0v.48l2.22-.05.08,3-2.19,0,0,.43V383l2.15,0v.17c0,.61,0,1.11,0,1.66,0,.3,0,.61,0,1l-2.21,0v.45l2.31,0,0,2.79h-2.15v.5l2.15,0,0,2.37-2.27,0v.53l2.26,0v2.79h-2.24v.54l2.23,0,0,2.57h-2.19l0,.45v.06h2.31l0,5.83,13.39-.11,0-5.89,2.17,0,0-.43v-.06l-2.16,0,0-2.64,2.38,0,0-.42Zm-4.67-28.67,0,0h0l0,0M364.83,404c-.13-10.64-.33-22.19-.37-32.37,1.52-.1,3.61-.05,4.83-.08l.46,32.41Zm-.32-33.2a4.7,4.7,0,0,1,2.09-4.15,4.28,4.28,0,0,1,2.11-.81l0,5Zm10.59,33.07-4.76.08c-.28-10.27-.26-21.88-.37-32.42l.11,0,4.65,0c.24,10.71.33,22.7.37,32.42m-4.8-38a4.9,4.9,0,0,1,3.81,2.55,4.84,4.84,0,0,1,.61,2.38l-4.34,0Zm5.33,38c-.07-11.33-.23-23.09-.45-33.92a5.93,5.93,0,0,0-3.74-4.36c-.49-.15-1.24-.36-1.67,0l0,5.22h-.48l-.05-5.24c-.31-.33-.87-.07-1.27-.08a5.93,5.93,0,0,0-4,4.22c-.19,11.73.27,22.68.21,34.38h-.31l-.42-33.69a6.13,6.13,0,0,1,12.16-.25c.14,11.24.27,22.61.42,33.74Z" transform="translate(-305 -314)" style="fill:#231f20"/><path d="M412.48,366.41c-.14-.13-.12-.6-.54-.62h0c-.12.06-.16.14-.16.21a.65.65,0,0,0,.12.26.51.51,0,0,1,.08.22h0c0,.11-.35.24-.58.46a1.54,1.54,0,0,0-.38.62h0l0,.09h0l0,.08,0,.08h0a1.81,1.81,0,0,0,0,.26c0,.68.33,1.37.34,2a.05.05,0,0,0,0,0,2.12,2.12,0,0,1,0,.26h0a1,1,0,0,1-.46-.14c-.29,0-.5-.11-.74-.12a.69.69,0,0,0-.46.18,1.64,1.64,0,0,0-.57,1.39,4.8,4.8,0,0,0,.14,1,4.63,4.63,0,0,0,.45.85c-.66-.32-1.43-.13-1.6-.9,0-.11,0-.25,0-.4h0A4.31,4.31,0,0,0,406.8,369a.9.9,0,0,1,0-.23.08.08,0,0,1,0,0c0-.42.73-.57,1.18-.94h0l0,0h0l0,0a1.34,1.34,0,0,0,.3-.81c0-1-1.16-1.59-1.15-2.44h0a1.5,1.5,0,0,1,0-.24c0-.32.52-.41.77-.71l.06-.08.06-.08-.19,0-.29,0a1.49,1.49,0,0,0-1.27.66,1.52,1.52,0,0,0-.1.51c0,1.14,1.38,1.58,1.37,2.52a.12.12,0,0,0,0,0s0,.08,0,.13a1.29,1.29,0,0,1-.52.38H407a1.68,1.68,0,0,0-.92,1.45c0,.58.49.93.76,1.28a1.1,1.1,0,0,1,.3.81h0c0,.4-.13.87-.12,1.33a1.55,1.55,0,0,0,.09.54,2,2,0,0,0,1.4,1.05h.2v0h0c.42,0,.76.32,1.27.41.22.26.53.44.52.64a.07.07,0,0,0,0,0,.44.44,0,0,1,0,.14c0,.35-.5.08-.84.51a.62.62,0,0,1-.81.9,3.91,3.91,0,0,0-.78.11c-.54-.52-.26-1.55-.75-2.31a1.48,1.48,0,0,0-1.21-.84,1.71,1.71,0,0,0-1.33.52,1.58,1.58,0,0,0-.33,1.1,5.85,5.85,0,0,0,.06.69c.08.6.56,1.13.56,1.61a.08.08,0,0,0,0,0,.78.78,0,0,1-.15.45h-.07a1.9,1.9,0,0,0-1.14.42c.31-2.26.76-4.61.91-7q.12-1.84.18-3.73v-.13h-.06c.09-2.6.11-5.27.09-7.94,0-1.31,0-2.62-.06-3.92-.1-4.08-.28-8.12-.49-11.91h0v-.07a.49.49,0,0,1,0-.05h0s0,0,0-.07v0l-.19-.11v0a5.33,5.33,0,0,0-.73-2.08c-.36-.3-.64-.67-1.1-.67a1,1,0,0,0-.3.06c-.39.08-.57.49-.73.75-1.8-.16-.21-2.93-2.21-3.31a1,1,0,0,0-.38-.07,2,2,0,0,0-1.14.56c-.37.4-.33,1-.85,1.11-.6-.33-.9-1.09-1.63-1.41a1.2,1.2,0,0,0-.4-.07,3.08,3.08,0,0,0-1.18.39A2.13,2.13,0,0,0,393,340a8.3,8.3,0,0,1-1.33.36h0c.31-.43.93-.72,1-1.42a1.11,1.11,0,0,0,0-.24c0-.71-.74-1.2-1.19-1.62a.3.3,0,0,1,.3-.15h.28a.52.52,0,0,0,.29-.07l0,0v-.21h-.1c-.34,0-.72-.18-1.1-.18a.77.77,0,0,0-.59.26,6.75,6.75,0,0,0-.81,0,2.57,2.57,0,0,0-2,.73,1.66,1.66,0,0,0-.33,1.07c0,.08,0,.16,0,.24a.5.5,0,0,0,.26.35,4,4,0,0,0,0,.5,2.5,2.5,0,0,0,1.14,2.2s0,.06,0,.11c0,.22-.22.46-.23.73a.37.37,0,0,0,.06.2l0,.07.05-.05a7.84,7.84,0,0,1,4.25-2.28c.72,1,2.46,1.42,2.46,2.62a1.47,1.47,0,0,1,0,.35l0,.08h.28v0a1.52,1.52,0,0,0,.14-.61c0-1.15-1.64-1.62-2.28-2.45a.27.27,0,0,1-.15-.24c0-.16.11-.38.11-.59h0a1,1,0,0,1,.72-.41c.75,0,1.39,1.39,2.4,1.4h.12a1.53,1.53,0,0,0,.83-1.34.72.72,0,0,1,.76-.49,1.27,1.27,0,0,1,.37,0c.77.89.18,2.58,1.54,3.27a1,1,0,0,0,.47.14c.64,0,.77-.9,1.28-.88a.65.65,0,0,1,.22,0,1.88,1.88,0,0,1,.83,1c.13.35-.08.94.28,1.2l-.05.05-.5.07a36.44,36.44,0,0,1-5,.4,34.6,34.6,0,0,1-5-.32c-8.72-1.19-16.45-5.62-23.24-11.73v0l-.39,0h0l0,0a58.45,58.45,0,0,1-5.47,4.46.44.44,0,0,1-.12-.34c0-.13,0-.28,0-.42a1.15,1.15,0,0,0,0-.13c.07-.28.18-.33.34-.33s.43.1.68.1a.58.58,0,0,0,.39-.14l.08-.06-.09,0a3.24,3.24,0,0,0-1.23-.27,1.38,1.38,0,0,0-.91.29.75.75,0,0,0-.16.44c0,.48.54.8.72,1.13a39.16,39.16,0,0,1-14.56,7l-.79.14.61-.24a1.76,1.76,0,0,0,.47-1.81,8.67,8.67,0,0,1-.39-2c-.11-.46-.56-.7-1-.9a3.33,3.33,0,0,0-3.16,1.53,2.06,2.06,0,0,0,0,2.16,1.22,1.22,0,0,0,.95.3,4.09,4.09,0,0,0,1.67,1.13l-.89.16v.05a20.25,20.25,0,0,1-5.13.63c-1.72,0-3.48-.12-5.26-.26h0l0,0c-.06.08-.17.17-.21.29l-.05,11.39v1.21a3.88,3.88,0,0,1-1.29,1.62c-.32.21-.87.29-1.07.7l0,.06.06,0a1.26,1.26,0,0,0,.5.1,2.48,2.48,0,0,0,1.29-.53c.17-.12.4-.41.51-.4h0c.06,3,.11,6.06.23,9.07h-.06v.13a84.43,84.43,0,0,0,1.21,11.84h0l0,.09v.16h0a46.06,46.06,0,0,0,1.18,4.83A57.6,57.6,0,0,0,353,409.73l-1-.09a7.58,7.58,0,0,0-1.83.23,1,1,0,0,0,.18-.49c.06-.27.12-.48.47-.49h0l0,0a.2.2,0,0,0,0-.07.27.27,0,0,0-.15-.2l0,0,0,0a.57.57,0,0,1-.22.06c-.29,0-.26-.54-.62-.75a3.11,3.11,0,0,0-1.93-.62h-.25a.17.17,0,0,1,0-.05c0-.16.18-.38.19-.66a.52.52,0,0,0,0-.1,1.24,1.24,0,0,0-.5-1,1.48,1.48,0,0,0-.75-.26.8.8,0,0,0-.25,0c-.35.11-.53.52-.76.51a.32.32,0,0,1-.17-.06c0-.73.28-1.47.27-2.28a3,3,0,0,0-.08-.66,2.42,2.42,0,0,0-1.33-1.88l-.23,0a1,1,0,0,0-.79.35c-.73.45-.29,1.51-1,1.64-.18-.06-.28-.2-.41-.39a4.76,4.76,0,0,0,0-.5,3.57,3.57,0,0,0-.74-2.25l0,0,0,0a1.49,1.49,0,0,0-1.15-.48,1.44,1.44,0,0,0-1.28.71,2,2,0,0,0-.41,1.24,5.6,5.6,0,0,0,1.08,2.67,1.64,1.64,0,0,1,0,.32c0,.25-.09.28-.28.29s-.59-.11-.92-.11a.65.65,0,0,0-.63.36,1.8,1.8,0,0,0-.22.91,3,3,0,0,0,.6,1.69,3.26,3.26,0,0,0,1.74.8c.46.27,1.11.8,1.13,1.41-.09.1-.22.15-.34.27h-.07a1.13,1.13,0,0,1-.55-.14,5.14,5.14,0,0,0-.68-.07.66.66,0,0,0-.73.49,1.11,1.11,0,0,0-.1.48A2.65,2.65,0,0,0,339,412a7.56,7.56,0,0,0,4.08,1.49.6.6,0,0,1-.07.29h0a3,3,0,0,0-2.77,1.58,1.67,1.67,0,0,0-.07.49,3.09,3.09,0,0,0,.44,1.37,1.15,1.15,0,0,0,.72.26c.89,0,1.62-1.09,2.44-1.31a.52.52,0,0,1,.18.37c0,.35-.43.74-.58,1.13a1.88,1.88,0,0,0,.51,1.34,1.57,1.57,0,0,0,1.16.37c.29,0,.58,0,.85-.05h0c.29-.28.79-.39,1-.87s.7-.53.73-.93l.1,3.55a2.16,2.16,0,0,0,.69,1.34,2.9,2.9,0,0,0,1.65.5,2.25,2.25,0,0,0,1-.24,1,1,0,0,0,.67-1.15h0c0-.31,0-.63,0-.91a.73.73,0,0,1,1-.89,6.2,6.2,0,0,1,1.83.45c1,.2,1.11.77,1.13,1.56,0,.44,0,.92,0,1.38a2.62,2.62,0,0,0,.15.94c.6,1.49,2.17,2,3.37,2.53a42.37,42.37,0,0,0,11.3,1.48l1,0a34.29,34.29,0,0,0,7.65-.86h0l.05-.06a12.13,12.13,0,0,0,4.44-1.37,2.49,2.49,0,0,0,1.42-2.62h0c0-.58-.07-1.16-.07-1.69,0,0,0-.09,0-.14a3.67,3.67,0,0,1,2.7-1.77h0a2.28,2.28,0,0,1,.44,0c1.12.32.09,1.77,1.1,2.55a2.29,2.29,0,0,0,1.44.43,2.93,2.93,0,0,0,1-.17,2.12,2.12,0,0,0,1.12-1.19v-9.46a3,3,0,0,0-.68-1.91,3.45,3.45,0,0,0-2.65-1,5,5,0,0,0-.69.05c6.85-7.26,10.89-15.68,13.52-24.63.35-1.23.62-2.5,1-3.66l.07.29c.31,1.15,1.5,1.33,1.92,2.15-.08.27-.47.07-.85.32a1.87,1.87,0,0,0-.89,1.08c0,.16,0,.31,0,.46a2.62,2.62,0,0,0,.66,2,1.59,1.59,0,0,0,1.29.51h0c.46,0,.9-.08,1.28-.09a1.56,1.56,0,0,1,.54.08h0l0,0h0v0h0c.1,0,.29.19.51.21h0c.15,0,.24-.14.28-.3v-.06l0,0c-.78-1-2.32-.41-3.17-.91a1.68,1.68,0,0,1-.65-1.43,2.74,2.74,0,0,1,0-.34c0-.87,1.18-.31,1.71-1.09a1.42,1.42,0,0,0,0-.32,2,2,0,0,0-.19-.86c-.85-.74-1.78-1.4-1.91-2.41h0a1.8,1.8,0,0,1,0-.24s0,0,0-.06c.16-.3.42-.66.76-.66h0l.14,0h0l0,0a1.11,1.11,0,0,0,.65-.95h0v0c0-.74-.65-1.53-.66-2.2h0v0s0,0,0-.07h0a1.59,1.59,0,0,1,.67-1.1c1.68,0,.55,2.09,1.8,3a.68.68,0,0,0,.47.18c.35,0,.66-.21.92-.21h0a.49.49,0,0,1,.42.47s0,0,0,.07a3.34,3.34,0,0,0-.63,1.56s0,.09,0,.13h0l0,.15h0v.08h0a1.22,1.22,0,0,0,.07.18c.28.24.47.77.94.79a.54.54,0,0,0,.19,0h0l0,0v-.09c-.05-.34-.44-.52-.5-.68a.9.9,0,0,1-.06-.27h0s0,0,0,0h0c0-.41.33-.78.61-1.18a5.48,5.48,0,0,1,.83,1.09l0,0,0,0h.08a.35.35,0,0,0,.33-.35h0a.89.89,0,0,0-.13-.43,3.57,3.57,0,0,1-1.06-2.41c0-.16.22-.2.47-.25a1,1,0,0,0,.62-1h0a3.65,3.65,0,0,0,0-.57c-.23-1-1.32-1.95-1.32-2.81a1.27,1.27,0,0,1,.46-1h.11c.29,0,.58.46,1.11.48l.16,0a1.24,1.24,0,0,0,.57-1h0v0c0-.69-.46-1.4-.46-2h0a1.21,1.21,0,0,1,.07-.41h0a1.13,1.13,0,0,1,.13-.26.62.62,0,0,1,.62-.29h.34a1.46,1.46,0,0,1,.6.55v0a2.11,2.11,0,0,1,.22,1c0,.34,0,.7,0,1.06a2,2,0,0,0,.47,1.45,1.05,1.05,0,0,0,.54.15c.65,0,1.13-.56,1.61-.56h.06a2,2,0,0,1,.18.79v0c0,1.39-1.73,2.42-1.75,4a2.06,2.06,0,0,0,.17.79v.06h.07a5.85,5.85,0,0,0,.63,0,1.46,1.46,0,0,0,.65-.13.78.78,0,0,1,.26,0,.74.74,0,0,1,.63.31.23.23,0,0,0,0,0c0,.06,0,.12,0,.18h0c0,1.17-.85,1.92-1.84,2.66a11.83,11.83,0,0,0-1.75,1.45.79.79,0,0,0-.29,0,1.69,1.69,0,0,0-1,.58,4,4,0,0,0-.87,2.52,3.54,3.54,0,0,0,.29,1.4,1.91,1.91,0,0,0,1.58,1h.19l.1-.14a.44.44,0,0,0,.19,0H414l0-.05c.4-.67,1.39-.21,2.08-.74.75-.28.81-1.21,1.36-1.47l.07,0,.07,0-.12-.12,0,0h0v-.12h-.17c-.06,0-.1-.1-.26-.25a2.42,2.42,0,0,0-1.51-1.58c-.48-.29-1.06-.05-1.17-.52.61-.53,1.47-1,2.2-1.63l0,0a3.19,3.19,0,0,0,1.42-2.45,2.91,2.91,0,0,0-.12-.77,1,1,0,0,0-1-.64h0a4.12,4.12,0,0,0-.42,0,3.39,3.39,0,0,1-.4,0,.89.89,0,0,1-.51-.12c.08-.74.92-1.26,1.33-2a3.45,3.45,0,0,0,.43-1.73,2.86,2.86,0,0,0-.51-1.68.94.94,0,0,0-.49-.14c-.58,0-1,.49-1.39.48h-.13c-.09,0-.25-.19-.32-.35a6.42,6.42,0,0,0-.41-2.6h0l-.1-.18h0l0,0,0,0h0a2.37,2.37,0,0,0-.51-.62c-.39-.24-.89-.25-.91-.52m-21.88-29a.46.46,0,0,1,.42.68c-.24.18-.33.55-.64.27a1.63,1.63,0,0,1,.21-1m-.42-.15c-.13.35.08,1.34-.7.91,0-.4-.1-1.34.7-.91m-1.65.32c.24-.11.31-.31.59-.31,0,.35.14,1-.37,1-.07,0-.13,0-.15.07,0-.2-.11-.44-.07-.71m-.57,1.17c-.27-.26,0-.66.15-.95a.85.85,0,0,1-.15.95m1.87,2.59c-.33.18-.6-.11-.9-.15a2.2,2.2,0,0,1-.66-2.18c0-.35.37-.33.59-.47a1.52,1.52,0,1,1,1,2.79m1.24-2.65c.15-.24.08-.55.32-.75l.31.37a1,1,0,0,0-.37.58c.2.17.44-.22.48-.16,0,.22-.13.53-.3.6a1.39,1.39,0,0,0-.45-.64M345.7,340c.2.2.25.7.6.59.06-.27-.36-.46-.27-.79.22-.11.42-.29.72-.23a.89.89,0,0,0,.33.48c.17-.09.11-.35,0-.48.35.09.77.17.91.59l0,.2c-.29-.26-.7.12-.91-.3-.09,0-.13,0-.2.11s0,.07,0,.09c-.14.27-.95.53-1.26,1l-.64-.73a1.12,1.12,0,0,1,.57-.49m-1.15,2v-.31c.51.09.57.37.6.83,0,.11,0,.15.11.22-.4-.08-.55-.41-.71-.74m.75-.31-.11.11c-.31-.22-.8-.68-.32-1,.18.33,1.06.43.43.9M346,343c-.25-.31-.75-.54-.47-1a2.85,2.85,0,0,1,1.67-1.38,1,1,0,0,1,1.13.72c.16.64.43,1.56-.2,2A2.06,2.06,0,0,1,346,343m.44,68.65a2.37,2.37,0,0,1-.85-1.85,4.84,4.84,0,0,1,.95-.27,7.63,7.63,0,0,1,.16.75c-.24.16-.66.18-.79.47.33.13.59-.16.9-.21l.33.53c-.13.35-.86.14-.7.58m.09-2.34a2.28,2.28,0,0,0-.95.18c-.23-.77.52-.8,1-.76-.11.16,0,.4-.06.58m-.58-.88h-.07a1.52,1.52,0,0,1,.7-.6c.09,0,.24.11.42.06a.88.88,0,0,1-1.05.54m-2.87,4.19v.11a4.87,4.87,0,0,1-3.87-1.56,1.65,1.65,0,0,1-.19-1.21c.73-.34,1.11.61,1.85.18a.8.8,0,0,0,.59-.53,2.32,2.32,0,0,0-1.41-2.19c-.86-.3-2.08-.82-2.13-1.94,0-.33,0-.73.37-.79a2.26,2.26,0,0,0,1.43-.12c.43-1-.7-1.67-.77-2.64a2.35,2.35,0,0,1,.47-2.08c.39-.42,1-.14,1.37.16a6.86,6.86,0,0,1,.62,3.17,1,1,0,0,0,1.06.45c1.32-.36.11-2.84,1.94-2.17,1.13,1.27.6,3.26.08,4.65,0,.2.22.33.38.41.77.15,1.05-.89,1.85-.74.13.2.29.53.16.73a2.55,2.55,0,0,1,0,.59,1.81,1.81,0,0,0-1.73,1.07,3.21,3.21,0,0,0,.09,2.73c-.26-.36-.78-.15-1.13,0l.06-.09c-1.53-2.13-1.95-4.75-3.27-7v0h-.11a.22.22,0,0,0-.22.23.32.32,0,0,0,0,.08,49.69,49.69,0,0,1,2.43,5.7c.31.39.51,1,1.11,1.15l-.09,0a1.79,1.79,0,0,0-1,1.71m4.38-.54.16,5.48a.42.42,0,0,0-.11-.25l0,0h0c-1,.14-1.32,1.4-2.18,1.6a1.8,1.8,0,0,1-.42.05,1.08,1.08,0,0,1-.85-.33s0-.1,0-.16c0-.53.44-1,.64-1.52a1.68,1.68,0,0,0,.05-.4.83.83,0,0,0-.3-.68,1.68,1.68,0,0,0-.5-.07,2.19,2.19,0,0,0-.66.11c-.63.1-1.15.91-1.68.9a.7.7,0,0,1-.52-.27.8.8,0,0,1-.09-.39,2.21,2.21,0,0,1,.2-.83c.46-1.08,1.58-.56,2.35-1.26l0,0v0c.12-1.07.21-2.22,1.27-2.72a.72.72,0,0,1,.42-.18c.45,0,.6.92,1.23,1.08a2.27,2.27,0,0,0,.43.06.39.39,0,0,0,.39-.21l0,0,0,0c-.23-.18-.5-.1-.64-.26l.73-.39h.26a.31.31,0,0,0,.29-.16v0a.25.25,0,0,0-.3-.21h-.06a2.42,2.42,0,0,1-.6-1.61c0-.06,0-.12,0-.18a1.26,1.26,0,0,1,.49-1.13h.37a2,2,0,0,1,1.75.78,2.51,2.51,0,0,1,.16.7.72.72,0,0,1-.08.36l0,.06.07,0a.67.67,0,0,0,.19,0,3.49,3.49,0,0,0-2.38,2.1m2.7,10.06c-.24,0-.48,0-.7,0l-.31-.19c-.07-1.29-.09-2.62-.1-3.95,0-.89,0-1.78,0-2.66q0-.63,0-1.26a8.37,8.37,0,0,0,1.61.13h.27l.17,7.63a1.11,1.11,0,0,1-.91.34m5.18-7.61a1.26,1.26,0,0,0,0,.19,17,17,0,0,1,.13,2.18c0,.47,0,1,0,1.43s0,1,.05,1.49a6.24,6.24,0,0,0-3-1,3,3,0,0,0-.8.11c0-.27,0-.53,0-.8,0-.67,0-1.36,0-2a21.39,21.39,0,0,0-.13-2.47v0l0,0a.65.65,0,0,0-.46-.18c-.28,0-.54.14-.81.14a.77.77,0,0,1-.23,0,1.73,1.73,0,0,1-1.21-.39,1.3,1.3,0,0,1-.36-.83.8.8,0,0,1,.06-.31,3.38,3.38,0,0,1,3.19-1.63,7.27,7.27,0,0,1,2.23.35l2.12,1.95c-.2.61-.78,1.08-.78,1.84m28.5,9.72c-1.11,1.53-3.13,1.6-4.85,2.12a34.93,34.93,0,0,1-7.82.9,46.36,46.36,0,0,1-11.68-1.45,4.36,4.36,0,0,1-2.67-2l-.23-7.3c2.52,1.72,5.58,2,8.52,2.63a34.39,34.39,0,0,0,5.83.43,42,42,0,0,0,9.75-1.26,7.89,7.89,0,0,0,3.13-1.69ZM356.3,414.5a1.61,1.61,0,0,1,0-.4l.42-.77c1.82,1.4,3.54,3,5.29,4.5-2-.47-3.93-.91-5.41-2.37a1.48,1.48,0,0,1-.35-1m-18.46-67.2.11-.11a39.8,39.8,0,0,0,14.48-1.9c-.44,1,.79,1.38.59,2.31a4.11,4.11,0,0,0-1.44.76l.11.42c-.08.84.06,1.83,0,2.8l-3,0c-.2.07-.24.24-.22.44l2.73,2.62c-.09.35.32.9-.25,1a.82.82,0,0,0-.11.75c.79.18.34,1.22.54,1.84-.38.16-1.29-.11-1.31.52a12.33,12.33,0,0,0,1.23,1.42l.48,40.43a9,9,0,0,0-1.1,1.18l-1.6.06c-8.7-11-11.36-24.6-11.3-39.33-.08-5,0-10.12,0-15.19m16.87,1.3,0,2.92-2.27,0,0-2.92Zm-1.25-3.68a1.7,1.7,0,0,1,.21,1.36c0,.07-.13.09-.11.18-.18,0-.18-.17-.27-.26-.18-.46.13-.86.17-1.28m.64-.18a43.94,43.94,0,0,0,15.31-9.38,53.34,53.34,0,0,0,15.75,9.13,1.55,1.55,0,0,0-.08.5c0,.81.64,1.39.69,2.15-.46.56-1.1.18-1.5.68l0,0,0,0a.93.93,0,0,1,0,.34v.22l-.71,0h-.73a1.11,1.11,0,0,0,0-.13c0-.33-.15-.76-.48-.79l-1.25-.24a2.51,2.51,0,0,0,.6-1.49,1.64,1.64,0,0,0-.1-.55c-.39-.42-.49-1.35-1.3-1.35h-.06v0a3.25,3.25,0,0,0-.69,1.8,1.63,1.63,0,0,0,.22.82,1.34,1.34,0,0,1,.52.78c-.47.35-1.57-.09-1.57,1.14l0,.26-18.07.15a.78.78,0,0,1,0-.27s0-.1,0-.15c0-.2,0-.44-.3-.52l-1.26-.41c.15-.4.58-.84.58-1.41a1.2,1.2,0,0,0-.09-.43c-.44-.37-.38-1.35-1.22-1.35h-.12v0c-.2.54-.66,1-.66,1.67a1.32,1.32,0,0,0,.1.49l.56,1c-.41.22-1,.16-1.37.64v.74h-.22c-.35,0-.92,0-1,0-.21-.2.07-.81-.51-.89-.42-.34-1.33-.21-1.29-.61A.8.8,0,0,1,354,347a1.15,1.15,0,0,0,.38-.93,11,11,0,0,0-.23-1.36m33.33,3.6,0,2.92-2.27,0,0-2.92Zm-1.4-3.52c.13-.18.46,0,.64.15.07.76-.11.59-.37,1-.35-.22-.36-.72-.27-1.12M379.86,404l0-1.94,11.24-.09-1.6,2Zm9,.81a85.3,85.3,0,0,1-6.92,7.1h-1.48l0-7Zm-9.17-.19v.71l-18.51.15v-.71h.65l0-3.13-1,0-.94-1.15-.33-40,.79-.92,19.5-.14.66.77.32,40.17-1,1.07H379l0,3.18Zm-18.32,5v-1.32l18.24-.15v1.32Zm18.25.79v1.32l-18.24.15v-1.32Zm-18.24-3v-1.32l18.24-.15v1.32Zm-4.51-45.3v-1.71l2,0v1.71Zm1.93.35.05,6.5h0l.25,31.3-1.81,0-.26-32.17h0l0-5.64Zm-1.53,38.39,1.85,0,.52.78-2.88,0Zm1.49-40.77-1.92,0-.61-.9,3.11,0Zm-2.49.14.32,40.14-.89.72-.79-.75-.32-40.09.89-.76Zm-4.22-2.05v-1.61l35.87-.29V358Zm1.89,4-2,0v-1.71l2,0Zm0,.34.3,37.78-1.81,0-.26-32.14h0l0-5.64ZM352.4,401h1.85l.52.78-2.89,0Zm1.49-40.77-1.91,0-.61-.9,3.11,0ZM357,349.61v1.91H355.5v-1.91Zm-1.44-.65h0m34.15,3.22-1.3,1.37-37,.3-1.17-1.35Zm-29.9-3.62,0,2.92-2.27,0,0-2.92Zm-1.2-3.27a1,1,0,0,1,.12,1.48,1.3,1.3,0,0,1-.12-1.48m1.68,6.18v-1.91h1.56l0,1.91Zm2.22,0v-1.91h1.56v1.91Zm2.07,0,0-1.91h1.56v1.91Zm2.11,0,0-1.91h1.56l0,1.91Zm2.11,0v-1.92h1.56v1.91Zm2.12,0,0-1.91h1.56l0,1.91Zm2.17,0v-1.91h1.56v1.91Zm2.12,0v-1.91h1.56v1.91Zm2.12,0v-1.91h1.56v1.91Zm4.59-3,0,2.92-2.27,0,0-2.92Zm-1.56-2.59a1.56,1.56,0,0,1,.36-1c.18.42.56.93.26,1.33s-.51-.16-.62-.31m2.41,5.55,0-1.91h1.56l0,1.91ZM388,362.38l.3,37.71-1.81,0L386.25,368h0l0-5.57Zm-1.81-.39v-1.71l2,0V362Zm.34,38.71,1.85,0,.53.78-2.88,0Zm1.63-40.77h-1.91l-.6-.9,3.11,0Zm-.26-4.46-5.89,0v-1.36l5.89,0Zm-6.58-1.31v1.36h-.81v-1.36Zm-1.4,0v1.36l-3.63,0v-1.36Zm-4.12,0v1.36H375v-1.36Zm-1.41,0v1.36l-3.63,0v-1.36Zm-4.16,0v1.36h-.8v-1.36Zm-1.41,0v1.36l-3.63,0v-1.36Zm-4.12,0v1.36h-.81V354.3Zm-1.41,0v1.36l-3.63,0v-1.36Zm-4,0v1.36h-.81v-1.36Zm-1.33,0v1.36l-5.89,0V354.4ZM383.22,368l.26,32.16-1.81,0L381.41,368h0l0-5.52,1.8,0,0,5.53Zm-1.9-6v-1.71l2,0V362Zm2.21,38.66.61.9-3.11,0,.59-.91ZM383.28,360l-1.91,0-.6-.9,3.11,0Zm.6.19.77-.76.89.75.32,40.14-.77.76-.89-.7Zm6.2,41.2-.9-1.25L388.85,360a5,5,0,0,0,1.09-2c-.31-.37-.77-.12-1.21-.12,0,0-.37-1.47.2-1.69a.68.68,0,0,0,.2-.75c-.16-.26-.68-.12-.49-.87a41.15,41.15,0,0,0,3-3.11c0-.13.11-.27,0-.37l-3.49,0c-.08-1.12,0-2.35,0-3.41-.25-.4-.65-.38-1.07-.38-.52-.93.28-1.49.3-2.26a37.26,37.26,0,0,0,14.59,1.25,176,176,0,0,1,.1,26c-1.39,10.41-4.41,20.32-10.37,28.85Zm-29.1.88,0,1.94-9.62.08-1.64-1.93Zm-.58,2.84.07,7-1.09,0H359a85.42,85.42,0,0,1-7-7Zm9.67,7.7,7.71-.07,2.57,0h.84c-.46.5-1.08,1-1.61,1.44l-18,.16c-.92-.75-1.27-1-1.75-1.42l10.25-.07m7.78,2.13h.7c-.67.61-1.49,1.16-2.22,1.77H374l-8.22.07h-1.15a24.76,24.76,0,0,1-2.18-1.72l15.38-.14m-11.05,2.62,5.43-.06h3.13a18,18,0,0,1-1.5,1.12c-1.15.11-2.31.18-3.46.19a29,29,0,0,1-3.71-.2l-1.18-1h1.28m15.55-.81a14.48,14.48,0,0,1-4,1.33h0c1.73-1.47,3.52-2.89,5.29-4.3l.32.55a1.33,1.33,0,0,1,0,.28c0,.88-1,1.57-1.62,2.14m9.22,4.7a2.12,2.12,0,0,1-1.06.36,1,1,0,0,1-.55-.15,1.6,1.6,0,0,1-.5-.49c0-.4,0-.79,0-1.19,0-2.06-.11-4.09-.17-6.13a2.36,2.36,0,0,0,1.34.41,1.83,1.83,0,0,0,.88-.22Zm-2.25-12a2.8,2.8,0,0,1,2.44,1.21,2.34,2.34,0,0,1,.21,1,2.51,2.51,0,0,1-.37,1.34,1.59,1.59,0,0,1-.84.58,3.1,3.1,0,0,1-2-1.13.23.23,0,0,0-.12,0c-.17,0-.25.17-.29.25s0,.18,0,.26c0,1.73.21,3.4.22,5.08,0,.3,0,.59,0,.89a1.57,1.57,0,0,0-1-.29,3.91,3.91,0,0,0-.85.11,5.5,5.5,0,0,0-1.83,1.2c0-1,.06-2.07.05-3.09a16.55,16.55,0,0,0-.26-3c-.17-.26-.37-.45-.38-.71l3.35-3.18a3.23,3.23,0,0,1,1.66-.46m6.31-11.55c-4.35,8.09-12,15.37-19.59,20.77-.33-.06-.57.11-.9.05l.27-.2h-.09c8.42-6.19,17-14.49,21.18-23.79.29-.62.56-1.24.84-1.87a66.49,66.49,0,0,0,5.8-25.54c.2-7.41,0-14.21-.28-21.45-.07-.13-.2-.31-.38-.31-12.79,1.51-23.64-3.34-32.93-11.23h-.42c-11.32,10.65-23.24,12.92-31.75,12.11l-.2.22c0,7.15-.19,14.52.22,21.68.56,9.81,2.23,19.25,6.9,27.29a70.32,70.32,0,0,0,6.44,9.16,130.45,130.45,0,0,0,14.53,13.61l-.11,0,.28.23a3,3,0,0,1-1.9-.71c-10-7.71-19.14-17.66-23-28.91-4.46-11-3.94-23.76-4.11-36.4l.1-7c11.77,1,21.62-3.35,30.26-10.19l2.52-2.14h.23a46,46,0,0,0,22.37,11.31,36.45,36.45,0,0,0,11.39.06,215,215,0,0,1,.18,28,69.42,69.42,0,0,1-7.85,25.22m17.06-15.64a1,1,0,0,1,.72.34s0,0,0,0a.26.26,0,0,1-.25.29.25.25,0,0,1-.13,0l-.72-.25c0-.3.16-.38.37-.39m-.47,1v0a.58.58,0,0,1,.3-.08c.22,0,.47.1.73.1a.18.18,0,0,1,0,.1c0,.14-.2.26-.27.43v0h-.08l-.33,0h-.14v.08h0c-.19,0-.19-.11-.2-.3s0-.13,0-.19m0,.8s0,0,0,0a.22.22,0,0,0,.2-.08v.13h.34A.24.24,0,0,0,413,384a.43.43,0,0,0,.2.14c0,.05,0,.11,0,.18a.42.42,0,0,0,0,.2c-.06,0-.19.08-.24.2a.52.52,0,0,0-.25-.05,1,1,0,0,0-.3.05Zm.64,1.19h0Zm.56.08a1.79,1.79,0,0,1-.53-.14l-.14-.15c.1,0,.27,0,.35-.12.27.16.38-.05.44.27l.08.09a.4.4,0,0,1-.21.06m.06-2.8Zm0-.56,0-.05-.05,0a.21.21,0,0,1-.13,0c-.11,0-.24-.12-.4-.18,0,0,.17-.1.26-.17h0c.09,0,.22.15.37.16s.15-.09.17-.21v0l-.08-.08a.67.67,0,0,1,.45.15c-.2.15-.31.51-.41.48s-.09,0-.17-.14m2.86,1.17a1.27,1.27,0,0,1,.11.52,1.26,1.26,0,0,1-.1.52,2.25,2.25,0,0,1-1.86.9h-.24a.77.77,0,0,1-.48-.59,4.64,4.64,0,0,1-.06-.71,2.06,2.06,0,0,1,.58-1.6,2.41,2.41,0,0,1,2,1" transform="translate(-305 -314)" style="fill:#231f20"/><path d="M374.5,396h-.06l.06,0a.71.71,0,0,0-.68-.42.64.64,0,0,0-.6.36l.1,5.15,0,0c.07,0,.14.17.29.21a.71.71,0,0,0,.28.06.65.65,0,0,0,.5-.24,8.69,8.69,0,0,0,.16-1.84c0-.83-.09-1.64-.09-2.5,0-.25,0-.5,0-.76" transform="translate(-305 -314)" style="fill:#231f20"/><path d="M371,394.29a.8.8,0,0,0,.37.11h0a.32.32,0,0,0,.27-.14c.09-.15.27-.32.28-.55a.41.41,0,0,0-.06-.2.66.66,0,0,0-.61-.36.54.54,0,0,0-.47.25.62.62,0,0,0-.11.37.52.52,0,0,0,.33.51" transform="translate(-305 -314)" style="fill:#231f20"/><path d="M366.11,391.75l.19,0a1.13,1.13,0,0,0,.46-.5l-.19-16.69h-.06l.06,0a.66.66,0,0,0-1.22,0c.06,2.76.11,5.6.13,8.42s0,5.65,0,8.37a.71.71,0,0,0,.64.43" transform="translate(-305 -314)" style="fill:#231f20"/><path d="M366.79,396.09a.71.71,0,0,0-.68-.45.67.67,0,0,0-.64.46c0,.26,0,.5,0,.74,0,1.43-.08,2.82-.08,4.26a.68.68,0,0,0,.64.49l.17,0c.18-.16.47-.23.53-.54l.07-4.92h-.06Z" transform="translate(-305 -314)" style="fill:#231f20"/><path d="M368.06,391.71c.32,0,.41-.35.57-.48l0,0-.07-16.58h0a.63.63,0,0,0-.67-.5.49.49,0,0,0-.51.33c0,2.06,0,4.18,0,6.33,0,.71,0,1.43,0,2.14,0,2.86,0,5.71-.06,8.38.09.33.46.39.7.41" transform="translate(-305 -314)" style="fill:#231f20"/><path d="M368.63,396.21l.06,0a.73.73,0,0,0-.68-.53.6.6,0,0,0-.37.13.56.56,0,0,0-.28.34l.08,5a.59.59,0,0,0,.64.42h0l.21,0c.27-.06.31-.31.41-.45v0l0-4.82h-.06Z" transform="translate(-305 -314)" style="fill:#231f20"/><path d="M369,393.66a.62.62,0,0,0-.65-.48.73.73,0,0,0-.4.11c-.06.18-.23.33-.23.53a.37.37,0,0,0,.06.19.8.8,0,0,0,.62.35l.18,0a.74.74,0,0,0,.41-.67h0Z" transform="translate(-305 -314)" style="fill:#231f20"/><path d="M330.22,335.07c.38-.06.54-.26.74-.25s.21,0,.41.24l2.76,3.28a1,1,0,0,1,.28.54.4.4,0,0,1-.06.23.77.77,0,0,0-.14.41.43.43,0,0,0,.1.26.46.46,0,0,0,.36.17h0a.67.67,0,0,0,.4-.21c.39-.33.74-.67,1.13-1s.51-.38.67-.51a.62.62,0,0,0,.27-.49.42.42,0,0,0-.1-.25.44.44,0,0,0-.36-.16c-.38.07-.51.25-.66.24s-.17,0-.36-.22l-1.09-1.29-.07-.08.12-.1c.21-.17.3-.21.37-.21a.83.83,0,0,1,.33.09l1.62.65a3.1,3.1,0,0,0,1.27.31,1.44,1.44,0,0,0,.86-.35,1.69,1.69,0,0,0,.62-1.16.56.56,0,0,0-.12-.34.44.44,0,0,0-.36-.16.47.47,0,0,0-.27.11,1.86,1.86,0,0,0-.19.23l-.07,0-1.93-.71-.68-.25-.05,0a3.08,3.08,0,0,0,.13-.43,2.15,2.15,0,0,0,0-.46,1.81,1.81,0,0,0-.45-1.09,2,2,0,0,0-1.64-.73,3,3,0,0,0-1.75.8c-.51.43-1,.88-1.48,1.29s-.53.4-.9.7a.53.53,0,0,0-.21.43.43.43,0,0,0,.1.25.44.44,0,0,0,.36.16m2.29-1.61a1.35,1.35,0,0,1,.19-.18,1.19,1.19,0,0,1,.72-.31h0a1.38,1.38,0,0,1,1.1.57.88.88,0,0,1,.26.48c0,.14-.09.44-.68.95l-.23.18-.05,0-1.22-1.45a.49.49,0,0,1-.13-.21s0,0,0-.05" transform="translate(-305 -314)" style="fill:#231f20"/><path d="M398.78,413.68v0h0a1.06,1.06,0,0,1-.26-.77c0-.19,0-.39,0-.59a1,1,0,0,0-.59-1,3,3,0,0,0-1.55-.33h-.11a7.25,7.25,0,0,1,1.22-1.3c2.15-1.47,4.5-3.12,5.53-5.62l0-.09H403l0,0-.06-.06,0,.08c-1.14,2.52-3.78,4.26-6,5.84-.32.42-1,.79-1.11,1.34a4,4,0,0,0-1.84,1.46,3.73,3.73,0,0,0-.28,1,.79.79,0,0,0,.19.52,1.52,1.52,0,0,0,1.07.8c.62,1.33,2.11,1.23,3,1.78l0,0,0,0a.56.56,0,0,0,.18-.48c0-.06,0-.12,0-.18a2.55,2.55,0,0,0,.66-1.82,4.18,4.18,0,0,0,0-.49m-1.09-1.15h-.15l-.07-.53a1.23,1.23,0,0,1,.22.53m-.53-.3v.2l-.38.07a1.76,1.76,0,0,0-.16-.9c.44-.09.51.3.54.64m-1.81-.36c.35.11.21.79.6.52l-.27-.68a.5.5,0,0,1,.79.19c.43.95-.7.76-1,1.22-.4-.24-.25-.73-.58-1,.13-.15.26-.29.46-.27m-.6,2.12-.17.38a1,1,0,0,1-.47-.59v-.57c.31.08.2.66.58.41-.16-.35-.62-.77-.21-1.17l.09-.11a8.69,8.69,0,0,0,.71,1c-.09.44-.95.16-.52.69m3,1.56a1.07,1.07,0,0,1-1.1.27,2.38,2.38,0,0,1-1.6-1.58,2.84,2.84,0,0,1,1.77-1.4.88.88,0,0,1,1.06.52,2.44,2.44,0,0,1-.14,2.18" transform="translate(-305 -314)" style="fill:#231f20"/><path d="M408.08,390.63c-.31.83-1.32,1.39-1.5,2.36-.07,1.6-1.55,2.65-1.93,4.18v0l0,0s0,0,0,.05,0,0,0,.07a.15.15,0,0,0,.14.14h.08v0c.24-1.49,1.74-2.38,1.82-4,.15-1,1.27-1.71,1.56-2.75l0-.08h-.23Z" transform="translate(-305 -314)" style="fill:#231f20"/><path d="M411.59,390.24c-.39,0-.8.24-1.12.24a.49.49,0,0,1-.47-.3c0-.94,1.22-1.46,1.22-2.58a1.85,1.85,0,0,0,0-.28l-.43-.64a1.36,1.36,0,0,0-.51-.09c-1.28,0-1.8,1.69-2.51,2.47h-.12a.9.9,0,0,1-.17-.4c-.29-.41-.6-.85-1.16-.85l-.2,0c-.38.2-.86.32-1.1.79a1.86,1.86,0,0,0-.56,1.49,15.45,15.45,0,0,0,.2,1.69l-.24.25a.45.45,0,0,1-.19,0c-.21,0-.42-.2-.62-.35a1.81,1.81,0,0,0-.68-.13,2,2,0,0,0-1.51.72,2.58,2.58,0,0,0-.6,1.81,4.89,4.89,0,0,0,.12,1c.24,1.87,2.05,3.09,2.06,4.95,0,.1,0,.21,0,.31v0l0,0,.11,0a.42.42,0,0,0,.3-.19.82.82,0,0,1,0,.21.74.74,0,0,1,0,.13h0a.59.59,0,0,1,0,.11l-.53-.1a1.72,1.72,0,0,0-1.26.62c-.74.9,0,2.5-1.14,2.94a.67.67,0,0,1-.54-.69c0-.34.13-.74.13-1.12a.93.93,0,0,0-.15-.54,1.22,1.22,0,0,0-.79-.23,2.38,2.38,0,0,0-.53.07c-1.35.62-1.54,1.77-1.53,3,0,.53,0,1.08.05,1.61a5.79,5.79,0,0,1-.07,1,1.26,1.26,0,0,1-.82.48c-.7-.49-.52-1.56-1.37-2.09a1.29,1.29,0,0,0-.43-.07,2.5,2.5,0,0,0-.83.18c-1,.53-.8,1.69-.88,2.59,0,.2-.27.43-.27.66a.23.23,0,0,0,0,.1v0h0c.11,0,.25.13.41.13a.22.22,0,0,0,.12,0c.4-.68.13-1.56.42-2.19a1,1,0,0,1,.72-.52l.15,0c.47.56.54,1.72,1.57,1.84H396a1.84,1.84,0,0,0,1.3-.67c.62-1.72-.31-4.19,1.49-5.29a1.33,1.33,0,0,1,.48-.15.35.35,0,0,1,.24.09,1.83,1.83,0,0,1,0,.43c0,.27,0,.56,0,.84a1.17,1.17,0,0,0,.47,1,2.31,2.31,0,0,0,.54.08.7.7,0,0,0,.44-.13c1.37-.68.67-2.36,1.57-3.19a2.23,2.23,0,0,1,.65-.23l.15,0c.53.62.79,1.61,1.8,1.79a1.13,1.13,0,0,1,.28.78,1.35,1.35,0,0,1-.09.5c-.65.54-1.63,1.12-1.63,2.13a1.75,1.75,0,0,0,.06.41c.29,1.21,1.64.44,2.14,1.07a.73.73,0,0,1,.08.34c0,.23-.07.47-.08.71a1.7,1.7,0,0,1-1.49.87h-.17a6.11,6.11,0,0,0-2.11-.4,3.49,3.49,0,0,0-1.27.23,1.16,1.16,0,0,0-.7.91.8.8,0,0,0,.05.27c.46.91,1.67.85,1.94,1.59-.46,1-1.65,1.24-2.69,1.25h-.41l.06.85,0,0a1.13,1.13,0,0,0,.51.11,3.49,3.49,0,0,0,1.24-.39,4,4,0,0,0,1.16-.39,1.65,1.65,0,0,0,.87-1.68s0-.09,0-.13c-.35-.74-1.2-.78-1.64-1.33,0-.08,0-.16,0-.25a.61.61,0,0,1,.24-.58,6.8,6.8,0,0,1,.73,0,2.61,2.61,0,0,1,1.63.45,1.29,1.29,0,0,0,.57.13,2.44,2.44,0,0,0,1.51-.83,2.05,2.05,0,0,0,.55-1.45,2.57,2.57,0,0,0-.06-.53c-.33-1.05-1.39-.23-1.76-1a1.18,1.18,0,0,1-.06-.36c0-.71.76-1.14,1.29-1.62a1.64,1.64,0,0,0,.18-.7.89.89,0,0,0-.07-.34,2,2,0,0,0-1.12-1.21,1.27,1.27,0,0,1,.31,0c.45,0,.91.21,1.42.2a1.55,1.55,0,0,0,.52-.09c.78,0,1.08-.93,1.71-.92H409v-.25l0,0a1.11,1.11,0,0,1-.34-.82v0a1.51,1.51,0,0,0-.34-1c-.34-.43-.92-.65-1-1.09,1.17-.74,3-.62,3.67-2.24a3.43,3.43,0,0,0,.05-.57,1.59,1.59,0,0,0-.29-1,.71.71,0,0,0-.63-.3c-.19,0-.37,0-.56,0h-.21a.35.35,0,0,1-.24-.38.48.48,0,0,1,0-.16c.67-1.17,2.32-.87,3.19-2.08a1.22,1.22,0,0,0,.12-.57,1.19,1.19,0,0,0-.13-.55.72.72,0,0,0-.68-.46m-7.49,10.86,0-.22c.4.39,1.1,0,1.07.85a1,1,0,0,1-1-.63m-.11-.68.06-.42c.35,0,.6.22.95.19.13.22,0,.44-.11.64a.94.94,0,0,1-.91-.41m1-.38a2,2,0,0,0-.75-.41.82.82,0,0,1,.26-.68,1,1,0,0,1,.91.46c-.13.22-.1.64-.41.64m.78-1.55a.65.65,0,0,0,.22.26c-.3.77-.77.07-1.13-.08-.07,0,0-.11,0-.18.26-.42.66-.25.95,0m-.16-.46a.89.89,0,0,1,1.21.41c-.13.22-.33,0-.53.16-.29-.09-.46-.37-.69-.57m2.66,2.4a1.12,1.12,0,0,1-.58,1.22,2.83,2.83,0,0,1-2.2,0,2.27,2.27,0,0,1,.4-2.23,2.53,2.53,0,0,1,.68-.54,2.29,2.29,0,0,1,1.71,1.57m3.48-9.13c-.87.91-2.29.77-3.07,2a1.21,1.21,0,0,0-.19,1.06c.43,1,1.71-.28,1.9.89a1.82,1.82,0,0,1-1,1.64c-.77.45-1.71.41-2.37,1.08a1.94,1.94,0,0,0-1.7-.34,3.2,3.2,0,0,0-1.79,2c0-1.67-1.64-3.42-2.09-5.27a1.85,1.85,0,0,1,.6-2c1.1-.3,2.55,1.35,3.24-.25.5-1-.77-1.78-.18-2.8a2.44,2.44,0,0,1,1-1.22c.33,0,.75.26.8.63a1.19,1.19,0,0,0,.65.9c1-.23.87-1.46,1.57-2.08.37-.31.79-.84,1.32-.49,0,1.21-.78,2.08-1.25,3.1a.74.74,0,0,0,.49.72c.71.19,1.23-.34,1.89-.39a.76.76,0,0,1,.18.79" transform="translate(-305 -314)" style="fill:#231f20"/><path d="M311,368.56H311a.49.49,0,0,0,.44-.24c.1-.16.16-.31.23-.4s.1-.11.23-.11H312l2.92.72a4.67,4.67,0,0,0,.68.12,2.54,2.54,0,0,0,2.82-2.28,5.35,5.35,0,0,0,.14-.8c.2-2.08-1.3-3-2.95-3.35l-2-.5c-.46-.13-.44-.22-.47-.28a1.39,1.39,0,0,1,0-.2.41.41,0,0,0-.3-.38h-.08a.39.39,0,0,0-.33.14.55.55,0,0,0-.1.22c-.09.47-.15.75-.22,1s-.13.47-.22.72a1.72,1.72,0,0,0-.06.24.41.41,0,0,0,.3.42h.06a.5.5,0,0,0,.45-.27c.22-.35.29-.65.69-.61l.15,0,1.78.44a4.87,4.87,0,0,1,1.72.68,1.35,1.35,0,0,1,.57,1.31,2.59,2.59,0,0,1-.07.39c-.31,1.14-.9,1.32-1.85,1.27a5.25,5.25,0,0,1-.8-.14l-1.94-.48c-.7-.18-.76-.36-.78-.44a1,1,0,0,1,0-.22.43.43,0,0,0-.31-.41h-.08a.4.4,0,0,0-.42.29c0,.19-.17.83-.28,1.27s-.31,1.09-.34,1.23a.52.52,0,0,0,0,.09.44.44,0,0,0,.32.48" transform="translate(-305 -314)" style="fill:#231f20"/><path d="M408.2,386.05v0l.16.16a.23.23,0,0,0,.13,0h0a.34.34,0,0,0,.25-.18,3.77,3.77,0,0,0,0-.59c0-2.5-1.57-4.32-1.86-6.62v-.11h-.38v.12c.07,2.34,1.73,4,1.75,6.3a.08.08,0,0,0,0,0,6.24,6.24,0,0,1-.06.77Z" transform="translate(-305 -314)" style="fill:#231f20"/><path d="M409.06,386.77l.14.11,0,0,0,0c.3-.2.41-.62.73-.67l0,0,0,.09h.3v-.06c0-.68,1-1,1.11-1.7v0l0,0a.59.59,0,0,0-.23,0c-.36,0-.61.33-.87.53a12.6,12.6,0,0,0,1.09-3.92,4.43,4.43,0,0,0-.09-.86v-.05h-.05a.31.31,0,0,0-.33.34c0,.12,0,.24,0,.33a.19.19,0,0,1,0,.08c0,.13,0,.22,0,.32,0,2.06-1.7,3.45-1.82,5.53Z" transform="translate(-305 -314)" style="fill:#231f20"/><path d="M322.78,413.81l3.7-2.63c.18-.13.26-.13.3-.13a.29.29,0,0,1,.16.08.71.71,0,0,0,.39.2.43.43,0,0,0,.29-.08.41.41,0,0,0,.18-.3c0-.25-.1-.3-.2-.46-.32-.46-.56-.72-.74-1s-.37-.58-.59-.9a.61.61,0,0,0-.44-.33.41.41,0,0,0-.27.08.42.42,0,0,0-.18.32c0,.41.24.66.21.85s0,.14-.17.24l-3.73,2.65a.55.55,0,0,1-.36.14c-.12,0-.18-.14-.54-.21a.47.47,0,0,0-.31.09.4.4,0,0,0-.1.56c.16.23.42.53.65.85.42.59.59.89.81,1.2a.62.62,0,0,0,.44.32h0a.41.41,0,0,0,.43-.37,1,1,0,0,0-.15-.47.63.63,0,0,1-.09-.31c0-.09,0-.21.3-.4" transform="translate(-305 -314)" style="fill:#231f20"/><path d="M313.86,384.42h0c.38,0,.3-.47.45-.59a3.29,3.29,0,0,0,1.32-2.23,1.42,1.42,0,0,0,.48-1v-.06a1.52,1.52,0,0,0-.69-1.13c0-.16.22-.2.39-.34a2.15,2.15,0,0,0,.45-1.22,1.23,1.23,0,0,0,0-.23c-.17-.26-.34-.78-.77-.79h-.08c-.15-1.05-1.28-1.48-1.78-2.17l0-.05-.51.47c-1.25.37-1.24,1.81-2,2.44l0,0v0a2.52,2.52,0,0,0,.6,1.76,2.61,2.61,0,0,0-.68.93,2.33,2.33,0,0,0-.06.5.76.76,0,0,0,.19.55c1.07.69.73,2.43,2.29,2.64a.91.91,0,0,0,.44.48m1.68-6.79c.18.15.12.46,0,.64s-.11.27-.26.38c-.18-.48.33-.55.21-1m0,3.24c-.13.11-.29,0-.37-.11s-.07-.42.11-.53c.24.09.18.42.27.64m-3.73-3c.64,0,.28,1.8.73.52a.93.93,0,0,0,.59,0c-.31-.26-1-.37-1-.9a2.37,2.37,0,0,1,.85-1.81,1.24,1.24,0,0,1,1.79.51,3.51,3.51,0,0,1,.39,1.59,3.32,3.32,0,0,1-1.43.54c0,.11,0,.15.11.22h.31c.11.2,0,.46.07.68-.24-.09-.66.27-.68-.15a.81.81,0,0,0-.12-.64c-.29.13-.13.53-.21.8a1.86,1.86,0,0,1-1.37-.94Zm3,2.73h-.26l.08-.86c.29,0,.33.35.22.53s0,.22,0,.33m-.19-1.5a.17.17,0,0,0-.15.07c-.16-.4,0-.9.48-.86-.06.29.2.77-.32.8m-2.78,2.14a.91.91,0,0,1-.12-.84l.11-.11c-.15.38.56.77,0,.95M313,383a2.61,2.61,0,0,1-.72-1.65c.19-.31,1-.21.7-.65-.26,0-.68.34-.8-.08,0-.33-.18-.86.3-.91h.11c.2.31-.22.66.16.9.31-.27.06-.75.21-1.06.22,0,.55,0,.42.42,0,.07.09,0,.15,0,0-.46.42-.36.68-.38l0,1s-.09,0-.11,0c.13.44.84.17,1.1.63a2,2,0,0,1-1,2.06A1.08,1.08,0,0,1,313,383" transform="translate(-305 -314)" style="fill:#231f20"/><path d="M321.35,408.07l0,0a3.12,3.12,0,0,0,.38.2,1.89,1.89,0,0,0,.52.13,1.74,1.74,0,0,0,1-.23,1.92,1.92,0,0,0,1-1.51,2.93,2.93,0,0,0-.44-1.68c-.31-.56-.65-1.09-.94-1.63s-.27-.57-.49-1a.5.5,0,0,0-.38-.28.42.42,0,0,0-.24.05.41.41,0,0,0-.21.33c0,.33.13.52.11.69s0,.21-.3.36l-3.59,2a1,1,0,0,1-.54.16.41.41,0,0,1-.22-.1.7.7,0,0,0-.38-.21.42.42,0,0,0-.24.05.43.43,0,0,0-.23.34.67.67,0,0,0,.12.39c.23.42.49.81.73,1.24s.26.54.35.72a.58.58,0,0,0,.43.35.4.4,0,0,0,.23,0,.43.43,0,0,0,.22-.34c0-.33-.14-.49-.11-.62s0-.16.28-.31l1.41-.78.08,0,.07.13a.68.68,0,0,1,.13.37.71.71,0,0,1-.14.31l-.91,1.4a2.72,2.72,0,0,0-.53,1.21,1.39,1.39,0,0,0,.18.8,1.57,1.57,0,0,0,1,.8h0a.54.54,0,0,0,.29-.06.43.43,0,0,0,.22-.33.43.43,0,0,0-.06-.25,1.29,1.29,0,0,0-.18-.22.26.26,0,0,1,0-.08l1-1.68.36-.59m-.64-2.35-.09-.16.09.16Zm.14.12,0-.06,1.58-.87a.43.43,0,0,1,.22-.08s.06,0,.18.25a1.18,1.18,0,0,1,.16.67,1.3,1.3,0,0,1-.74,1,.91.91,0,0,1-.47.16c-.14,0-.4-.14-.78-.82a2.57,2.57,0,0,1-.12-.24" transform="translate(-305 -314)" style="fill:#231f20"/><path d="M313.39,360.07a.51.51,0,0,0,.16,0c.41,0,.44-.31.55-.39a.5.5,0,0,1,.45-.18,2.2,2.2,0,0,1,.71.18l3.26,1.3c.34.15.34.27.39.47s0,.22,0,.35a.52.52,0,0,0,.31.42.42.42,0,0,0,.15,0,.41.41,0,0,0,.38-.25,1.75,1.75,0,0,0,.06-.17c.1-.26.16-.5.26-.75s.26-.57.44-1a1.12,1.12,0,0,0,.1-.36.39.39,0,0,0-.24-.39.43.43,0,0,0-.16,0c-.45.06-.45.36-.58.47a.54.54,0,0,1-.51.24,2,2,0,0,1-.66-.16l-2.5-1,5.75-2.2a.58.58,0,0,0,.38-.34.54.54,0,0,0,0-.15.38.38,0,0,0-.19-.33,1.29,1.29,0,0,0-.22-.1l-4.81-1.92c-.37-.17-.36-.26-.39-.41s0-.17,0-.28a.45.45,0,0,0-.26-.42.36.36,0,0,0-.14,0,.44.44,0,0,0-.41.31c0,.12-.12.4-.33.93s-.35.79-.43,1a.44.44,0,0,0,0,.16.43.43,0,0,0,.28.41l.14,0c.43-.06.45-.33.63-.48s.28-.28.41-.27l.15,0,2.62,1.05-5,1.86a1.15,1.15,0,0,1-.2,0,.53.53,0,0,0-.32.36c-.19.47-.25.72-.33.91s-.14.27-.23.47a.43.43,0,0,0,0,.16.44.44,0,0,0,.28.42" transform="translate(-305 -314)" style="fill:#231f20"/><path d="M335.68,401.32c.24-.81.06-1.8.74-2.31a3.46,3.46,0,0,1,1.2-.29l.3,0c.25.07.45.4.8.46h0l0,0a.2.2,0,0,0,.07-.16s0-.1,0-.14a.25.25,0,0,1,0,0v0l0,0c-1.41-1.41-3.86-.28-5.19-1.7a3.6,3.6,0,0,1-.44-1.48,1.9,1.9,0,0,1,.06-.49c.05-.17.26-.43.44-.42h0a.73.73,0,0,0,.49-.77,1.36,1.36,0,0,0-.06-.37c-.61-.91-1.84-.61-2.17-1.64a1.4,1.4,0,0,1-.15-.52c0-.25.17-.28.49-.29h.46c.38,0,.79-.06.93-.5a1.52,1.52,0,0,0,0-.24c0-1-1-1.89-1-2.79a1.34,1.34,0,0,1,.3-.84c.22-.17.44-.44.75-.44a.61.61,0,0,1,.19,0c.82.44.72,1.5,1,2.33a1,1,0,0,0,.93.64.93.93,0,0,0,.25,0c.51-.09.55-.64.85-.85a.28.28,0,0,1,.17-.09c.16,0,.25.38.55.41h0a2.79,2.79,0,0,1,.46,1.59,6.38,6.38,0,0,1-.28,1.76c0,.3-.08.67-.08,1a1,1,0,0,0,.38.86.78.78,0,0,0,.43.11,1.3,1.3,0,0,0,.7-.23.82.82,0,0,1,.26-.05c.19,0,.31.11.44.4a4,4,0,0,1,.11.91,10.28,10.28,0,0,1-1,3.7v0l0,0a.5.5,0,0,0,.36.17h.1a4.6,4.6,0,0,0,1.27-3.38,6,6,0,0,0-.28-1.76l-.39-.4a.84.84,0,0,0-.45-.12c-.36,0-.7.2-1,.23s-.24-.15-.25-.35,0-.22,0-.33a.78.78,0,0,0,0-.12,7.54,7.54,0,0,0,.62-2.65,2.44,2.44,0,0,0-.63-1.72,1.61,1.61,0,0,0-1.08-.45,1.35,1.35,0,0,0-.59.14c-.44.44-.73.6-.9.59s-.38-.54-.45-1.22-.19-1.39-.72-1.63a1.43,1.43,0,0,0-.86-.23h-.17a1.65,1.65,0,0,0-1.1.79,3.29,3.29,0,0,0-.2,1.15,2.24,2.24,0,0,0,.31,1.18,11.12,11.12,0,0,1,.27,1.15.79.79,0,0,1-.15.48l-.13,0c-.15,0-.32-.09-.5-.11a1.07,1.07,0,0,0-1,.53,1.93,1.93,0,0,0,0,.28,2.12,2.12,0,0,0,.53,1.41c.56.59,1.29.65,1.92,1a.91.91,0,0,1,.07.3c0,.42-.77.4-1.08.88a3.3,3.3,0,0,0-.27,1.16,1.53,1.53,0,0,0,.06.43,4.31,4.31,0,0,0,2.75,2.51.79.79,0,0,0,.31,0h.27a.48.48,0,0,1,.26,0c-.67.64-.54,1.56-.66,2.34a3.49,3.49,0,0,0-1.15-.2,2.58,2.58,0,0,0-1.48.47,1,1,0,0,0-.36.85c0,.3.07.61.08.9a1.05,1.05,0,0,1-.1.5,1.43,1.43,0,0,0-.07.46c0,.72.53,1.26.53,1.9a1.19,1.19,0,0,1,0,.23v.07H333l0,0a.54.54,0,0,1,.5-.24c.21,0,.45,0,.68,0a.79.79,0,0,0,.54-.18c.78-.28,1.15-1.25,1.88-1.37a1.34,1.34,0,0,0,.68-1.17,3.32,3.32,0,0,0-1.66-2.13m-2.34.24h.26a.57.57,0,0,0,0,.26l.08.1h0a.75.75,0,0,1,1-.37c0,.18-.09.42.09.53l.33-.38c.27.13.69.33.38.7-.2.11-.19.6-.48.27-.4-.11.13-.57-.31-.59-.06.46-.51.27-.75.16-.06-.05-.07-.3-.22-.32h-.09c-.13.07-.11.2-.11.31a1.18,1.18,0,0,0-.75.34c-.18-.26.24-.84.63-1m1.2,3.69a1.79,1.79,0,0,1-1.12.12,1.25,1.25,0,0,1-.69-.83,2.57,2.57,0,0,1,.47-1.92,2.61,2.61,0,0,1,2.43,1.15c.05.66-.58,1.2-1.09,1.48m.88-2.5.42-.46a.71.71,0,0,1,.43.79c-.15.13-.26.31-.48.31-.07-.22-.47-.33-.36-.64m.74,1.32,0,.07a3.83,3.83,0,0,1-.16-.6.4.4,0,0,0,.42-.16c.16.22,0,.51-.21.68" transform="translate(-305 -314)" style="fill:#231f20"/><path d="M316.82,402.73a.39.39,0,0,0,0-.18.59.59,0,0,0-.49-.32c-.41-.11-1-.06-1.65-1.64a.65.65,0,0,1-.07-.28s0,0,.08-.09a3.41,3.41,0,0,1,.45-.2l1.14-.46.31-.12h0l0,.09.26.66a.65.65,0,0,1,.06.3.5.5,0,0,1-.23.33c-.12.13-.32.15-.42.51a.44.44,0,0,0,0,.2.45.45,0,0,0,.37.29,1,1,0,0,0,.53-.15l1.55-.69a.53.53,0,0,0,.36-.4.48.48,0,0,0,0-.24.45.45,0,0,0-.41-.26l-.25,0c-.25,0-.42-.07-.55-.37l-.22-.56,0-.1.16-.07,1.25-.5a1.65,1.65,0,0,1,.31-.1,4,4,0,0,1,.37.8,1.8,1.8,0,0,1,.17.81.4.4,0,0,1-.22.33c-.1.1-.35.09-.46.49a.46.46,0,0,0,0,.23.45.45,0,0,0,.37.29,1,1,0,0,0,.51-.14l.86-.38a.48.48,0,0,0,.29-.39.51.51,0,0,0,0-.24c-.32-.79-.6-1.4-.84-2-.54-1.36-.76-2-.91-2.39a.51.51,0,0,0-.41-.33.44.44,0,0,0-.21,0,.48.48,0,0,0-.29.41c0,.29.07.52,0,.69s0,.17-.22.26l-4.17,1.66a1.09,1.09,0,0,1-.45.1c-.09,0-.09,0-.15-.1a.65.65,0,0,0-.43-.31.55.55,0,0,0-.26,0,.38.38,0,0,0-.24.32.56.56,0,0,0,0,.27c.2.51.39.88.49,1.13.17.43.35,1,.9,2.35a1.63,1.63,0,0,0,1.38,1,2,2,0,0,0,.93-.12.5.5,0,0,0,.35-.39" transform="translate(-305 -314)" style="fill:#231f20"/><path d="M318.34,394.8c.09.07.14.2.41.27h.17a.42.42,0,0,0,.33-.33,1,1,0,0,0,0-.37c-.07-.28-.16-.53-.21-.76s-.08-.5-.14-.8a1.69,1.69,0,0,0-.06-.24.47.47,0,0,0-.36-.34.4.4,0,0,0-.17,0,.44.44,0,0,0-.33.37c0,.21,0,.38,0,.51s0,.16-.28.24a2.13,2.13,0,0,1-.86,0l-.17,0-2.72-.55,2.39-1.66a3.79,3.79,0,0,1,1.08-.59l.1.16a.53.53,0,0,0,.36.28.41.41,0,0,0,.17,0,.42.42,0,0,0,.34-.32,1.11,1.11,0,0,0,0-.4c0-.19-.13-.41-.26-1-.07-.29-.1-.61-.17-.94,0,0,0-.13,0-.24a.48.48,0,0,0-.37-.38.46.46,0,0,0-.19,0c-.35.16-.27.34-.31.4a.25.25,0,0,0,0,0,1.88,1.88,0,0,1,0,.22c0,.15,0,.17-.27.35l-4.83,3.5c-.29.23-.45.33-.52.6a.41.41,0,0,0,0,.17.45.45,0,0,0,.24.3,1.21,1.21,0,0,0,.34.1l6.09,1.24a.78.78,0,0,1,.4.19" transform="translate(-305 -314)" style="fill:#231f20"/><path d="M363.81,420.21h0" transform="translate(-305 -314)" style="fill:#231f20"/><path d="M375.32,326.39c.53.08.94.11,1.21.15s.74.16,1.11.22a2.42,2.42,0,0,0,.33,0,.47.47,0,0,0,.28-.08.44.44,0,0,0,.18-.3v-.1a.47.47,0,0,0-.31-.36c-.33-.16-.6-.21-.6-.62a1,1,0,0,1,0-.15l.22-1.39c0-.17,0-.3.06-.36h.1l.7.11c.37.08.37.18.44.39s0,.22.05.35a.47.47,0,0,0,.37.42h.07a.49.49,0,0,0,.46-.39,1.46,1.46,0,0,0,0-.31l.2-1.68s0-.07,0-.11a.48.48,0,0,0-.16-.39.42.42,0,0,0-.21-.09h-.07a.46.46,0,0,0-.38.23c-.18.25-.32.49-.63.48h-.1l-.59-.09-.11,0,0-.17-.29,0,.29,0,.21-1.32a1.67,1.67,0,0,1,.07-.32h.1a6.23,6.23,0,0,1,.77.1c.86.16.9.36.94.51a2.71,2.71,0,0,1,0,.35.48.48,0,0,0,.39.48h.07a.48.48,0,0,0,.46-.37,1.42,1.42,0,0,0,0-.31l.11-.93v-.06a.48.48,0,0,0-.41-.48c-.84-.13-1.49-.2-2.15-.3-1.44-.23-2.09-.37-2.5-.43h-.09a.48.48,0,0,0-.48.35.4.4,0,0,0,0,.1.52.52,0,0,0,.3.45c.18.1.36.15.48.23s.15.11.15.26v.09l-.7,4.4c-.11.53-.18.47-.26.5s-.14,0-.27,0a.49.49,0,0,0-.35.4.35.35,0,0,0,0,.07.44.44,0,0,0,.42.42" transform="translate(-305 -314)" style="fill:#231f20"/><path d="M370.26,326.27h.15a3.68,3.68,0,0,0,3.82-3.91v-.1a3.37,3.37,0,0,0-3.52-3.48h-.08a3.7,3.7,0,0,0-3.82,3.92s0,.07,0,.1a3.33,3.33,0,0,0,3.45,3.47m-1.68-4.08c0-1.34.43-2.38,1.81-2.41,1,0,2,.89,2.07,2.81v.11c-.05,1.54-.48,2.54-1.9,2.56h0a1.64,1.64,0,0,1-1.49-1,4.46,4.46,0,0,1-.48-2s0-.06,0-.09" transform="translate(-305 -314)" style="fill:#231f20"/><path d="M347.43,325a1.1,1.1,0,0,0,0,.23.43.43,0,0,0,.4.3l.15,0a.55.55,0,0,0,.36-.5,5.11,5.11,0,0,1,0-.66c.05-.17.09-.28.39-.38l.76-.24.17,0a1.06,1.06,0,0,1,.07.19l1.32,4.18a1,1,0,0,1,0,.27c0,.19-.08.24-.24.35s-.44.09-.53.56a.38.38,0,0,0,0,.13.48.48,0,0,0,.41.35h0a1,1,0,0,0,.3-.06c.38-.12.66-.25,1.25-.43s.89-.24,1.27-.36a3.1,3.1,0,0,0,.32-.11.47.47,0,0,0,.28-.42.54.54,0,0,0,0-.17.44.44,0,0,0-.45-.28l-.41,0c-.29,0-.47,0-.64-.48l-1.29-4.07a1.27,1.27,0,0,1,0-.19l.17-.06.77-.24a.85.85,0,0,1,.29-.06c.19,0,.26.08.39.23s.17.41.59.47l.14,0a.45.45,0,0,0,.32-.43,1.08,1.08,0,0,0-.17-.48l-.36-.78a.48.48,0,0,0-.43-.35l-.14,0c-.84.26-1.43.49-2.74.9s-1.92.57-2.77.84a.43.43,0,0,0-.3.41.87.87,0,0,0,0,.19Z" transform="translate(-305 -314)" style="fill:#231f20"/><path d="M354.85,321.56c.35.07.5,0,.81.29l2.1,2.35a.64.64,0,0,1,.22.42l.29,1.19a1.39,1.39,0,0,1,0,.22c0,.3-.06.3-.22.41l-.3.14a.49.49,0,0,0-.26.45.44.44,0,0,0,0,.1.4.4,0,0,0,.41.28h0l.19,0c.29-.07.52-.17,1.34-.36,1.16-.28,1.24-.27,1.37-.3a1.31,1.31,0,0,0,.26-.09.41.41,0,0,0,.24-.38v0a.52.52,0,0,0-.57-.39l-.38,0c-.22,0-.26.06-.42-.39l-.33-1.36a1.49,1.49,0,0,1-.05-.26.7.7,0,0,1,0-.21l.64-2.55a1.9,1.9,0,0,1,.39-.84l.17-.16a.47.47,0,0,0,.15-.36.49.49,0,0,0,0-.08.41.41,0,0,0-.43-.3l-.12,0c-.29.07-.35.12-1,.29-.47.11-.63.12-.79.15a.45.45,0,0,0-.37.46.36.36,0,0,0,0,.09.46.46,0,0,0,.42.32c.19,0,.37,0,.49,0s.11,0,.14.12,0,0,0,.07a1.13,1.13,0,0,1-.05.33l-.45,1.65-.05-.07-1.24-1.5a.93.93,0,0,1-.16-.24l.14-.1a.49.49,0,0,0,.25-.43.35.35,0,0,0,0-.07.42.42,0,0,0-.43-.32l-.13,0c-.54.17-.92.26-1.3.35s-.64.12-.85.17a1.51,1.51,0,0,0-.28.09.4.4,0,0,0-.24.38.62.62,0,0,0,0,.08.46.46,0,0,0,.34.33" transform="translate(-305 -314)" style="fill:#231f20"/><path d="M384.52,328.14l.19.08c.27.1.53.17.77.26s.5.23.79.35a1.43,1.43,0,0,0,.46.15.41.41,0,0,0,.4-.26.39.39,0,0,0,0-.13.48.48,0,0,0-.21-.39c-.26-.19-.52-.39-.48-.48a.32.32,0,0,1,0-.08,2.54,2.54,0,0,1,.39-.53c.29-.34.39-.32.39-.33h0l.11-.27-.11.27,1.69.66h0a.84.84,0,0,1,0,.15c0,.12,0,.3,0,.55,0,.09,0,.17,0,.24a.79.79,0,0,1-.05.29c-.07.13-.07.11-.23.14l-.27,0a.46.46,0,0,0-.37.28.32.32,0,0,0,0,.14.39.39,0,0,0,.22.36l.2.09c.27.11.59.19,1,.33.55.22.76.34,1.09.47a1.11,1.11,0,0,0,.35.1h0a.41.41,0,0,0,.36-.28.48.48,0,0,0,0-.16.41.41,0,0,0-.2-.36c-.22-.16-.28-.08-.33-.45l-.26-6.14a1.43,1.43,0,0,0,0-.35.41.41,0,0,0-.25-.26l-.13,0c-.36,0-.41.24-.51.31l-4.35,4.27a.6.6,0,0,1-.4.18l-.25,0a.44.44,0,0,0-.32.25.35.35,0,0,0,0,.14.4.4,0,0,0,.22.36m4.55-1.62,0,.11,0-.12h0m-1-.61,1-1,.07,1.37v0l-1.05-.41,0,0" transform="translate(-305 -314)" style="fill:#231f20"/><path d="M392.45,331.29c.43.24.86.44,1.29.69s.52.33.69.44a.81.81,0,0,0,.35.12.42.42,0,0,0,.38-.21.53.53,0,0,0,.06-.2c0-.38-.26-.42-.35-.54s-.16-.17-.15-.28a.66.66,0,0,1,.1-.29l.81-1.43,0-.08.13.07c.38.26.33.16.36.6l0,1.7a1.88,1.88,0,0,0,.76,1.93,2,2,0,0,0,.86.24.71.71,0,0,0,.67-.29.49.49,0,0,0,.05-.2.44.44,0,0,0-.22-.39,1.69,1.69,0,0,0-.28-.09l-.07,0h0c0-1.07,0-2.28,0-2.77a3.35,3.35,0,0,0,.44,0,1.76,1.76,0,0,0,1.28-.91,2.13,2.13,0,0,0,.26-.93,2.39,2.39,0,0,0-1.48-2.14c-.56-.32-1.15-.6-1.69-.91s-.54-.35-1-.58a.57.57,0,0,0-.27-.08.43.43,0,0,0-.39.22.38.38,0,0,0-.06.19c0,.39.26.43.36.57a.46.46,0,0,1,.18.35.7.7,0,0,1-.11.32h0l-2.06,3.64c-.3.48-.43.46-.55.47l-.29,0a.45.45,0,0,0-.42.22.46.46,0,0,0-.06.22.54.54,0,0,0,.36.48m4.66-4.31c.12-.19.15-.19.16-.19h0a.92.92,0,0,1,.27.12,1.08,1.08,0,0,1,.61,1,1.63,1.63,0,0,1-.23.74c-.19.31-.26.44-.54.43a2.16,2.16,0,0,1-.9-.33l-.27-.17h0Zm-1,1.62h0l.1.05-.26-.15Z" transform="translate(-305 -314)" style="fill:#231f20"/><path d="M326.57,418.82a.63.63,0,0,1,.24-.44l3-2.89.15-.13.12.12.54.57c.2.2.22.32.22.41s-.22.37-.28.77a.45.45,0,0,0,.13.33.43.43,0,0,0,.3.14c.44,0,.5-.37.57-.4l.54-.65a.55.55,0,0,0,.17-.34.42.42,0,0,0-.12-.3c-.6-.63-1.05-1.05-2-2s-1.33-1.45-1.93-2.08a.42.42,0,0,0-.29-.13.54.54,0,0,0-.37.15l-1,.73a.55.55,0,0,0-.31.43.42.42,0,0,0,.13.31.48.48,0,0,0,.33.15c.47,0,.74-.35,1-.32a.51.51,0,0,1,.36.19l.54.57.11.13-.13.14h0l-3.11,3c-.19.18-.3.2-.38.2a.57.57,0,0,1-.3-.13,1,1,0,0,0-.48-.24.43.43,0,0,0-.31.12.46.46,0,0,0-.16.32.63.63,0,0,0,.23.45c.27.29.5.47.92.91s.6.68.87,1c.13.11.19.29.52.34h0a.48.48,0,0,0,.34-.14.41.41,0,0,0,.11-.26c0-.28-.14-.36-.22-.52a.85.85,0,0,1-.14-.42" transform="translate(-305 -314)" style="fill:#231f20"/><path d="M324.33,340.94a1.15,1.15,0,0,0,.55-.23.75.75,0,0,1,.35-.14.31.31,0,0,1,.23.12l3.26,3.19c.26.26.29.39.28.43s-.12.12-.17.51a.51.51,0,0,0,.16.36.4.4,0,0,0,.28.11.52.52,0,0,0,.36-.17c.39-.39.65-.72.84-.92s.78-.74,1.82-1.8a1.56,1.56,0,0,0,.43-1.11,2,2,0,0,0-.59-1.39.55.55,0,0,0-.39-.18.38.38,0,0,0-.27.12.47.47,0,0,0-.13.34c0,.28.11.44.11.73a2.47,2.47,0,0,1-.92,1.71c-.17.17-.25.18-.26.18s-.19-.09-.46-.38l-.89-.87-.27-.26.07-.08.51-.51a.5.5,0,0,1,.36-.19.73.73,0,0,1,.33.11,1.06,1.06,0,0,0,.48.18.42.42,0,0,0,.3-.13.48.48,0,0,0,.14-.33.82.82,0,0,0-.38-.57l-1.28-1.16a.6.6,0,0,0-.4-.18.45.45,0,0,0-.33.16.37.37,0,0,0-.11.28c0,.32.18.49.17.72a.52.52,0,0,1-.17.39l-.43.44-.08.08-.13-.13-1-1a2,2,0,0,1-.2-.22l0,0h0a4.08,4.08,0,0,1,.59-.66c.43-.44.69-.52.83-.52a.48.48,0,0,1,.29.11.85.85,0,0,0,.48.22.45.45,0,0,0,.32-.14.47.47,0,0,0,.14-.33.78.78,0,0,0-.36-.55l-.71-.64a.48.48,0,0,0-.34-.13.49.49,0,0,0-.35.15c-.61.62-1.05,1.13-1.53,1.61-1,1.06-1.55,1.53-1.84,1.82a.53.53,0,0,0-.16.38.44.44,0,0,0,.14.32.46.46,0,0,0,.33.13" transform="translate(-305 -314)" style="fill:#231f20"/><path d="M343.36,326.13c.22,0,.41-.07.57-.07s.21,0,.33.22l1.84,4.06a.73.73,0,0,1,.08.29.3.3,0,0,1-.1.22.68.68,0,0,0-.24.46.5.5,0,0,0,0,.19.39.39,0,0,0,.36.24.42.42,0,0,0,.16,0c.25-.11.59-.31.94-.46.65-.29,1-.4,1.3-.55.16-.08.37-.15.39-.46a.39.39,0,0,0,0-.17.4.4,0,0,0-.37-.23c-.26,0-.42.12-.57.11s-.24,0-.42-.37l-1.82-4a.66.66,0,0,1-.07-.26c0-.09,0-.1.1-.17s.26-.12.3-.46a.47.47,0,0,0,0-.18.4.4,0,0,0-.36-.24,1,1,0,0,0-.37.11c-.49.22-.79.4-1.08.53s-.62.24-1,.4c0,0-.34,0-.42.47a.43.43,0,0,0,0,.17.45.45,0,0,0,.43.25" transform="translate(-305 -314)" style="fill:#231f20"/><path d="M319.18,348a.61.61,0,0,0,.31-.11c.22-.18.27-.2.38-.2l.24,0,5.76,1.29a2.23,2.23,0,0,0,.49.07h0a.5.5,0,0,0,.39-.18.47.47,0,0,0,.09-.27.86.86,0,0,0-.16-.43l-3.07-5.33a.8.8,0,0,1-.12-.4c0-.07,0-.14,0-.23a.47.47,0,0,0-.19-.39.43.43,0,0,0-.26-.09c-.36.06-.36.27-.45.34-.17.23-.29.47-.43.65s-.33.39-.5.63a.84.84,0,0,0-.21.47.42.42,0,0,0,.18.34.43.43,0,0,0,.25.08c.32,0,.38-.21.5-.29a.44.44,0,0,1,.26-.15.4.4,0,0,1,.23.1,2.43,2.43,0,0,1,.64.8l1.37,2.38-2.79-.69A3.73,3.73,0,0,1,321,346h0a1.72,1.72,0,0,0,.1-.4.42.42,0,0,0-.18-.35.44.44,0,0,0-.27-.1c-.34.07-.33.22-.46.36s-.22.37-.56.85c-.17.24-.39.47-.58.74a.83.83,0,0,0-.25.49.44.44,0,0,0,.19.35.35.35,0,0,0,.22.06" transform="translate(-305 -314)" style="fill:#231f20"/><path d="M339.79,331.55a5.87,5.87,0,0,0,.6,0c.79-.09,1.34-.17,1.71-.18s.53.05.73.36a1,1,0,0,1,.14.48,1,1,0,0,1-.57.87,1.43,1.43,0,0,1-.71.2,2.55,2.55,0,0,1-1.6-.74.56.56,0,0,0-.39-.19.53.53,0,0,0-.26.08.45.45,0,0,0-.24.39.8.8,0,0,0,.28.5l.23-.21-.23.21.94,1a.67.67,0,0,0,.51.3.83.83,0,0,0,.23,0,7.54,7.54,0,0,0,1.7-.55,2.43,2.43,0,0,0,1.29-2.11,2.61,2.61,0,0,0-.37-1.28,2.17,2.17,0,0,0-2.09-1.2,7.21,7.21,0,0,0-.75.05c-.66.07-1.14.15-1.44.15s-.41,0-.55-.25a.82.82,0,0,1-.12-.39.74.74,0,0,1,.44-.63,1.47,1.47,0,0,1,.74-.22,1.79,1.79,0,0,1,1,.35c.14.09.26.19.37.27a.72.72,0,0,0,.42.19.35.35,0,0,0,.17,0,.52.52,0,0,0,.29-.45.71.71,0,0,0-.16-.4l-.75-1.08c-.12-.1-.07-.32-.5-.41a.41.41,0,0,0-.22.06,1,1,0,0,0-.27.27l-.08.1,0,0h0a4.07,4.07,0,0,0-1.49.42,2.17,2.17,0,0,0-1.14,1.91,2.39,2.39,0,0,0,.34,1.18,1.91,1.91,0,0,0,1.83,1" transform="translate(-305 -314)" style="fill:#231f20"/><path d="M316.52,351.84a.42.42,0,0,0,.2.06c.39,0,.44-.27.6-.39s.25-.21.35-.21a.42.42,0,0,1,.19.07l4,2.29c.32.21.28.26.3.39s0,.14,0,.25a.5.5,0,0,0,.24.46.46.46,0,0,0,.21.06h0a.41.41,0,0,0,.34-.21c.14-.24.31-.61.5-1,.37-.64.57-.92.76-1.25a.82.82,0,0,0,.13-.37.42.42,0,0,0-.21-.37.39.39,0,0,0-.19-.05c-.43.07-.41.3-.55.41a.42.42,0,0,1-.34.19.83.83,0,0,1-.37-.13l-4-2.27c-.28-.18-.25-.22-.26-.29s.05-.17.07-.37a.45.45,0,0,0-.23-.4.41.41,0,0,0-.21-.07c-.35,0-.36.24-.48.4-.28.49-.42.82-.58,1.09s-.37.58-.57.92a.79.79,0,0,0-.15.38.42.42,0,0,0,.21.38" transform="translate(-305 -314)" style="fill:#231f20"/><path d="M307.07,379.07a62.73,62.73,0,1,1,62.73,62.73V440.6a61.53,61.53,0,1,0-43.5-18,61.33,61.33,0,0,0,43.5,18v1.21a62.74,62.74,0,0,1-62.73-62.73" transform="translate(-305 -314)" style="fill:#231f20"/></svg>