<?xml version="1.0" encoding="utf-8"?>
<!-- Generator: Adobe Illustrator 25.2.0, SVG Export Plug-In . SVG Version: 6.00 Build 0)  -->
<svg version="1.1" id="katman_1" xmlns="http://www.w3.org/2000/svg" xmlns:xlink="http://www.w3.org/1999/xlink" x="0px" y="0px"
	 viewBox="0 0 560 400" style="enable-background:new 0 0 560 400;" xml:space="preserve">
<style type="text/css">
	.st0{fill-rule:evenodd;clip-rule:evenodd;fill:#B90005;}
	.st1{fill:#FFFFFF;}
</style>
<g transform="matrix(2.7 0 0 2.7 1311.4 -1972.2)">
	<path class="st0" d="M-432,754.52h100v100h-100V754.52z"/>
	<g>
		<path class="st1" d="M-379.42,794.52c0,1.8-2.24,1.69-2.24,1.69h-2.24v-3.25h2.24C-379.36,792.95-379.42,794.52-379.42,794.52
			 M-383.9,788.01h1.71c1.77,0.09,1.7,1.41,1.7,1.41c0,1.64-1.95,1.66-1.95,1.66h-1.45L-383.9,788.01z M-379.84,791.73
			c0,0,1.53-0.65,1.52-2.38c0,0,0.25-2.84-3.53-3.18h-4.17v11.89h4.78c0,0,3.99,0.01,3.99-3.35
			C-377.24,794.7-377.14,792.4-379.84,791.73 M-390.63,783.83h17.55v16.54h-17.55V783.83z M-399.66,794.52
			c0,1.8-2.24,1.69-2.24,1.69h-2.24v-3.25h2.24C-399.6,792.95-399.66,794.52-399.66,794.52 M-404.14,788.01h1.71
			c1.77,0.09,1.7,1.41,1.7,1.41c0,1.64-1.95,1.66-1.95,1.66h-1.45V788.01z M-400.08,791.73c0,0,1.53-0.65,1.52-2.38
			c0,0,0.25-2.84-3.53-3.18h-4.17v11.89h4.78c0,0,3.99,0.01,3.99-3.35C-397.48,794.7-397.38,792.4-400.08,791.73 M-410.87,783.83
			h17.55v16.54h-17.55V783.83z M-356.42,787.01v2.2c0,0-2.14-1.32-4.51-1.34c0,0-4.42-0.09-4.62,4.24c0,0-0.15,3.98,4.56,4.2
			c0,0,1.98,0.24,4.67-1.48v2.28c0,0-3.61,2.14-7.79,0.49c0,0-3.51-1.28-3.65-5.49c0,0-0.15-4.33,4.54-5.77c0,0,1.25-0.48,3.5-0.27
			C-359.7,786.07-358.36,786.2-356.42,787.01 M-370.38,800.37h17.55v-16.54h-17.55V800.37z"/>
		<g transform="matrix(.169974 0 0 .169974 -510.823 298.938)">
			<path class="st1" d="M613.34,3095.48c-5.74-8.97-11.64-18.04-17.69-27.21c-5.95-9.17-11.89-18.24-17.84-27.21
				c-5.95-8.97-11.84-17.69-17.69-26.16v80.58h-18.44v-108.09h19.35c9.07,13.1,17.99,26.3,26.76,39.61
				c8.87,13.3,17.69,26.81,26.46,40.51v-80.12h18.44v108.09L613.34,3095.48z"/>
			<path class="st1" d="M657.72,2987.39h72.27v16.17h-53.07v27.97h47.32v16.18h-47.32v31.6h55.94v16.17h-75.14V2987.39z"/>
			<path class="st1" d="M837.39,3095.48c-3.73-12.9-7.41-25.85-11.04-38.85c-3.63-13-7.16-26-10.58-39.01
				c-3.43,12.9-6.95,25.91-10.58,39.01c-3.53,13-7.16,25.95-10.89,38.85h-20.26c-5.34-17.64-10.43-35.48-15.27-53.52
				c-4.84-18.04-9.42-36.23-13.76-54.57h20.71c2.92,14.71,6,29.48,9.22,44.29c3.33,14.72,6.8,29.13,10.43,43.24
				c3.83-13.91,7.51-27.77,11.04-41.57c3.63-13.81,7.1-27.62,10.43-41.43h18.9c3.33,13.71,6.75,27.37,10.28,40.97
				c3.53,13.61,7.16,27.22,10.89,40.82c3.63-14.01,7.05-28.27,10.28-42.78c3.23-14.52,6.3-29.03,9.22-43.54h20.26
				c-4.43,18.34-9.07,36.53-13.91,54.57s-9.88,35.88-15.12,53.52H837.39z"/>
			<path class="st1" d="M931.16,3097.75c-5.85,0-11.64-0.66-17.39-1.97s-11.14-3.32-16.18-6.04v-17.54
				c10.38,6.45,21.67,9.68,33.86,9.68c7.56,0,13.35-1.42,17.39-4.24c4.13-2.82,6.2-6.7,6.2-11.64c0-2.82-0.6-5.14-1.81-6.95
				c-1.21-1.92-2.87-3.48-4.99-4.69c-2.02-1.31-4.38-2.37-7.1-3.18c-2.62-0.8-5.39-1.56-8.32-2.26c-5.34-1.31-10.23-2.77-14.66-4.39
				c-4.33-1.71-8.11-3.73-11.34-6.04c-3.12-2.32-5.54-5.19-7.26-8.62c-1.71-3.43-2.57-7.61-2.57-12.55c0-6.65,1.66-12.35,4.99-17.08
				c3.33-4.84,8.06-8.57,14.21-11.19s13.46-3.93,21.92-3.93c5.54,0,11.04,0.65,16.48,1.96c5.44,1.31,10.28,3.08,14.51,5.3v17.08
				c-4.03-2.52-8.77-4.54-14.21-6.05c-5.34-1.61-11.04-2.42-17.08-2.42c-6.85,0-12.2,1.31-16.03,3.93
				c-3.83,2.52-5.74,6.15-5.74,10.89c0,3.43,0.91,6.15,2.72,8.16c1.81,1.92,4.38,3.48,7.71,4.69c3.33,1.11,7.21,2.22,11.64,3.33
				c4.84,1.21,9.42,2.56,13.76,4.08c4.43,1.51,8.31,3.47,11.64,5.89c3.43,2.32,6.1,5.29,8.01,8.92s2.87,8.17,2.87,13.61
				c0,6.95-1.71,12.9-5.14,17.84c-3.43,4.94-8.41,8.77-14.97,11.49C947.84,3096.44,940.13,3097.75,931.16,3097.75z"/>
		</g>
	</g>
</g>
</svg>
