<svg width="149" height="58" viewBox="0 0 149 58" fill="none" xmlns="http://www.w3.org/2000/svg">
<g filter="url(#filter0_d_169_1909)">
<g filter="url(#filter1_d_169_1909)">
<rect x="4" width="141" height="50" rx="8" fill="white"/>
</g>
<path d="M40.2687 31H38.6381L42.3021 20.8182H44.077L47.741 31H46.1104L43.2318 22.6676H43.1523L40.2687 31ZM40.5422 27.0128H45.8319V28.3054H40.5422V27.0128ZM49.0921 33.8636V23.3636H50.5438V24.6016H50.6681C50.7542 24.4425 50.8785 24.2585 51.0409 24.0497C51.2033 23.8409 51.4287 23.6586 51.7171 23.5028C52.0054 23.3438 52.3866 23.2642 52.8605 23.2642C53.477 23.2642 54.0272 23.42 54.5111 23.7315C54.995 24.0431 55.3745 24.4922 55.6496 25.0788C55.928 25.6655 56.0672 26.3714 56.0672 27.1967C56.0672 28.022 55.9297 28.7296 55.6546 29.3196C55.3795 29.9062 55.0016 30.3587 54.521 30.6768C54.0405 30.9917 53.4919 31.1491 52.8754 31.1491C52.4114 31.1491 52.0319 31.0713 51.7369 30.9155C51.4453 30.7597 51.2166 30.5774 51.0509 30.3686C50.8852 30.1598 50.7575 29.9742 50.6681 29.8118H50.5786V33.8636H49.0921ZM50.5487 27.1818C50.5487 27.7187 50.6266 28.1894 50.7824 28.5938C50.9382 28.9981 51.1636 29.3146 51.4585 29.5433C51.7535 29.7687 52.1148 29.8814 52.5423 29.8814C52.9865 29.8814 53.3577 29.7637 53.656 29.5284C53.9543 29.2898 54.1797 28.9666 54.3321 28.5589C54.4879 28.1513 54.5658 27.6922 54.5658 27.1818C54.5658 26.678 54.4896 26.2256 54.3371 25.8246C54.1879 25.4235 53.9626 25.107 53.661 24.875C53.3627 24.643 52.9898 24.527 52.5423 24.527C52.1115 24.527 51.7469 24.638 51.4486 24.8601C51.1536 25.0821 50.9299 25.392 50.7774 25.7898C50.625 26.1875 50.5487 26.6515 50.5487 27.1818ZM57.7327 33.8636V23.3636H59.1844V24.6016H59.3087C59.3949 24.4425 59.5191 24.2585 59.6816 24.0497C59.844 23.8409 60.0693 23.6586 60.3577 23.5028C60.646 23.3438 61.0272 23.2642 61.5012 23.2642C62.1176 23.2642 62.6678 23.42 63.1517 23.7315C63.6356 24.0431 64.0151 24.4922 64.2902 25.0788C64.5686 25.6655 64.7078 26.3714 64.7078 27.1967C64.7078 28.022 64.5703 28.7296 64.2952 29.3196C64.0201 29.9062 63.6423 30.3587 63.1617 30.6768C62.6811 30.9917 62.1325 31.1491 61.5161 31.1491C61.0521 31.1491 60.6726 31.0713 60.3776 30.9155C60.0859 30.7597 59.8572 30.5774 59.6915 30.3686C59.5258 30.1598 59.3982 29.9742 59.3087 29.8118H59.2192V33.8636H57.7327ZM59.1894 27.1818C59.1894 27.7187 59.2673 28.1894 59.423 28.5938C59.5788 28.9981 59.8042 29.3146 60.0992 29.5433C60.3941 29.7687 60.7554 29.8814 61.183 29.8814C61.6271 29.8814 61.9983 29.7637 62.2966 29.5284C62.5949 29.2898 62.8203 28.9666 62.9727 28.5589C63.1285 28.1513 63.2064 27.6922 63.2064 27.1818C63.2064 26.678 63.1302 26.2256 62.9777 25.8246C62.8286 25.4235 62.6032 25.107 62.3016 24.875C62.0033 24.643 61.6304 24.527 61.183 24.527C60.7521 24.527 60.3875 24.638 60.0892 24.8601C59.7942 25.0821 59.5705 25.392 59.4181 25.7898C59.2656 26.1875 59.1894 26.6515 59.1894 27.1818ZM67.8598 20.8182V31H66.3733V20.8182H67.8598ZM70.7993 33.8636C70.5772 33.8636 70.375 33.8454 70.1927 33.8089C70.0104 33.7758 69.8746 33.7393 69.7851 33.6996L70.143 32.4815C70.4148 32.5545 70.6568 32.5859 70.8689 32.576C71.081 32.5661 71.2683 32.4865 71.4307 32.3374C71.5964 32.1882 71.7422 31.9446 71.8682 31.6065L72.0521 31.0994L69.2581 23.3636H70.849L72.7829 29.2898H72.8625L74.7964 23.3636H76.3923L73.2453 32.0192C73.0995 32.4169 72.9139 32.7533 72.6885 33.0284C72.4631 33.3068 72.1946 33.5156 71.8831 33.6548C71.5715 33.794 71.2103 33.8636 70.7993 33.8636ZM89.8318 20.8182V31H88.4198L83.2444 23.5327H83.1499V31H81.6137V20.8182H83.0356L88.216 28.2955H88.3105V20.8182H89.8318ZM95.17 31.1541C94.4541 31.1541 93.8293 30.9901 93.2957 30.6619C92.7621 30.3338 92.3478 29.8748 92.0528 29.2848C91.7578 28.6948 91.6104 28.0054 91.6104 27.2166C91.6104 26.4245 91.7578 25.7318 92.0528 25.1385C92.3478 24.5452 92.7621 24.0845 93.2957 23.7564C93.8293 23.4283 94.4541 23.2642 95.17 23.2642C95.8859 23.2642 96.5107 23.4283 97.0443 23.7564C97.5779 24.0845 97.9922 24.5452 98.2872 25.1385C98.5822 25.7318 98.7297 26.4245 98.7297 27.2166C98.7297 28.0054 98.5822 28.6948 98.2872 29.2848C97.9922 29.8748 97.5779 30.3338 97.0443 30.6619C96.5107 30.9901 95.8859 31.1541 95.17 31.1541ZM95.175 29.9062C95.639 29.9062 96.0235 29.7836 96.3284 29.5384C96.6333 29.2931 96.8587 28.9666 97.0045 28.5589C97.1537 28.1513 97.2282 27.7022 97.2282 27.2116C97.2282 26.7244 97.1537 26.277 97.0045 25.8693C96.8587 25.4583 96.6333 25.1286 96.3284 24.88C96.0235 24.6314 95.639 24.5071 95.175 24.5071C94.7077 24.5071 94.3199 24.6314 94.0116 24.88C93.7067 25.1286 93.4797 25.4583 93.3305 25.8693C93.1847 26.277 93.1118 26.7244 93.1118 27.2116C93.1118 27.7022 93.1847 28.1513 93.3305 28.5589C93.4797 28.9666 93.7067 29.2931 94.0116 29.5384C94.3199 29.7836 94.7077 29.9062 95.175 29.9062ZM101.812 31L99.5649 23.3636H101.101L102.598 28.9716H102.672L104.174 23.3636H105.71L107.201 28.9467H107.276L108.762 23.3636H110.299L108.056 31H106.54L104.989 25.4865H104.875L103.323 31H101.812Z" fill="#6007C6"/>
</g>
<defs>
<filter id="filter0_d_169_1909" x="0" y="0" width="149" height="58" filterUnits="userSpaceOnUse" color-interpolation-filters="sRGB">
<feFlood flood-opacity="0" result="BackgroundImageFix"/>
<feColorMatrix in="SourceAlpha" type="matrix" values="0 0 0 0 0 0 0 0 0 0 0 0 0 0 0 0 0 0 127 0" result="hardAlpha"/>
<feOffset dy="4"/>
<feGaussianBlur stdDeviation="2"/>
<feComposite in2="hardAlpha" operator="out"/>
<feColorMatrix type="matrix" values="0 0 0 0 0.376471 0 0 0 0 0.027451 0 0 0 0 0.776471 0 0 0 0.25 0"/>
<feBlend mode="normal" in2="BackgroundImageFix" result="effect1_dropShadow_169_1909"/>
<feBlend mode="normal" in="SourceGraphic" in2="effect1_dropShadow_169_1909" result="shape"/>
</filter>
<filter id="filter1_d_169_1909" x="0" y="0" width="149" height="58" filterUnits="userSpaceOnUse" color-interpolation-filters="sRGB">
<feFlood flood-opacity="0" result="BackgroundImageFix"/>
<feColorMatrix in="SourceAlpha" type="matrix" values="0 0 0 0 0 0 0 0 0 0 0 0 0 0 0 0 0 0 127 0" result="hardAlpha"/>
<feOffset dy="4"/>
<feGaussianBlur stdDeviation="2"/>
<feComposite in2="hardAlpha" operator="out"/>
<feColorMatrix type="matrix" values="0 0 0 0 0 0 0 0 0 0 0 0 0 0 0 0 0 0 0.25 0"/>
<feBlend mode="normal" in2="BackgroundImageFix" result="effect1_dropShadow_169_1909"/>
<feBlend mode="normal" in="SourceGraphic" in2="effect1_dropShadow_169_1909" result="shape"/>
</filter>
</defs>
</svg>
