<svg width="149" height="58" viewBox="0 0 149 58" fill="none" xmlns="http://www.w3.org/2000/svg">
<g filter="url(#filter0_d_169_1906)">
<g filter="url(#filter1_d_169_1906)">
<rect x="4" width="141" height="50" rx="8" fill="white"/>
</g>
<path d="M41.9258 23.4929C41.8728 23.0223 41.654 22.6577 41.2695 22.3991C40.8851 22.1373 40.4012 22.0064 39.8178 22.0064C39.4002 22.0064 39.0389 22.0727 38.734 22.2053C38.4291 22.3345 38.1921 22.5135 38.0231 22.7422C37.8574 22.9676 37.7745 23.2244 37.7745 23.5128C37.7745 23.7547 37.8308 23.9635 37.9435 24.1392C38.0595 24.3149 38.2103 24.4624 38.396 24.5817C38.5849 24.6977 38.7871 24.7955 39.0025 24.875C39.2179 24.9512 39.4251 25.0142 39.6239 25.0639L40.6183 25.3224C40.9431 25.402 41.2762 25.5097 41.6175 25.6456C41.9589 25.7815 42.2755 25.9605 42.5671 26.1825C42.8588 26.4046 43.0941 26.6797 43.2731 27.0078C43.4554 27.3359 43.5465 27.7287 43.5465 28.1861C43.5465 28.7628 43.3974 29.2749 43.0991 29.7223C42.8041 30.1697 42.3749 30.5227 41.8114 30.7812C41.2513 31.0398 40.5735 31.169 39.7781 31.169C39.0157 31.169 38.3562 31.0481 37.7994 30.8061C37.2425 30.5642 36.8067 30.2211 36.4918 29.777C36.177 29.3295 36.003 28.7992 35.9698 28.1861H37.511C37.5408 28.554 37.6602 28.8606 37.869 29.1058C38.0811 29.3478 38.3512 29.5284 38.6793 29.6477C39.0108 29.7637 39.3737 29.8217 39.7681 29.8217C40.2023 29.8217 40.5884 29.7538 40.9265 29.6179C41.2679 29.4787 41.5363 29.2865 41.7319 29.0412C41.9274 28.7926 42.0252 28.5026 42.0252 28.1712C42.0252 27.8696 41.939 27.6226 41.7667 27.4304C41.5977 27.2382 41.3673 27.0791 41.0756 26.9531C40.7873 26.8272 40.4608 26.7161 40.0962 26.62L38.8931 26.2919C38.0778 26.0698 37.4315 25.7434 36.9542 25.3125C36.4802 24.8816 36.2433 24.3116 36.2433 23.6023C36.2433 23.0156 36.4023 22.5036 36.7205 22.0661C37.0387 21.6286 37.4696 21.2888 38.0131 21.0469C38.5567 20.8016 39.1699 20.679 39.8526 20.679C40.542 20.679 41.1502 20.8 41.6772 21.0419C42.2075 21.2839 42.6251 21.617 42.93 22.0412C43.235 22.4621 43.3941 22.946 43.4073 23.4929H41.9258ZM47.4853 31.169C47.0014 31.169 46.5639 31.0795 46.1728 30.9006C45.7817 30.7183 45.4718 30.4548 45.2431 30.1101C45.0177 29.7654 44.905 29.3428 44.905 28.8423C44.905 28.4115 44.9879 28.0568 45.1536 27.7784C45.3193 27.5 45.543 27.2796 45.8248 27.1172C46.1065 26.9548 46.4213 26.8321 46.7694 26.7493C47.1174 26.6664 47.472 26.6035 47.8333 26.5604C48.2907 26.5073 48.6619 26.4643 48.9469 26.4311C49.2319 26.3946 49.4391 26.3366 49.5684 26.2571C49.6976 26.1776 49.7623 26.0483 49.7623 25.8693V25.8345C49.7623 25.4003 49.6396 25.0639 49.3944 24.8253C49.1524 24.5866 48.7911 24.4673 48.3105 24.4673C47.8101 24.4673 47.4157 24.5784 47.1273 24.8004C46.8423 25.0192 46.6451 25.2628 46.5357 25.5312L45.1387 25.2131C45.3044 24.7491 45.5463 24.3745 45.8645 24.0895C46.186 23.8011 46.5556 23.5923 46.9732 23.4631C47.3908 23.3305 47.83 23.2642 48.2907 23.2642C48.5956 23.2642 48.9187 23.3007 49.2601 23.3736C49.6048 23.4432 49.9263 23.5724 50.2246 23.7614C50.5262 23.9503 50.7731 24.2204 50.9654 24.5717C51.1576 24.9197 51.2537 25.3722 51.2537 25.929V31H49.802V29.956H49.7424C49.6462 30.1482 49.5021 30.3371 49.3098 30.5227C49.1176 30.7083 48.8707 30.8625 48.5691 30.9851C48.2675 31.1077 47.9062 31.169 47.4853 31.169ZM47.8084 29.9759C48.2194 29.9759 48.5707 29.8946 48.8624 29.7322C49.1574 29.5698 49.3811 29.3577 49.5336 29.0959C49.6893 28.8307 49.7672 28.5473 49.7672 28.2457V27.2614C49.7142 27.3144 49.6114 27.3641 49.459 27.4105C49.3098 27.4536 49.1391 27.4917 48.9469 27.5249C48.7547 27.5547 48.5674 27.5829 48.3851 27.6094C48.2028 27.6326 48.0504 27.6525 47.9277 27.669C47.6394 27.7055 47.3759 27.7668 47.1373 27.853C46.9019 27.9392 46.713 28.0634 46.5705 28.2259C46.4313 28.3849 46.3617 28.5971 46.3617 28.8622C46.3617 29.2301 46.4976 29.5085 46.7694 29.6974C47.0411 29.883 47.3875 29.9759 47.8084 29.9759ZM59.4929 23.3636L56.7237 31H55.1328L52.3587 23.3636H53.9545L55.8885 29.2401H55.968L57.897 23.3636H59.4929ZM63.9213 31.1541C63.169 31.1541 62.521 30.9934 61.9775 30.6719C61.4372 30.3471 61.0196 29.8913 60.7246 29.3047C60.4329 28.7147 60.2871 28.0237 60.2871 27.2315C60.2871 26.4493 60.4329 25.7599 60.7246 25.1634C61.0196 24.5668 61.4306 24.1011 61.9576 23.7663C62.4879 23.4316 63.1077 23.2642 63.8169 23.2642C64.2478 23.2642 64.6654 23.3355 65.0698 23.478C65.4741 23.6205 65.8371 23.8442 66.1586 24.1491C66.4801 24.4541 66.7336 24.8501 66.9192 25.3374C67.1048 25.8213 67.1976 26.4096 67.1976 27.1023V27.6293H61.1273V26.5156H65.7409C65.7409 26.1245 65.6614 25.7782 65.5023 25.4766C65.3432 25.1716 65.1195 24.9313 64.8311 24.7557C64.5461 24.58 64.2114 24.4922 63.8269 24.4922C63.4093 24.4922 63.0447 24.5949 62.7331 24.8004C62.4249 25.0026 62.1863 25.2678 62.0172 25.5959C61.8515 25.9207 61.7686 26.2737 61.7686 26.6548V27.5249C61.7686 28.0353 61.8581 28.4695 62.0371 28.8274C62.2194 29.1854 62.473 29.4588 62.7978 29.6477C63.1226 29.8333 63.5021 29.9261 63.9363 29.9261C64.218 29.9261 64.4748 29.8864 64.7069 29.8068C64.9389 29.724 65.1394 29.6013 65.3084 29.4389C65.4775 29.2765 65.6067 29.076 65.6962 28.8374L67.1032 29.0909C66.9905 29.5052 66.7883 29.8681 66.4966 30.1797C66.2083 30.4879 65.8453 30.7282 65.4078 30.9006C64.9737 31.0696 64.4782 31.1541 63.9213 31.1541ZM71.7056 31.1491C71.0891 31.1491 70.5389 30.9917 70.055 30.6768C69.5745 30.3587 69.1966 29.9062 68.9215 29.3196C68.6497 28.7296 68.5138 28.022 68.5138 27.1967C68.5138 26.3714 68.6514 25.6655 68.9265 25.0788C69.2049 24.4922 69.5861 24.0431 70.07 23.7315C70.5539 23.42 71.1024 23.2642 71.7156 23.2642C72.1895 23.2642 72.5707 23.3438 72.859 23.5028C73.1507 23.6586 73.3761 23.8409 73.5352 24.0497C73.6976 24.2585 73.8235 24.4425 73.913 24.6016H74.0025V20.8182H75.489V31H74.0373V29.8118H73.913C73.8235 29.9742 73.6942 30.1598 73.5252 30.3686C73.3595 30.5774 73.1308 30.7597 72.8391 30.9155C72.5475 31.0713 72.1696 31.1491 71.7056 31.1491ZM72.0337 29.8814C72.4613 29.8814 72.8226 29.7687 73.1175 29.5433C73.4158 29.3146 73.6412 28.9981 73.7937 28.5938C73.9495 28.1894 74.0273 27.7187 74.0273 27.1818C74.0273 26.6515 73.9511 26.1875 73.7987 25.7898C73.6462 25.392 73.4225 25.0821 73.1275 24.8601C72.8325 24.638 72.4679 24.527 72.0337 24.527C71.5863 24.527 71.2134 24.643 70.9151 24.875C70.6168 25.107 70.3915 25.4235 70.239 25.8246C70.0898 26.2256 70.0153 26.678 70.0153 27.1818C70.0153 27.6922 70.0915 28.1513 70.244 28.5589C70.3964 28.9666 70.6218 29.2898 70.9201 29.5284C71.2217 29.7637 71.5929 29.8814 72.0337 29.8814ZM85.3924 20.8182H86.9237V28.0369C86.9237 28.6899 86.7944 29.2483 86.5359 29.7124C86.2807 30.1764 85.921 30.531 85.457 30.7763C84.993 31.0182 84.4495 31.1392 83.8263 31.1392C83.253 31.1392 82.7376 31.0348 82.2802 30.826C81.8261 30.6172 81.4665 30.3139 81.2013 29.9162C80.9395 29.5152 80.8086 29.0279 80.8086 28.4545H82.3349C82.3349 28.7363 82.3995 28.9799 82.5288 29.1854C82.6613 29.3909 82.842 29.5516 83.0707 29.6676C83.3027 29.7803 83.5678 29.8366 83.8661 29.8366C84.1909 29.8366 84.466 29.7687 84.6914 29.6328C84.9201 29.4936 85.0941 29.2898 85.2134 29.0213C85.3327 28.7528 85.3924 28.4247 85.3924 28.0369V20.8182ZM92.2569 31.1541C91.541 31.1541 90.9163 30.9901 90.3826 30.6619C89.849 30.3338 89.4347 29.8748 89.1397 29.2848C88.8448 28.6948 88.6973 28.0054 88.6973 27.2166C88.6973 26.4245 88.8448 25.7318 89.1397 25.1385C89.4347 24.5452 89.849 24.0845 90.3826 23.7564C90.9163 23.4283 91.541 23.2642 92.2569 23.2642C92.9728 23.2642 93.5976 23.4283 94.1312 23.7564C94.6648 24.0845 95.0791 24.5452 95.3741 25.1385C95.6691 25.7318 95.8166 26.4245 95.8166 27.2166C95.8166 28.0054 95.6691 28.6948 95.3741 29.2848C95.0791 29.8748 94.6648 30.3338 94.1312 30.6619C93.5976 30.9901 92.9728 31.1541 92.2569 31.1541ZM92.2619 29.9062C92.7259 29.9062 93.1104 29.7836 93.4153 29.5384C93.7202 29.2931 93.9456 28.9666 94.0914 28.5589C94.2406 28.1513 94.3152 27.7022 94.3152 27.2116C94.3152 26.7244 94.2406 26.277 94.0914 25.8693C93.9456 25.4583 93.7202 25.1286 93.4153 24.88C93.1104 24.6314 92.7259 24.5071 92.2619 24.5071C91.7946 24.5071 91.4068 24.6314 91.0985 24.88C90.7936 25.1286 90.5666 25.4583 90.4174 25.8693C90.2716 26.277 90.1987 26.7244 90.1987 27.2116C90.1987 27.7022 90.2716 28.1513 90.4174 28.5589C90.5666 28.9666 90.7936 29.2931 91.0985 29.5384C91.4068 29.7836 91.7946 29.9062 92.2619 29.9062ZM97.5952 31V20.8182H99.0817V24.6016H99.1712C99.2573 24.4425 99.3816 24.2585 99.544 24.0497C99.7064 23.8409 99.9318 23.6586 100.22 23.5028C100.509 23.3438 100.89 23.2642 101.364 23.2642C101.98 23.2642 102.53 23.42 103.014 23.7315C103.498 24.0431 103.878 24.4922 104.153 25.0788C104.431 25.6655 104.57 26.3714 104.57 27.1967C104.57 28.022 104.433 28.7296 104.158 29.3196C103.883 29.9062 103.505 30.3587 103.024 30.6768C102.544 30.9917 101.995 31.1491 101.379 31.1491C100.915 31.1491 100.535 31.0713 100.24 30.9155C99.9484 30.7597 99.7197 30.5774 99.554 30.3686C99.3883 30.1598 99.2607 29.9742 99.1712 29.8118H99.0469V31H97.5952ZM99.0518 27.1818C99.0518 27.7187 99.1297 28.1894 99.2855 28.5938C99.4413 28.9981 99.6667 29.3146 99.9616 29.5433C100.257 29.7687 100.618 29.8814 101.045 29.8814C101.49 29.8814 101.861 29.7637 102.159 29.5284C102.457 29.2898 102.683 28.9666 102.835 28.5589C102.991 28.1513 103.069 27.6922 103.069 27.1818C103.069 26.678 102.993 26.2256 102.84 25.8246C102.691 25.4235 102.466 25.107 102.164 24.875C101.866 24.643 101.493 24.527 101.045 24.527C100.615 24.527 100.25 24.638 99.9517 24.8601C99.6567 25.0821 99.433 25.392 99.2805 25.7898C99.1281 26.1875 99.0518 26.6515 99.0518 27.1818ZM111.962 25.228L110.615 25.4666C110.558 25.2943 110.469 25.1302 110.346 24.9744C110.227 24.8187 110.064 24.6911 109.859 24.5916C109.653 24.4922 109.396 24.4425 109.088 24.4425C108.667 24.4425 108.316 24.5369 108.034 24.7259C107.753 24.9115 107.612 25.1518 107.612 25.4467C107.612 25.7019 107.706 25.9074 107.895 26.0632C108.084 26.219 108.389 26.3466 108.81 26.446L110.023 26.7244C110.726 26.8868 111.249 27.1371 111.594 27.4751C111.939 27.8132 112.111 28.2524 112.111 28.7926C112.111 29.25 111.978 29.6577 111.713 30.0156C111.451 30.3703 111.085 30.6487 110.615 30.8509C110.147 31.053 109.605 31.1541 108.989 31.1541C108.134 31.1541 107.436 30.9718 106.896 30.6072C106.356 30.2393 106.024 29.7173 105.901 29.0412L107.338 28.8224C107.428 29.197 107.612 29.4804 107.89 29.6726C108.169 29.8615 108.531 29.956 108.979 29.956C109.466 29.956 109.856 29.8549 110.147 29.6527C110.439 29.4472 110.585 29.197 110.585 28.902C110.585 28.6634 110.495 28.4628 110.316 28.3004C110.141 28.138 109.87 28.0154 109.506 27.9325L108.213 27.6491C107.501 27.4867 106.974 27.2282 106.632 26.8736C106.294 26.5189 106.125 26.0698 106.125 25.5263C106.125 25.0755 106.251 24.6811 106.503 24.343C106.755 24.005 107.103 23.7415 107.547 23.5526C107.991 23.3603 108.5 23.2642 109.073 23.2642C109.899 23.2642 110.548 23.4432 111.022 23.8011C111.496 24.1558 111.809 24.6314 111.962 25.228Z" fill="#6007C6"/>
</g>
<defs>
<filter id="filter0_d_169_1906" x="0" y="0" width="149" height="58" filterUnits="userSpaceOnUse" color-interpolation-filters="sRGB">
<feFlood flood-opacity="0" result="BackgroundImageFix"/>
<feColorMatrix in="SourceAlpha" type="matrix" values="0 0 0 0 0 0 0 0 0 0 0 0 0 0 0 0 0 0 127 0" result="hardAlpha"/>
<feOffset dy="4"/>
<feGaussianBlur stdDeviation="2"/>
<feComposite in2="hardAlpha" operator="out"/>
<feColorMatrix type="matrix" values="0 0 0 0 0.376471 0 0 0 0 0.027451 0 0 0 0 0.776471 0 0 0 0.25 0"/>
<feBlend mode="normal" in2="BackgroundImageFix" result="effect1_dropShadow_169_1906"/>
<feBlend mode="normal" in="SourceGraphic" in2="effect1_dropShadow_169_1906" result="shape"/>
</filter>
<filter id="filter1_d_169_1906" x="0" y="0" width="149" height="58" filterUnits="userSpaceOnUse" color-interpolation-filters="sRGB">
<feFlood flood-opacity="0" result="BackgroundImageFix"/>
<feColorMatrix in="SourceAlpha" type="matrix" values="0 0 0 0 0 0 0 0 0 0 0 0 0 0 0 0 0 0 127 0" result="hardAlpha"/>
<feOffset dy="4"/>
<feGaussianBlur stdDeviation="2"/>
<feComposite in2="hardAlpha" operator="out"/>
<feColorMatrix type="matrix" values="0 0 0 0 0 0 0 0 0 0 0 0 0 0 0 0 0 0 0.25 0"/>
<feBlend mode="normal" in2="BackgroundImageFix" result="effect1_dropShadow_169_1906"/>
<feBlend mode="normal" in="SourceGraphic" in2="effect1_dropShadow_169_1906" result="shape"/>
</filter>
</defs>
</svg>
