<?xml version="1.0" standalone="no"?>
<!DOCTYPE svg PUBLIC "-//W3C//DTD SVG 20010904//EN"
 "http://www.w3.org/TR/2001/REC-SVG-20010904/DTD/svg10.dtd">
<svg version="1.0" xmlns="http://www.w3.org/2000/svg"
 width="1019.000000pt" height="1280.000000pt" viewBox="0 0 1019.000000 1280.000000"
 preserveAspectRatio="xMidYMid meet">
<metadata>
Created by potrace 1.16, written by Peter Selinger 2001-2019
</metadata>
<g transform="translate(0.000000,1280.000000) scale(0.100000,-0.100000)"
fill="#000000" stroke="none">
<path d="M0 6400 l0 -6400 5095 0 5095 0 0 6400 0 6400 -5095 0 -5095 0 0
-6400z m6160 4260 l0 -1970 1928 -2 1927 -3 0 -1230 0 -1230 -1925 -2 -1925
-2 -3 -2703 -2 -2703 -526 -305 c-290 -168 -532 -306 -538 -308 -7 -1 -149 77
-317 175 -167 99 -404 237 -526 308 l-223 130 0 2702 0 2703 -1927 2 -1928 3
0 1230 0 1230 1928 3 1927 2 0 1970 0 1970 1065 0 1065 0 0 -1970z m1444 1595
c40 -43 58 -132 32 -155 -24 -19 -40 -78 -26 -95 17 -21 27 -11 23 22 -4 22 4
38 31 68 20 21 37 46 38 54 1 9 4 -20 7 -64 6 -77 7 -80 32 -83 21 -2 34 6 62
38 l35 41 7 -31 c11 -48 -4 -121 -32 -162 l-25 -37 47 -53 c26 -29 55 -68 63
-86 9 -18 26 -35 39 -38 13 -4 23 -9 23 -13 0 -4 -23 -29 -50 -56 l-50 -49
-31 37 c-20 24 -39 37 -55 37 -22 0 -23 3 -14 20 12 22 49 27 67 9 6 -6 16 -8
22 -5 13 8 -10 58 -42 93 -28 31 -42 18 -16 -15 20 -26 20 -27 2 -30 -28 -6
-63 -43 -63 -69 0 -18 5 -23 25 -23 14 0 37 -11 51 -25 21 -21 24 -33 22 -72
-3 -43 -1 -48 26 -61 21 -11 34 -12 52 -3 21 9 24 8 24 -8 0 -23 -37 -71 -55
-71 -26 0 -29 -23 -5 -42 34 -28 65 -22 111 19 l42 38 -22 -42 c-30 -60 -58
-83 -101 -83 -34 0 -38 4 -88 85 -28 47 -52 90 -52 95 0 6 9 10 19 10 10 0 22
7 25 16 7 19 -17 62 -40 71 -25 9 -29 -6 -6 -27 28 -26 28 -38 0 -42 -33 -5
-33 -30 2 -84 l31 -49 -33 -8 c-34 -9 -68 -33 -68 -49 0 -13 27 -9 40 7 7 8
27 15 46 15 46 0 71 -39 64 -99 l-5 -44 -31 26 c-51 43 -58 37 -51 -40 11
-112 56 -146 138 -104 l39 21 0 -27 c0 -28 -39 -87 -70 -103 -14 -7 -30 -4
-69 16 -46 24 -51 30 -51 60 0 19 -4 34 -10 34 -5 0 -10 -19 -10 -43 0 -43 1
-44 51 -67 66 -31 85 -57 94 -125 9 -75 -7 -120 -47 -134 -45 -16 -48 -14 -37
18 20 57 -28 151 -77 151 -7 0 -18 23 -25 56 -10 45 -10 67 0 113 21 94 26
154 11 149 -7 -2 -14 -19 -16 -38 -2 -19 -11 -66 -19 -103 -15 -64 -14 -73 5
-156 14 -58 20 -113 18 -162 -3 -67 -5 -74 -24 -77 -19 -3 -22 3 -26 49 -4 39
-11 56 -31 73 -47 38 -51 69 -17 130 29 52 40 106 20 106 -5 0 -10 -8 -10 -17
0 -10 -13 -43 -30 -73 -35 -65 -37 -94 -10 -138 22 -36 26 -73 10 -103 -19
-34 -30 -20 -30 36 0 34 -6 65 -16 80 -10 16 -14 34 -10 51 5 19 3 25 -6 22
-17 -6 -31 -108 -24 -175 7 -58 -7 -79 -26 -39 -15 35 -26 33 -33 -8 -12 -62
15 -110 67 -121 26 -6 28 -9 16 -21 -7 -7 -27 -16 -44 -20 -24 -4 -37 0 -63
21 -47 40 -61 75 -61 153 l0 68 70 76 c66 71 82 98 61 98 -5 0 -39 -35 -76
-77 -38 -43 -79 -86 -91 -96 l-24 -18 0 28 c0 37 16 56 62 78 49 22 74 65 87
145 13 78 14 180 3 180 -5 0 -14 -51 -21 -112 -14 -132 -29 -164 -91 -195 -24
-13 -48 -30 -53 -38 -4 -8 -19 -15 -32 -15 -29 0 -55 -34 -55 -72 0 -35 -13
-36 -28 -3 -29 63 -4 121 56 130 65 10 115 29 144 53 52 44 31 57 -28 17 -48
-32 -94 -33 -131 0 l-28 24 25 1 c44 0 99 20 130 47 27 22 31 32 29 67 -5 86
-2 96 39 114 l37 16 -28 4 c-37 4 -65 -20 -73 -65 -3 -18 -15 -38 -25 -43 -27
-15 -29 -12 -19 16 6 14 10 44 10 67 0 38 6 48 55 97 30 30 55 59 55 64 0 16
-42 56 -60 56 -9 0 -21 -5 -28 -12 -27 -27 -11 22 18 55 36 41 37 53 9 83
l-21 23 21 27 c15 19 21 41 21 75 0 42 -4 51 -36 77 -31 26 -34 32 -25 51 7
12 23 28 36 37 28 18 33 34 11 34 -19 0 -86 -76 -86 -98 0 -9 15 -24 33 -33
21 -10 33 -24 35 -41 3 -22 -1 -26 -37 -32 -38 -6 -60 -21 -48 -33 3 -3 22 0
42 7 41 14 55 7 37 -18 -36 -50 -37 -62 -8 -85 l28 -23 -36 -43 c-37 -44 -43
-65 -26 -91 8 -12 13 -13 30 -2 11 6 26 12 34 12 33 0 26 -25 -23 -74 -47 -48
-51 -56 -57 -114 -5 -43 -10 -59 -18 -53 -6 4 -24 11 -41 15 -70 17 -135 102
-135 178 l0 36 35 -35 c32 -32 40 -35 76 -30 44 6 79 31 79 55 0 9 -24 38 -52
65 -47 43 -50 48 -25 41 39 -9 67 18 67 66 0 45 -15 61 -51 53 -23 -4 -30 -1
-40 20 -10 23 -8 31 25 75 24 34 38 65 43 98 5 38 15 58 50 95 l43 46 -25 61
c-14 34 -25 79 -25 99 l1 38 16 -30 c25 -48 44 -65 74 -65 37 0 56 30 64 100
9 73 24 130 34 130 5 0 21 -16 35 -35 26 -34 27 -36 12 -85 -14 -46 -13 -51 4
-72 10 -13 22 -20 26 -16 4 4 1 14 -6 23 -17 20 5 102 31 116 26 14 34 69 15
114 -9 20 -16 41 -16 46 0 18 31 8 54 -16z m-5715 -51 c50 -35 66 -127 31
-179 -31 -46 -23 -110 11 -89 7 4 7 10 1 16 -14 14 2 53 38 95 17 19 31 39 32
46 1 7 4 -24 7 -68 6 -76 7 -80 31 -84 19 -2 33 7 61 39 l36 42 7 -35 c8 -44
-9 -124 -34 -159 -11 -15 -20 -32 -20 -39 0 -6 25 -38 55 -71 30 -32 55 -66
55 -74 0 -8 15 -21 32 -29 l33 -13 -53 -53 -53 -52 -33 36 c-19 20 -43 37 -55
37 -25 0 -27 12 -5 31 12 10 22 10 47 1 37 -14 40 -12 31 22 -8 34 -65 96 -72
78 -2 -7 5 -24 17 -36 22 -23 28 -42 11 -31 -18 11 -50 -6 -65 -35 -21 -41
-19 -50 14 -50 45 0 83 -50 75 -99 -4 -27 -2 -40 10 -50 18 -15 53 -18 80 -6
17 7 18 5 12 -21 -8 -32 -33 -64 -48 -61 -5 1 -15 -6 -21 -15 -15 -23 -1 -37
45 -44 29 -5 41 -1 71 26 46 40 48 25 4 -32 -30 -39 -37 -43 -76 -43 l-43 0
-53 87 -54 87 26 13 c15 7 28 18 30 24 5 15 -43 64 -63 64 -15 0 -13 -5 9 -28
32 -33 34 -42 7 -42 -38 0 -40 -30 -4 -87 l35 -53 -25 0 c-27 0 -85 -44 -74
-55 4 -4 17 0 30 9 35 25 83 21 102 -9 16 -25 23 -115 8 -115 -5 0 -19 11 -32
25 -38 41 -50 33 -50 -34 0 -44 6 -66 23 -92 28 -42 61 -48 116 -19 l41 20 0
-25 c0 -17 -15 -42 -43 -72 l-43 -45 -52 26 c-48 24 -52 29 -52 61 0 19 -4 35
-10 35 -5 0 -10 -20 -10 -44 0 -43 1 -44 56 -72 69 -35 84 -62 84 -152 0 -75
-11 -95 -61 -107 -26 -6 -26 -6 -21 43 5 62 -17 108 -62 127 -27 12 -34 21
-44 64 -10 44 -9 63 8 134 24 99 25 127 5 127 -10 0 -15 -10 -15 -27 0 -15 -8
-62 -17 -105 -16 -76 -16 -81 5 -172 21 -92 28 -188 16 -220 -3 -9 -15 -16
-25 -16 -14 0 -19 7 -19 29 0 41 -20 91 -36 91 -8 0 -22 16 -31 35 -17 35 -16
36 15 98 32 61 41 107 22 107 -5 0 -13 -12 -16 -27 -4 -16 -19 -52 -35 -81
-29 -56 -28 -95 6 -132 18 -20 19 -50 3 -85 -18 -39 -28 -30 -28 25 0 28 -7
65 -16 82 -9 17 -14 41 -11 54 3 16 0 24 -9 24 -14 0 -22 -25 -23 -70 0 -14 0
-47 -1 -73 -1 -26 2 -56 5 -66 9 -30 -14 -35 -27 -7 -20 46 -38 32 -38 -29 0
-61 18 -89 65 -101 33 -8 27 -26 -13 -38 -24 -7 -38 -4 -64 11 -46 27 -68 71
-74 150 l-6 68 77 88 c43 48 74 91 70 95 -4 4 -49 -38 -100 -93 -51 -55 -97
-97 -101 -93 -4 4 -3 22 2 40 7 23 23 40 54 58 25 15 55 40 66 58 32 47 60
272 34 272 -13 0 -18 -26 -24 -129 -7 -109 -27 -149 -90 -179 -26 -13 -49 -29
-53 -37 -3 -8 -14 -15 -26 -15 -27 0 -57 -28 -57 -54 0 -12 -4 -27 -9 -35 -13
-20 -31 18 -31 67 0 49 24 72 82 79 71 9 174 70 154 90 -4 4 -17 1 -29 -7 -63
-40 -88 -49 -117 -39 -15 6 -35 18 -44 28 -15 16 -12 18 42 29 31 7 70 23 87
36 27 21 29 29 30 89 1 69 15 97 46 97 11 0 19 5 19 10 0 6 -9 10 -21 10 -38
0 -59 -19 -65 -61 -4 -25 -14 -44 -26 -50 -26 -14 -28 -10 -18 36 5 22 10 54
10 70 0 24 13 43 54 84 45 44 53 58 45 72 -16 30 -48 43 -75 30 -34 -15 -30 2
11 48 42 46 44 63 8 90 l-26 21 21 23 c17 18 22 36 22 80 0 54 -2 57 -37 81
l-37 25 43 41 c24 23 40 44 37 47 -11 12 -55 -20 -83 -60 -26 -38 -27 -41 -9
-51 72 -43 90 -86 37 -86 -16 0 -39 -9 -52 -21 l-24 -20 28 5 c15 3 38 9 52
12 33 8 32 -9 -1 -48 l-25 -31 26 -27 c29 -31 26 -48 -14 -84 -22 -20 -28 -70
-10 -82 6 -3 22 -1 35 6 19 11 26 11 39 0 14 -12 10 -19 -36 -66 -48 -49 -53
-57 -57 -109 -2 -30 -8 -58 -13 -61 -5 -3 -9 0 -9 5 0 6 -10 11 -22 11 -64 0
-139 84 -145 163 l-4 52 21 -27 c26 -33 78 -45 120 -28 61 25 57 59 -14 121
-38 34 -39 37 -14 32 18 -3 32 1 47 16 41 41 17 118 -34 105 -16 -4 -27 0 -38
17 -15 21 -14 25 24 77 21 30 39 66 39 79 0 39 29 95 63 124 l31 26 -28 87
c-21 62 -26 90 -18 98 7 7 15 1 28 -23 20 -41 31 -49 65 -49 39 0 50 20 65
120 18 126 26 134 66 73 24 -36 24 -40 10 -81 -16 -49 -5 -92 23 -92 18 0 19
12 4 27 -17 17 -2 77 26 112 29 33 33 91 10 131 -8 14 -14 28 -15 33 0 12 24
8 49 -9z m6579 -225 c109 -53 110 -185 3 -282 -22 -20 -57 -41 -79 -47 -34
-11 -43 -10 -78 9 -21 12 -51 31 -66 43 -24 18 -31 20 -53 10 -48 -22 -87
-154 -50 -168 9 -4 27 6 45 26 38 41 53 32 34 -22 -7 -22 -14 -49 -14 -60 0
-34 27 -73 69 -96 75 -42 155 -52 439 -52 l262 0 22 45 c23 47 44 61 78 50 20
-6 20 -6 0 -45 -11 -22 -20 -57 -20 -78 0 -40 18 -70 118 -192 30 -37 42 -61
42 -83 0 -41 -44 -116 -110 -190 l-53 -58 29 -57 c50 -98 34 -234 -49 -415
-23 -52 -28 -73 -20 -85 5 -10 52 -50 104 -90 128 -99 167 -140 175 -182 l7
-35 -26 23 c-17 16 -34 22 -53 20 -25 -3 -29 -8 -32 -38 -3 -46 29 -97 73
-116 31 -12 34 -17 25 -34 -17 -31 -27 -32 -95 -5 -78 32 -99 30 -103 -9 -5
-41 4 -70 34 -105 24 -29 25 -31 5 -31 -11 0 -36 11 -56 24 -55 38 -69 26 -62
-51 4 -34 4 -63 1 -63 -2 0 -13 6 -24 12 -15 10 -24 10 -38 2 -14 -9 -16 -23
-13 -78 2 -53 0 -66 -12 -66 -18 0 -27 21 -27 60 0 16 -4 32 -10 35 -17 10
-22 -41 -7 -76 20 -49 6 -75 -45 -83 -23 -4 -43 -4 -47 -1 -3 4 2 20 12 37 13
23 15 34 7 42 -13 13 -46 -24 -56 -61 -7 -26 -10 -27 -42 -10 -23 13 -23 13
27 61 28 26 51 51 51 56 0 26 -26 16 -74 -30 l-54 -51 -16 32 c-19 38 -16 41
42 58 25 7 42 18 42 26 0 19 -14 19 -73 1 l-47 -14 0 30 0 31 65 -7 c104 -11
127 12 155 153 22 108 39 132 142 208 43 32 78 64 78 71 0 24 -32 25 -84 3
-55 -23 -144 -28 -177 -11 -23 13 -54 72 -70 134 -12 49 -31 59 -51 26 -15
-24 -28 -26 -28 -5 0 18 -36 20 -44 3 -3 -7 -3 17 0 54 6 60 4 68 -15 80 -13
8 -21 23 -21 41 0 15 -12 46 -27 69 -23 33 -28 55 -31 114 -4 65 -1 79 22 118
14 24 47 62 72 84 27 23 42 42 36 46 -13 8 -85 -54 -124 -108 -15 -21 -28 -51
-28 -67 0 -22 -10 -33 -52 -59 -84 -51 -128 -98 -128 -137 0 -20 -5 -33 -13
-33 -7 0 -63 -35 -125 -79 -153 -108 -191 -125 -277 -125 -38 -1 -103 5 -142
12 l-73 14 0 52 c0 48 -14 145 -26 189 -9 31 -27 19 -21 -15 3 -18 11 -75 18
-126 10 -80 9 -96 -5 -126 -9 -19 -16 -46 -16 -60 0 -32 -6 -33 -31 -3 -13 16
-18 38 -19 85 0 46 -3 63 -12 60 -8 -3 -14 -29 -16 -69 -2 -35 -7 -68 -13 -73
-5 -6 -9 -28 -9 -50 l0 -40 -29 28 c-16 15 -34 48 -41 72 -16 54 -36 60 -25 7
4 -21 6 -45 6 -53 -1 -8 -4 -50 -7 -92 -3 -43 -9 -78 -13 -78 -4 0 -16 7 -27
15 -10 8 -27 15 -36 15 -15 0 -18 10 -18 59 0 101 -17 77 -22 -32 -4 -74 -2
-111 8 -136 8 -18 14 -35 14 -37 0 -2 -18 3 -41 11 -22 8 -46 14 -52 12 -8 -1
-14 21 -17 63 -6 63 -13 65 -23 6 -7 -43 18 -134 44 -162 l22 -24 -21 0 c-21
0 -47 41 -66 103 -3 9 -11 17 -17 17 -15 0 -5 -41 26 -105 29 -60 25 -101 -7
-84 -37 20 -49 4 -42 -51 6 -48 6 -50 -17 -50 -14 0 -34 -7 -46 -15 -18 -13
-22 -12 -38 5 -16 17 -16 23 -4 51 7 18 28 54 47 82 26 37 31 52 22 61 -16 15
-52 -29 -93 -116 -18 -37 -37 -68 -44 -68 -6 0 -20 -10 -30 -23 l-18 -23 -42
18 c-29 13 -43 25 -43 38 0 20 64 80 123 113 38 21 44 31 27 42 -12 8 -55 -15
-114 -60 -25 -19 -48 -35 -51 -35 -3 0 -5 13 -5 29 0 15 -10 41 -22 56 -36 47
-18 59 98 65 79 4 99 8 99 20 0 12 -17 15 -93 15 -78 0 -91 2 -86 15 3 8 8 30
11 49 l6 33 95 -7 94 -7 62 64 c50 51 75 89 129 198 69 139 137 326 137 375 0
26 1 27 18 12 53 -48 111 -50 160 -5 33 32 29 58 -9 58 -43 0 -69 17 -69 45 0
18 4 23 16 18 8 -3 25 -1 37 5 12 6 31 12 42 14 11 2 31 21 45 42 l25 39 3
-42 c3 -45 17 -57 56 -47 36 9 50 54 43 142 -6 61 -4 74 8 74 17 0 45 -50 45
-81 0 -13 -5 -37 -12 -56 -6 -18 -9 -35 -6 -38 3 -3 28 0 56 6 73 15 92 42 92
131 0 41 -6 80 -14 97 -14 27 -14 29 29 71 l44 43 116 -27 c65 -16 146 -43
186 -63 l71 -35 84 41 c176 88 351 104 513 47 134 -47 181 -30 181 64 0 85
-45 125 -90 80 l-20 -20 -9 22 c-10 27 9 72 39 91 31 19 25 46 -15 63 -84 35
-250 28 -519 -22 -76 -14 -148 -23 -160 -20 -30 7 -121 87 -183 160 -43 50
-53 68 -53 99 0 51 -25 108 -50 114 -11 3 -23 17 -26 30 -13 49 14 102 95 186
97 102 111 123 111 164 0 36 2 38 30 23 30 -16 42 -48 50 -128 4 -42 13 -78
20 -82 19 -12 69 9 86 35 24 37 29 91 10 120 -54 83 -51 75 -20 75 15 0 48
-10 72 -21z m-5698 -64 c96 -50 104 -162 20 -258 -45 -51 -114 -83 -152 -72
-12 4 -44 23 -69 41 -26 19 -53 34 -61 34 -32 0 -78 -80 -78 -135 0 -49 20
-53 60 -13 37 37 49 28 31 -24 -26 -75 -7 -124 61 -159 78 -40 157 -49 431
-49 l258 0 17 32 c26 47 51 70 75 66 25 -3 25 -14 2 -78 -23 -62 -10 -98 65
-185 34 -38 68 -83 76 -98 28 -51 1 -114 -98 -228 -26 -31 -48 -61 -48 -65 0
-5 11 -31 25 -58 45 -89 32 -218 -40 -386 -19 -45 -35 -89 -35 -99 0 -10 48
-54 115 -105 130 -99 165 -136 165 -172 0 -24 -1 -24 -22 -10 -30 21 -65 20
-77 -3 -21 -39 24 -121 77 -142 27 -11 29 -35 2 -49 -16 -9 -33 -5 -79 15 -80
36 -95 32 -99 -26 -2 -38 2 -52 23 -77 14 -16 25 -33 25 -36 0 -14 -39 -4 -69
18 -32 24 -60 25 -62 2 -1 -6 0 -35 1 -64 2 -52 1 -53 -19 -42 -12 6 -31 8
-43 4 -19 -6 -20 -11 -14 -75 5 -58 4 -69 -9 -69 -17 0 -37 43 -33 69 1 9 -2
17 -7 19 -15 4 -18 -46 -5 -78 19 -46 6 -67 -46 -75 -25 -3 -47 -5 -49 -3 -2
2 3 18 12 36 12 24 13 36 5 44 -8 8 -16 1 -31 -23 -12 -19 -21 -40 -21 -46 0
-7 -3 -13 -6 -13 -6 0 -46 20 -54 27 -3 3 20 27 50 53 40 36 52 52 44 60 -8 8
-27 -3 -73 -40 -37 -31 -61 -46 -61 -37 0 8 -7 20 -15 27 -22 18 -4 35 50 49
44 11 58 27 32 37 -7 2 -34 -2 -60 -10 l-47 -14 0 30 0 30 68 -7 c67 -6 67 -6
100 28 28 29 35 47 47 116 8 44 22 95 30 111 9 17 56 63 106 102 49 39 88 76
86 82 -6 19 -37 18 -87 -3 -70 -30 -159 -29 -189 3 -24 25 -61 114 -61 146 0
28 -25 25 -48 -5 -19 -24 -20 -25 -25 -4 -4 16 -11 20 -26 16 -20 -5 -21 -1
-21 59 0 50 -3 64 -15 64 -10 0 -15 10 -15 33 0 19 -12 50 -30 77 -27 41 -30
53 -30 126 0 73 3 85 29 121 15 21 47 55 70 75 26 22 38 39 31 43 -26 16 -144
-118 -154 -175 -5 -28 -14 -40 -43 -55 -87 -47 -150 -117 -140 -155 3 -12 0
-20 -8 -20 -7 0 -55 -30 -106 -66 -199 -141 -253 -158 -413 -130 -49 9 -90 17
-91 19 -1 1 -7 48 -13 103 -13 109 -25 154 -43 154 -6 0 -8 -7 -5 -16 14 -38
27 -160 22 -212 -7 -74 -17 -142 -22 -142 -2 0 -14 11 -28 25 -23 23 -25 32
-22 85 3 46 0 60 -10 60 -10 0 -14 -16 -14 -62 -1 -36 -7 -74 -15 -88 -8 -14
-14 -38 -15 -53 l0 -29 -25 30 c-14 17 -31 46 -38 66 -13 37 -35 47 -27 12 8
-38 -8 -230 -19 -223 -3 2 -20 10 -38 17 -31 13 -32 17 -35 75 -5 99 -23 70
-26 -42 -2 -74 1 -112 13 -139 14 -34 14 -36 -3 -28 -9 4 -34 9 -54 12 l-38 4
0 59 c0 57 -11 77 -24 43 -18 -47 4 -145 43 -186 l25 -28 -26 0 c-25 0 -44 30
-63 98 -4 12 -11 22 -17 22 -14 0 -3 -54 22 -105 18 -38 27 -95 15 -95 -3 0
-14 5 -24 12 -29 18 -53 -5 -40 -38 16 -43 11 -64 -14 -64 -12 0 -32 -7 -44
-15 -18 -13 -22 -12 -38 5 -22 24 -11 61 41 132 27 38 33 53 24 62 -15 15 -61
-39 -96 -113 -15 -30 -42 -69 -61 -87 -33 -31 -37 -32 -56 -19 -12 8 -29 15
-39 15 -13 0 -18 8 -18 30 0 26 10 37 75 82 67 47 93 78 65 78 -10 0 -80 -44
-138 -86 -21 -16 -22 -15 -22 5 0 27 -25 78 -41 83 -9 3 -8 10 2 26 13 20 22
22 112 22 88 0 98 2 95 18 -3 15 -15 17 -91 17 l-87 0 6 35 c10 65 6 62 97 55
99 -8 124 1 183 68 79 89 199 347 243 516 16 65 19 70 32 55 8 -9 29 -23 47
-31 27 -11 37 -11 66 1 37 15 72 58 61 76 -3 5 -21 10 -40 10 -24 0 -39 7 -49
22 -23 32 -20 43 12 44 66 4 96 19 119 59 l23 40 0 -41 c0 -29 5 -44 16 -48
29 -11 51 -6 70 15 16 18 19 35 17 111 -1 98 8 108 42 45 19 -35 19 -38 3 -84
-9 -26 -15 -49 -13 -52 3 -2 30 1 60 8 75 17 90 41 89 141 0 41 -6 85 -12 97
-10 18 -7 26 30 63 l43 42 55 -12 c101 -21 224 -61 268 -87 l44 -25 86 40
c142 66 191 77 327 76 108 -1 129 -4 209 -33 75 -27 93 -30 116 -21 48 20 64
88 36 155 -17 39 -38 44 -75 19 -19 -14 -25 -14 -32 -3 -15 24 -10 38 27 79
44 48 37 62 -39 85 -89 26 -239 16 -509 -36 -60 -11 -119 -18 -131 -15 -36 9
-133 91 -192 163 -48 58 -55 72 -55 110 0 53 -22 98 -50 106 -16 4 -20 13 -20
44 0 53 22 89 118 193 67 72 84 98 90 131 l7 41 27 -22 c30 -23 48 -74 48
-136 0 -55 18 -78 51 -65 38 14 57 37 69 83 11 37 9 44 -19 90 -17 27 -31 53
-31 58 0 10 63 -6 100 -25z m4026 -612 c25 -18 41 -16 64 7 12 12 20 33 20 55
0 40 0 40 55 20 45 -16 45 -11 3 -120 -41 -103 -46 -228 -12 -285 30 -53 77
-80 138 -80 43 -1 57 -6 91 -35 22 -19 35 -35 28 -35 -6 0 -25 -12 -42 -26
-27 -23 -31 -32 -31 -78 0 -31 6 -61 16 -74 14 -21 14 -25 1 -40 -8 -9 -18
-28 -21 -42 -11 -39 -40 -100 -48 -100 -5 0 -8 14 -8 31 0 17 -5 39 -11 50
-12 24 2 46 40 60 17 7 21 13 14 20 -26 26 -103 -53 -118 -122 -10 -47 -23
-18 -26 59 -2 53 1 66 21 87 16 17 34 25 56 25 36 0 54 17 29 26 -25 10 -94
-14 -108 -37 -10 -17 -76 -55 -82 -47 -1 2 -5 20 -8 40 -7 44 26 101 61 106
30 5 28 22 -3 22 -27 0 -75 -43 -75 -67 0 -7 -9 -21 -20 -30 -11 -10 -25 -33
-31 -51 -16 -48 -26 -29 -32 59 -6 88 4 112 59 135 19 8 34 19 34 24 0 31 -93
-20 -110 -59 -9 -22 -19 -31 -36 -31 l-24 0 30 42 c47 64 37 108 -25 108 -21
0 -40 -9 -55 -25 -26 -27 -40 -25 -40 8 0 13 -7 33 -16 45 -19 28 -12 39 40
61 51 23 70 44 61 71 -8 27 -43 40 -104 40 -42 0 -49 3 -60 26 -10 23 -8 30
18 59 16 19 34 41 39 51 8 15 11 15 35 -1 45 -29 57 -15 57 69 l0 74 39 7 c22
4 46 14 53 22 11 14 14 7 19 -47 4 -45 12 -67 25 -77z m-5707 -56 c31 -38 77
-7 88 57 4 29 9 36 22 30 9 -3 30 -10 47 -15 l31 -9 -35 -88 c-29 -70 -36
-104 -40 -172 -3 -75 -1 -90 20 -129 29 -54 81 -84 147 -85 37 -1 55 -8 84
-32 l38 -31 -31 -13 c-58 -24 -76 -96 -40 -162 17 -31 17 -38 5 -48 -8 -7 -20
-31 -27 -54 -7 -22 -20 -54 -30 -71 l-18 -30 0 32 c0 17 -4 43 -10 57 -12 34
-4 55 26 62 13 3 24 12 24 20 0 17 -4 17 -38 0 -37 -19 -69 -65 -78 -110 -9
-51 -21 -34 -29 44 -6 61 -5 67 19 93 18 19 35 27 60 27 38 0 57 16 31 26 -27
11 -92 -15 -117 -45 -13 -16 -35 -31 -50 -35 -26 -6 -28 -4 -30 26 0 18 0 42
1 53 2 26 40 65 63 65 10 0 18 5 18 10 0 19 -51 10 -73 -14 -27 -29 -72 -103
-81 -133 -13 -43 -23 -23 -29 60 -7 95 4 120 59 143 41 17 46 39 7 29 -40 -10
-82 -43 -89 -71 -4 -17 -13 -24 -30 -24 -13 0 -24 2 -24 4 0 2 14 20 30 41 34
42 37 66 14 89 -23 24 -67 20 -94 -9 -29 -31 -40 -32 -40 -2 0 12 -9 36 -19
54 -22 35 -17 45 29 58 45 13 70 34 70 60 0 35 -35 55 -97 55 -46 0 -55 3 -64
23 -9 20 -5 31 27 75 38 50 38 51 65 35 47 -28 59 -13 59 71 l0 74 39 7 c22 4
46 14 53 22 11 14 14 7 18 -44 3 -33 11 -67 19 -76z m6163 -663 c11 -11 28 7
28 29 0 12 5 29 10 37 7 12 10 8 10 -15 0 -16 3 -47 6 -67 l7 -38 -32 11 c-24
8 -39 9 -57 0 -21 -9 -24 -17 -24 -61 0 -85 -41 -77 -71 12 -15 48 5 111 38
116 16 2 22 12 26 49 3 29 12 52 23 60 18 13 19 10 25 -56 3 -39 8 -73 11 -77z
m-5712 19 c0 -66 13 -98 30 -73 5 8 10 24 10 35 0 11 5 27 10 35 7 11 10 1 10
-35 0 -27 3 -60 6 -72 6 -21 4 -22 -27 -13 -45 13 -46 13 -69 -10 -14 -14 -20
-33 -20 -65 0 -61 -22 -60 -53 3 -20 39 -22 53 -15 82 12 44 26 61 47 58 12
-2 17 6 19 32 5 63 11 80 32 80 18 0 20 -7 20 -57z m6940 -147 c0 -22 -13 -53
-36 -90 -40 -61 -64 -70 -104 -38 -36 29 -20 64 51 117 74 55 89 57 89 11z
m-5707 -62 c5 -31 1 -44 -34 -90 -41 -56 -51 -61 -93 -44 -36 13 -35 58 2 92
29 27 103 78 113 78 4 0 9 -16 12 -36z m5743 -41 c10 -16 21 -50 24 -76 3 -26
10 -46 15 -45 6 2 12 -36 15 -92 4 -80 8 -95 23 -98 13 -3 17 4 17 30 l1 33
15 -27 c8 -16 17 -28 19 -28 3 0 14 14 24 31 l19 30 18 -52 c25 -69 81 -129
120 -129 27 0 24 -3 -31 -38 -33 -21 -77 -58 -99 -82 -36 -41 -38 -45 -33 -92
6 -44 4 -49 -11 -42 -36 15 -78 16 -90 1 -10 -12 -18 -13 -43 -4 -41 16 -63 0
-67 -47 -4 -41 -3 -41 -41 -21 -26 13 -30 13 -42 -1 -10 -12 -10 -22 -1 -46
11 -30 11 -30 -22 8 -30 34 -35 37 -50 25 -9 -8 -15 -19 -13 -25 3 -7 -6 -11
-22 -11 -22 0 -26 -5 -29 -32 -3 -27 -7 -33 -28 -33 -13 0 -24 -5 -24 -10 0
-15 -50 -60 -66 -60 -22 0 -17 64 6 85 23 21 26 45 7 45 -19 0 -42 -28 -59
-69 l-14 -34 -26 35 -27 36 58 31 c32 17 69 31 81 31 15 0 20 5 18 18 -5 25
-51 17 -115 -19 l-53 -29 0 24 c0 13 -3 31 -6 40 -5 13 8 16 83 18 70 2 88 6
88 18 0 12 -17 16 -77 20 l-77 5 17 23 c17 22 21 22 67 12 92 -21 170 2 227
67 50 56 91 93 104 93 6 0 17 7 24 15 11 13 4 24 -46 70 -32 30 -67 57 -76 60
-10 4 -18 13 -18 21 0 8 -7 17 -15 20 -9 4 -13 14 -11 23 8 25 -9 44 -36 39
-23 -4 -21 0 23 58 26 34 50 75 53 91 6 27 9 29 58 28 50 0 53 2 81 43 15 23
32 42 37 42 4 0 16 -12 26 -27z m-5703 -62 c9 -16 17 -46 17 -68 0 -43 13 -69
28 -59 7 4 8 -20 5 -71 -4 -59 -1 -83 10 -97 18 -24 37 -13 38 22 l1 27 10
-27 c13 -36 24 -35 44 4 l16 32 18 -46 c36 -96 76 -138 132 -138 15 0 4 -11
-38 -38 -111 -72 -142 -117 -131 -188 5 -31 4 -35 -11 -28 -37 15 -73 16 -96
0 -15 -10 -27 -12 -31 -6 -3 6 -17 10 -30 10 -32 0 -59 -41 -51 -76 7 -25 6
-25 -16 -10 -12 9 -33 16 -46 16 -22 0 -24 -4 -20 -36 l4 -36 -26 33 c-29 35
-60 35 -60 0 0 -14 -5 -19 -15 -15 -21 9 -45 -14 -45 -42 0 -17 -6 -24 -20
-24 -11 0 -23 -8 -27 -17 -8 -22 -55 -63 -65 -56 -16 9 -8 70 12 88 23 21 26
45 6 45 -21 0 -66 -58 -66 -86 0 -24 -1 -23 -31 11 -18 20 -30 37 -28 39 36
26 72 46 109 59 24 8 46 20 48 26 7 22 -63 11 -115 -18 -52 -29 -53 -29 -53
-8 0 12 -5 29 -10 37 -8 13 4 16 83 20 73 4 92 8 92 20 0 12 -17 16 -77 18
l-77 3 11 25 c10 21 17 24 37 20 134 -30 195 -13 275 78 30 35 69 69 86 76 16
7 30 18 30 26 0 16 -94 106 -121 116 -10 4 -19 14 -19 22 0 8 -6 19 -14 23 -8
4 -16 19 -18 33 -2 20 -9 25 -30 25 -22 -1 -25 2 -17 17 5 9 14 20 20 24 20
12 69 98 69 120 0 21 3 22 54 17 l53 -6 32 47 c18 25 35 46 39 46 4 0 15 -13
25 -29z m4769 -4252 c44 -23 75 -143 44 -169 -24 -19 -40 -78 -26 -95 16 -19
33 -9 25 15 -7 23 19 76 44 90 11 5 22 20 24 32 2 13 5 -7 6 -44 0 -36 4 -73
7 -82 11 -29 51 -18 88 25 l35 41 7 -26 c12 -49 -2 -123 -30 -166 l-27 -41 51
-56 c28 -30 57 -68 65 -84 8 -15 24 -30 35 -34 29 -9 26 -17 -27 -69 -47 -45
-63 -55 -63 -37 0 16 -53 61 -72 61 -28 0 -19 34 10 38 13 2 29 -2 37 -8 23
-19 35 -3 24 29 -12 34 -64 87 -73 73 -3 -5 3 -17 14 -27 24 -22 26 -35 3 -35
-25 0 -63 -40 -63 -67 0 -18 5 -23 25 -23 27 0 74 -39 76 -62 0 -7 1 -31 2
-53 l2 -40 48 0 c35 0 47 -4 47 -15 0 -22 -28 -60 -44 -60 -8 0 -20 -7 -27
-16 -11 -14 -10 -19 10 -35 35 -29 66 -23 112 18 l42 38 -22 -42 c-11 -23 -31
-51 -43 -63 -27 -25 -80 -26 -100 -2 -21 25 -98 152 -98 161 0 5 11 12 25 15
14 4 25 14 25 23 0 20 -38 63 -57 63 -19 0 -16 -13 7 -28 27 -16 25 -40 -2
-44 -33 -5 -33 -30 2 -81 36 -54 37 -57 6 -57 -32 0 -81 -39 -67 -53 7 -7 16
-5 29 6 29 27 78 22 99 -9 18 -28 28 -114 13 -114 -5 0 -25 14 -45 31 -30 26
-36 28 -41 15 -9 -24 4 -114 22 -147 20 -40 57 -47 110 -21 l44 22 0 -30 c0
-20 -12 -42 -39 -71 -22 -22 -43 -39 -48 -37 -90 42 -103 52 -103 85 0 18 -4
33 -10 33 -5 0 -10 -19 -10 -43 0 -43 1 -44 51 -67 65 -31 86 -58 94 -125 10
-73 -7 -120 -47 -134 -45 -16 -46 -15 -35 27 13 51 -14 110 -60 132 -28 13
-34 23 -44 70 -9 45 -9 68 5 130 17 82 20 130 8 130 -4 0 -17 -48 -29 -107
-23 -108 -23 -108 -4 -183 39 -153 36 -242 -7 -248 -20 -3 -22 1 -22 42 0 38
-5 51 -35 80 -44 44 -44 69 -4 152 29 58 31 84 8 84 -5 0 -9 -10 -9 -22 0 -13
-14 -45 -30 -73 -35 -59 -37 -78 -10 -128 24 -44 26 -86 5 -113 -13 -18 -14
-16 -15 26 0 26 -9 63 -20 85 -13 24 -18 49 -15 63 4 17 2 23 -7 20 -17 -6
-30 -99 -23 -170 6 -62 -3 -73 -28 -35 -18 27 -26 21 -33 -24 -9 -53 10 -87
57 -107 33 -14 38 -20 28 -29 -30 -24 -64 -25 -99 -1 -49 33 -70 80 -70 159
l0 66 75 81 c50 53 71 83 64 88 -8 4 -24 -6 -42 -27 -16 -19 -57 -63 -91 -98
-46 -49 -62 -61 -64 -47 -8 40 9 66 57 91 69 34 89 80 97 218 5 72 4 107 -3
107 -6 0 -14 -36 -17 -82 -10 -128 -24 -174 -58 -203 -16 -14 -35 -25 -42 -25
-7 0 -23 -11 -36 -25 -13 -14 -33 -25 -46 -25 -28 0 -44 -19 -51 -64 -3 -20
-9 -36 -14 -36 -14 0 -32 76 -25 104 7 28 51 56 89 56 48 0 147 55 147 82 0
14 -18 9 -56 -17 -45 -31 -78 -32 -124 -4 l-35 21 68 17 c95 24 117 48 117
126 0 64 12 91 44 97 25 4 17 24 -8 20 -29 -4 -56 -32 -56 -59 0 -23 -31 -63
-50 -63 -6 0 -6 9 0 26 6 14 10 43 10 65 0 35 7 48 55 98 30 32 55 62 55 66 0
15 -43 55 -60 55 -9 0 -21 -5 -28 -12 -9 -9 -12 -9 -12 3 0 9 16 34 35 56 19
23 35 44 35 48 0 3 -12 17 -27 31 l-26 24 21 23 c17 18 22 36 22 74 0 46 -4
54 -35 82 -19 17 -35 33 -35 37 0 4 19 24 42 46 34 31 38 38 21 38 -22 0 -93
-71 -93 -94 0 -8 16 -23 35 -35 25 -15 35 -27 35 -46 0 -21 -5 -25 -28 -25
-30 0 -71 -24 -60 -35 4 -4 23 -2 43 5 41 14 55 7 37 -18 -36 -51 -37 -62 -7
-86 l29 -24 -37 -41 c-38 -42 -44 -64 -27 -91 8 -12 13 -13 30 -2 11 6 26 12
34 12 33 0 26 -25 -23 -74 -39 -40 -51 -59 -51 -83 0 -17 -3 -44 -6 -61 -5
-24 -10 -29 -23 -23 -104 50 -113 57 -138 98 -14 24 -28 65 -30 91 l-5 47 28
-33 c38 -43 86 -51 132 -23 18 12 32 29 32 40 0 11 -23 40 -52 66 -43 38 -48
45 -27 40 36 -9 72 23 72 63 0 44 -20 64 -54 57 -24 -5 -31 -2 -40 18 -10 21
-6 31 25 74 23 32 40 70 46 104 8 42 19 63 52 96 l41 42 -27 61 c-18 40 -26
72 -24 98 l4 37 13 -30 c19 -45 41 -65 72 -65 39 0 56 30 69 120 17 125 28
136 68 73 19 -30 21 -41 12 -66 -14 -42 -13 -82 5 -97 22 -18 40 -2 20 20 -14
16 -15 24 -4 60 7 22 21 45 30 51 27 14 34 69 15 114 -24 58 -18 68 26 44z
m-5618 -112 c30 -40 36 -115 13 -148 -26 -36 -28 -92 -4 -97 15 -3 17 1 11 22
-6 24 21 86 38 86 4 0 14 12 22 28 15 26 15 25 16 -43 0 -106 27 -122 90 -53
l38 41 7 -36 c9 -45 -10 -128 -36 -161 -25 -32 -24 -37 12 -72 18 -16 47 -53
66 -81 22 -35 41 -53 53 -53 33 0 23 -21 -32 -72 l-52 -48 -19 30 c-10 16 -33
35 -52 41 -19 7 -31 17 -28 25 8 21 33 25 64 9 26 -14 29 -14 29 0 0 24 -39
95 -56 102 -25 10 -28 -6 -6 -30 28 -30 28 -37 -1 -37 -29 0 -54 -26 -59 -60
-3 -22 1 -25 29 -28 49 -5 75 -44 67 -98 -5 -36 -3 -44 14 -53 27 -14 65 -14
80 1 9 9 12 8 12 -5 0 -32 -30 -77 -51 -77 -28 0 -37 -30 -14 -46 36 -26 84
-17 121 22 33 35 34 35 23 7 -20 -52 -58 -92 -94 -99 -45 -8 -52 -2 -113 100
l-49 83 28 10 c37 14 37 32 -1 68 -21 20 -33 26 -41 18 -7 -7 -2 -15 15 -27
32 -21 33 -30 1 -44 -25 -12 -34 -45 -15 -57 6 -4 19 -24 30 -46 l20 -39 -28
0 c-17 0 -37 -9 -50 -23 -29 -31 -17 -41 18 -15 57 42 114 -3 108 -87 l-3 -46
-35 30 c-19 17 -39 30 -44 31 -4 0 -6 -32 -4 -70 3 -63 7 -74 35 -102 l32 -31
48 19 c26 10 51 21 55 22 5 2 8 -8 8 -22 0 -17 -15 -43 -41 -71 l-41 -44 -54
27 c-49 24 -54 29 -54 58 0 18 -4 36 -10 39 -6 4 -10 -12 -10 -42 0 -47 1 -48
45 -66 25 -11 56 -32 70 -49 22 -26 25 -39 25 -108 0 -70 -2 -81 -22 -94 -12
-9 -32 -16 -45 -16 -19 0 -21 3 -13 30 16 54 -28 140 -71 140 -12 0 -21 15
-31 58 -13 52 -12 65 5 148 19 89 18 132 -3 119 -5 -3 -10 -21 -10 -38 0 -18
-7 -64 -16 -102 -16 -68 -16 -74 5 -162 23 -100 28 -212 9 -231 -23 -23 -35
-12 -40 39 -4 40 -11 56 -36 79 -46 41 -48 66 -13 130 30 54 41 110 21 110 -5
0 -10 -8 -10 -19 0 -10 -13 -43 -30 -74 -35 -66 -37 -101 -10 -142 25 -38 25
-76 0 -106 l-19 -24 -1 56 c0 31 -7 70 -16 88 -9 18 -14 41 -11 52 3 10 1 21
-3 24 -19 12 -28 -34 -26 -133 1 -70 -3 -102 -10 -102 -7 0 -15 12 -18 26 -11
42 -31 22 -34 -34 -3 -44 1 -56 22 -77 15 -15 37 -25 53 -25 l27 0 -21 -21
c-60 -60 -153 10 -168 126 -8 69 7 102 85 188 89 97 63 98 -29 2 -42 -44 -86
-89 -99 -100 l-23 -19 6 29 c4 17 9 37 11 46 3 9 23 24 45 34 74 34 95 79 105
233 5 63 4 92 -4 92 -6 0 -13 -30 -17 -67 -16 -171 -33 -210 -102 -239 -18 -8
-39 -23 -45 -34 -8 -12 -24 -20 -40 -20 -32 0 -48 -24 -48 -69 0 -38 -13 -40
-28 -6 -16 34 -15 87 1 108 6 9 35 21 64 26 66 13 141 48 154 73 17 32 3 32
-47 -1 -55 -36 -77 -38 -122 -11 -38 23 -34 40 9 40 40 0 89 22 118 53 19 21
22 33 17 59 -9 49 6 91 37 106 31 15 36 32 9 32 -33 0 -62 -30 -68 -69 -5 -28
-13 -42 -31 -50 -23 -10 -25 -10 -18 6 4 10 10 43 12 73 5 51 10 60 60 111 51
52 54 58 41 78 -14 24 -49 37 -73 27 -24 -9 -17 14 15 51 37 41 38 66 4 88
l-26 17 26 27 c20 21 26 37 26 73 0 40 -5 50 -35 77 -19 17 -35 35 -35 40 0 5
16 23 35 40 34 29 45 51 26 51 -16 0 -65 -46 -84 -79 l-18 -30 41 -26 c55 -35
53 -59 -5 -74 -30 -7 -45 -17 -45 -27 0 -12 5 -14 18 -9 32 14 72 18 72 6 0
-6 -9 -20 -20 -31 -27 -27 -25 -48 5 -72 l25 -20 -35 -41 c-34 -40 -41 -60
-29 -91 8 -21 23 -20 46 1 17 15 20 15 34 1 15 -14 12 -20 -30 -58 -47 -43
-66 -86 -66 -147 0 -32 -12 -43 -25 -23 -3 6 -16 10 -28 10 -62 0 -137 96
-137 174 l0 38 29 -31 c32 -34 82 -42 124 -20 49 26 48 38 -9 99 -43 45 -45
50 -24 50 34 0 60 28 60 65 0 38 -21 60 -50 52 -22 -6 -50 16 -50 39 0 7 16
34 35 60 19 25 35 57 35 70 0 40 28 97 65 131 l34 31 -24 61 c-14 33 -25 78
-25 98 l1 38 20 -37 c22 -43 51 -62 84 -54 28 7 41 39 55 135 6 41 13 78 16
82 10 17 29 8 51 -26 20 -32 21 -37 7 -81 -12 -42 -12 -50 1 -71 9 -13 20 -23
25 -23 14 0 13 23 -2 38 -16 16 7 89 34 112 26 21 28 82 4 129 l-17 32 27 -3
c15 -2 36 -15 48 -31z m6491 -177 c73 -31 99 -85 83 -167 -12 -55 -84 -136
-141 -158 -50 -19 -78 -12 -139 37 -33 26 -44 30 -66 22 -47 -17 -95 -156 -58
-170 10 -4 26 5 45 25 32 34 57 42 46 14 -3 -10 -11 -39 -17 -66 -10 -42 -9
-50 9 -75 28 -38 87 -69 165 -87 51 -11 129 -15 327 -15 l260 0 17 33 c24 47
44 67 69 67 33 0 36 -9 15 -51 -37 -72 -24 -122 59 -219 68 -80 81 -101 81
-135 0 -41 -31 -95 -101 -177 -32 -38 -59 -70 -59 -72 0 -2 12 -24 26 -50 52
-94 38 -229 -41 -404 -21 -45 -35 -88 -32 -96 3 -7 60 -56 128 -107 117 -90
159 -134 159 -171 0 -23 -5 -23 -39 3 -24 18 -32 19 -51 9 -45 -24 -7 -130 57
-157 29 -12 32 -16 23 -33 -14 -27 -46 -25 -115 6 -56 26 -59 26 -72 9 -7 -11
-13 -29 -13 -42 0 -34 25 -89 47 -101 16 -10 17 -11 1 -17 -10 -4 -34 4 -60
19 -62 36 -73 26 -64 -60 7 -66 6 -67 -12 -51 -10 9 -25 17 -33 17 -29 0 -37
-21 -31 -86 4 -53 2 -64 -10 -64 -17 0 -28 29 -28 73 0 15 -4 27 -10 27 -18 0
-22 -47 -6 -84 20 -48 6 -72 -47 -80 -50 -8 -56 -2 -34 36 13 23 15 34 7 42
-8 8 -16 4 -30 -14 -11 -14 -20 -29 -20 -35 -1 -27 -16 -35 -43 -22 l-26 12
51 52 c39 40 49 56 41 64 -9 9 -25 -1 -65 -39 l-53 -51 -18 31 c-9 16 -15 33
-12 38 2 4 25 13 50 19 28 7 45 17 45 26 0 19 -14 19 -73 1 l-47 -14 0 30 0
31 66 -7 c102 -10 137 24 155 152 13 93 43 137 138 208 77 56 97 86 68 97 -7
3 -38 -6 -67 -19 -36 -15 -75 -23 -111 -24 -52 0 -59 3 -86 33 -17 19 -37 60
-47 95 -18 65 -36 78 -58 42 -13 -20 -13 -20 -29 2 -15 19 -20 20 -33 9 -14
-12 -15 -7 -10 47 6 54 5 61 -15 73 -14 9 -21 24 -21 44 0 17 -12 48 -27 70
-22 32 -28 54 -31 112 -4 64 -1 78 22 117 14 25 46 61 71 82 44 35 56 54 35
54 -15 0 -89 -70 -122 -114 -15 -21 -28 -51 -28 -67 0 -22 -9 -32 -47 -55 -26
-15 -66 -45 -90 -67 -34 -32 -43 -46 -43 -73 0 -22 -5 -34 -13 -34 -7 0 -58
-32 -113 -71 -191 -136 -256 -155 -414 -122 l-85 19 -7 84 c-7 98 -24 170 -40
170 -6 0 -8 -11 -4 -27 3 -16 11 -72 18 -126 9 -76 9 -103 0 -118 -7 -10 -12
-34 -12 -52 0 -46 -9 -51 -37 -21 -19 20 -23 36 -23 85 0 32 -4 59 -9 59 -14
0 -21 -28 -21 -85 0 -30 -4 -57 -10 -60 -5 -3 -10 -25 -10 -47 l0 -42 -29 28
c-16 16 -34 47 -40 72 -14 55 -37 61 -26 7 5 -21 7 -45 6 -53 -1 -8 -4 -52 -7
-98 l-6 -82 -25 20 c-14 11 -34 20 -44 20 -16 0 -19 8 -19 59 0 99 -17 78 -22
-27 -3 -66 0 -109 9 -136 17 -49 17 -49 -6 -36 -11 5 -35 12 -53 14 -33 3 -33
4 -33 57 -1 75 -19 78 -23 4 -4 -68 18 -137 51 -161 22 -15 22 -15 -8 -12 -27
3 -33 10 -54 65 -13 34 -28 60 -33 57 -13 -8 -2 -48 28 -107 29 -59 33 -103 7
-92 -10 4 -27 8 -38 9 -21 1 -24 -16 -14 -73 3 -21 -1 -26 -28 -32 -18 -3 -39
-12 -46 -18 -11 -8 -18 -6 -31 8 -16 17 -16 22 -2 55 8 20 29 56 47 82 23 34
28 49 20 57 -16 16 -52 -29 -93 -115 -18 -38 -38 -68 -45 -68 -7 0 -20 -11
-28 -24 -15 -23 -18 -23 -43 -11 -15 8 -35 16 -44 19 -46 14 12 90 102 136 38
20 55 50 27 50 -16 0 -131 -73 -141 -89 -13 -21 -26 -11 -26 21 0 19 -9 41
-22 55 -18 19 -20 28 -12 41 9 14 31 18 110 22 79 4 99 8 99 20 0 12 -18 16
-91 18 l-90 3 10 44 11 45 95 -2 c110 -3 124 4 194 95 74 98 226 449 226 523
0 29 -1 29 55 0 54 -29 89 -22 130 26 30 36 25 48 -20 48 -18 0 -41 7 -49 16
-17 17 -22 59 -6 49 9 -6 66 8 100 25 8 4 25 24 37 46 l23 39 0 -47 c0 -38 4
-48 20 -53 58 -18 85 30 78 140 -4 55 -2 75 7 75 35 0 54 -76 35 -135 -7 -20
-10 -38 -7 -41 2 -2 27 1 55 7 73 15 92 42 92 129 0 37 -5 82 -11 100 -11 30
-10 34 29 72 l40 41 64 -13 c97 -19 219 -59 260 -86 46 -30 45 -30 101 1 25
14 83 40 129 57 78 30 91 32 218 32 123 0 141 -2 204 -27 91 -36 140 -36 163
0 35 54 10 163 -37 163 -11 0 -29 -9 -39 -19 -23 -23 -31 -18 -31 21 0 20 10
40 30 60 41 41 35 59 -25 80 -90 31 -263 20 -537 -34 -127 -25 -128 -24 -222
62 -91 84 -136 146 -136 186 0 47 -26 105 -49 111 -26 7 -34 45 -21 94 8 29
34 64 89 122 97 102 111 123 111 164 0 39 10 41 46 10 23 -20 27 -34 34 -101
4 -43 14 -84 21 -91 23 -22 76 6 94 49 22 51 19 76 -15 129 -16 26 -30 50 -30
53 0 7 50 -6 95 -26z m-5635 -89 c19 -10 46 -33 58 -52 50 -71 9 -190 -85
-250 -67 -41 -105 -39 -172 11 -49 37 -56 39 -75 27 -36 -24 -58 -63 -64 -112
-7 -63 12 -76 50 -35 34 38 52 39 44 3 -19 -80 -18 -108 4 -136 12 -15 36 -35
53 -44 73 -37 125 -43 414 -43 l282 0 23 43 c19 35 29 43 57 45 37 4 37 7 7
-74 -22 -59 -8 -96 70 -190 37 -43 71 -89 76 -101 23 -48 -10 -113 -123 -245
l-31 -36 28 -58 c45 -92 36 -205 -28 -359 -16 -38 -35 -85 -41 -104 -13 -38
-25 -24 162 -171 71 -56 99 -85 110 -113 17 -46 10 -56 -20 -28 -62 58 -108
-15 -59 -94 11 -18 34 -38 50 -45 31 -13 34 -18 24 -44 -9 -23 -41 -20 -102 9
-63 29 -78 31 -86 9 -17 -45 5 -122 41 -143 15 -9 14 -10 -10 -11 -15 0 -41
10 -57 21 -48 36 -64 21 -58 -56 6 -65 2 -75 -19 -54 -6 6 -21 9 -34 7 -23 -3
-24 -6 -21 -75 2 -58 0 -73 -11 -73 -18 0 -27 21 -27 67 0 23 -4 33 -12 31
-19 -6 -21 -53 -5 -84 22 -41 3 -71 -48 -77 -55 -5 -59 -1 -35 38 15 25 17 35
9 41 -15 9 -59 -40 -59 -66 0 -16 -3 -17 -30 -7 -16 6 -30 15 -30 19 0 4 22
26 50 50 49 42 63 68 37 68 -7 0 -36 -21 -65 -46 -29 -26 -54 -45 -55 -43 -1
2 -8 14 -14 26 -20 35 -17 39 32 53 47 13 60 23 51 39 -4 5 -28 3 -59 -5 -28
-7 -53 -14 -54 -14 -2 0 -3 11 -3 25 0 25 1 26 70 23 66 -3 71 -1 100 27 25
25 33 46 46 115 9 47 22 97 29 111 16 30 74 84 145 135 83 60 59 93 -36 50
-73 -34 -150 -36 -183 -4 -27 25 -56 87 -66 141 -9 44 -18 46 -50 11 -18 -20
-25 -23 -25 -11 0 23 -18 31 -36 16 -14 -12 -16 -7 -14 46 3 80 2 85 -15 85
-10 0 -15 10 -15 33 0 19 -12 50 -30 77 -26 40 -30 54 -30 118 0 40 5 83 11
95 6 12 39 50 72 85 41 41 56 62 45 62 -43 0 -148 -124 -148 -174 0 -27 -7
-35 -60 -65 -80 -46 -123 -92 -123 -130 0 -20 -7 -32 -21 -39 -12 -5 -64 -40
-116 -77 -177 -126 -233 -141 -411 -113 l-75 12 -11 105 c-6 58 -16 119 -22
134 -19 48 -29 21 -15 -39 17 -76 21 -203 6 -231 -7 -12 -12 -36 -12 -54 l0
-32 -26 28 c-22 24 -26 37 -26 92 0 86 -22 79 -26 -8 -2 -35 -7 -68 -13 -73
-5 -6 -9 -27 -9 -48 0 -21 -4 -38 -8 -38 -17 0 -51 47 -63 88 -7 23 -16 42
-21 42 -10 0 -9 -38 1 -64 4 -11 2 -35 -5 -55 -7 -20 -13 -60 -14 -89 0 -53 0
-53 -22 -38 -12 9 -30 16 -40 16 -15 0 -18 9 -18 66 0 48 -3 65 -12 61 -19 -6
-20 -192 -2 -236 14 -33 13 -33 -9 -26 -12 4 -37 9 -54 12 -33 5 -33 5 -33 64
0 65 -15 79 -26 23 -9 -49 15 -143 43 -172 28 -28 28 -30 1 -28 -18 1 -28 14
-47 64 -14 34 -29 62 -34 62 -14 0 0 -59 27 -112 18 -34 23 -54 17 -75 -5 -18
-10 -23 -15 -15 -4 7 -19 12 -33 12 -24 0 -25 -1 -18 -50 6 -43 4 -50 -10 -50
-9 0 -30 -7 -47 -16 -27 -14 -32 -14 -46 -1 -20 21 -11 52 38 124 44 67 46 73
26 73 -21 0 -72 -65 -96 -124 -12 -28 -37 -63 -54 -78 -33 -27 -34 -27 -75
-11 -71 28 -46 76 82 152 40 24 48 41 20 41 -21 0 -71 -29 -125 -72 l-38 -30
0 30 c0 18 -10 43 -24 59 -22 26 -23 31 -10 48 13 17 30 21 112 25 123 6 124
24 2 28 -81 2 -91 5 -86 20 3 9 8 29 12 45 l6 27 100 0 100 0 53 55 c41 41 70
88 124 197 68 138 141 333 141 377 l0 22 29 -20 c42 -30 83 -36 119 -17 54 28
69 76 24 76 -33 0 -68 22 -75 49 -4 16 0 19 26 19 17 -1 33 4 35 10 2 6 9 9
17 6 21 -9 51 13 65 46 17 42 30 38 30 -11 l0 -40 37 3 c54 4 66 32 59 135 -5
72 -4 82 9 76 19 -7 45 -55 45 -83 0 -11 -7 -36 -14 -55 -15 -35 -15 -35 12
-35 61 0 103 20 118 55 17 41 17 115 0 170 -12 40 -11 40 29 81 l40 41 85 -19
c110 -24 195 -52 244 -82 l39 -23 92 43 c127 59 192 74 321 74 95 0 120 -4
194 -30 47 -16 97 -30 112 -30 56 0 84 80 57 159 -8 24 -17 31 -37 31 -14 0
-34 -7 -44 -17 -20 -18 -23 -17 -32 14 -5 17 2 32 30 63 30 32 36 45 28 58
-38 59 -266 56 -594 -7 -92 -18 -105 -19 -131 -6 -67 35 -233 214 -228 247 7
52 -3 82 -36 114 -61 58 -45 110 72 234 88 94 103 116 103 155 0 19 5 26 16
23 33 -6 57 -54 63 -127 8 -82 19 -99 57 -85 35 12 63 50 70 94 5 28 0 44 -25
80 -17 25 -31 49 -31 53 0 12 58 -1 100 -22z m3950 -510 c0 -61 15 -91 46 -91
22 0 54 37 54 63 0 41 12 48 55 32 44 -15 44 -14 11 -100 -89 -227 -36 -386
127 -388 44 0 57 -5 90 -34 20 -18 31 -33 23 -33 -8 0 -28 -12 -45 -26 -27
-23 -31 -32 -31 -78 0 -29 6 -61 15 -73 13 -19 13 -25 -4 -59 -11 -22 -28 -59
-39 -83 l-20 -43 -12 56 c-13 62 -9 73 28 87 17 7 22 13 15 20 -10 10 -63 -7
-63 -20 0 -3 -11 -19 -25 -35 -14 -16 -25 -39 -25 -50 0 -12 -4 -27 -9 -34
-12 -19 -21 19 -21 89 0 65 24 95 79 101 46 4 54 28 9 28 -34 0 -98 -32 -98
-50 0 -8 -61 -40 -76 -40 -2 0 -4 22 -4 49 0 54 28 101 61 101 10 0 19 4 19 8
0 39 -66 9 -92 -42 -11 -22 -27 -45 -34 -49 -8 -4 -14 -12 -14 -17 0 -5 -5
-21 -11 -37 -16 -42 -28 -12 -30 79 -3 85 5 102 59 125 17 7 32 18 32 23 0 31
-83 -13 -106 -56 -13 -24 -26 -34 -42 -34 -24 0 -24 0 7 39 37 47 40 85 7 106
-27 18 -50 12 -88 -23 l-27 -25 -7 29 c-3 16 -13 40 -22 53 -14 23 -13 26 8
43 12 10 28 18 35 18 21 0 65 40 65 60 0 29 -27 43 -93 49 -52 5 -63 10 -74
30 -10 22 -8 29 17 57 15 18 33 41 38 50 9 17 11 17 37 0 44 -29 55 -16 55 68
l0 74 39 7 c22 4 45 13 52 21 21 26 29 14 29 -45z m-5621 -162 c39 -32 81 8
81 78 0 20 3 24 18 18 9 -4 31 -13 48 -19 l31 -11 -36 -90 c-31 -79 -35 -101
-36 -180 0 -140 42 -193 160 -204 48 -5 69 -12 94 -34 19 -15 32 -29 30 -30
-2 -1 -17 -9 -34 -17 -16 -9 -36 -27 -43 -40 -15 -29 -8 -94 12 -125 12 -18
11 -24 -1 -40 -7 -11 -18 -38 -24 -60 -6 -22 -19 -51 -29 -65 l-20 -25 0 35
c-1 19 -5 44 -9 55 -11 27 -3 45 25 56 27 10 32 29 7 29 -28 0 -91 -78 -98
-123 -9 -53 -21 -32 -28 51 -4 55 -2 66 16 88 15 17 36 27 65 31 53 7 55 23 2
23 -31 0 -48 -7 -77 -33 -21 -18 -50 -38 -64 -44 -26 -11 -27 -10 -32 25 -5
44 15 100 40 108 10 3 24 8 32 10 11 4 12 7 2 17 -27 27 -87 -36 -140 -148
-23 -48 -27 -39 -35 68 -5 73 -4 80 18 102 13 13 36 27 50 31 29 7 35 24 9 24
-28 0 -82 -37 -95 -65 -7 -17 -19 -25 -35 -25 l-24 0 30 37 c35 42 39 68 14
95 -22 25 -50 23 -89 -7 -40 -31 -44 -31 -44 -2 0 13 -7 32 -15 43 -24 32 -17
44 39 69 57 25 72 45 56 76 -12 21 -33 27 -100 31 -36 3 -47 8 -59 29 -13 23
-12 28 5 45 10 11 29 32 40 49 21 29 22 29 48 11 43 -27 56 -8 56 80 l0 74 28
0 c15 0 38 6 52 13 25 13 25 13 30 -41 4 -41 11 -59 29 -73z m6094 -626 c13
-21 27 -15 27 11 0 61 15 59 25 -4 6 -36 10 -66 10 -67 -1 -2 -15 3 -32 9 -24
9 -38 9 -57 0 -23 -10 -26 -17 -26 -68 0 -47 -3 -55 -17 -52 -10 2 -29 24 -43
50 -24 45 -24 49 -10 90 11 31 21 44 37 46 18 3 23 12 29 50 3 26 14 53 23 60
14 12 16 7 21 -50 3 -35 9 -69 13 -75z m-5653 -9 c0 -58 14 -99 31 -89 5 4 9
18 9 33 0 15 5 34 10 42 7 11 10 3 10 -30 0 -25 3 -55 6 -66 5 -20 3 -21 -39
-17 -38 5 -47 2 -61 -18 -9 -13 -16 -43 -16 -67 0 -53 -15 -52 -48 4 -35 61
-19 144 29 144 15 0 19 7 19 34 0 46 16 86 35 86 12 0 15 -12 15 -56z m6848
-212 c-38 -59 -56 -69 -95 -50 -57 27 -36 77 60 139 l62 40 3 -38 c2 -30 -5
-51 -30 -91z m-5609 -24 c1 -15 -4 -30 -9 -33 -6 -4 -22 -24 -36 -46 -26 -41
-55 -50 -95 -29 -44 24 -11 83 81 142 41 26 45 27 52 11 3 -10 7 -30 7 -45z
m5701 -73 c3 -32 10 -49 18 -47 9 1 12 -20 12 -77 0 -44 3 -86 6 -95 10 -25
34 -19 34 9 0 14 5 25 10 25 6 0 10 -6 10 -14 0 -29 20 -26 39 5 l20 33 11
-30 c38 -105 78 -154 127 -154 22 0 17 -6 -33 -39 -32 -21 -74 -55 -93 -74
-31 -33 -34 -42 -33 -91 l1 -55 -36 15 c-33 14 -38 14 -62 -3 -21 -15 -31 -17
-54 -9 -39 14 -61 -2 -65 -48 -4 -41 -4 -42 -37 -20 -33 22 -59 3 -50 -35 l7
-26 -31 29 c-25 24 -33 27 -45 17 -8 -7 -13 -18 -10 -25 3 -7 -5 -12 -23 -11
-23 0 -29 -5 -31 -27 -2 -18 -11 -28 -28 -32 -13 -4 -24 -11 -24 -17 0 -14
-50 -59 -66 -59 -24 0 -16 56 13 90 21 26 24 33 12 40 -18 12 -47 -15 -68 -63
l-16 -38 -23 31 c-17 22 -21 35 -13 44 10 11 83 47 124 60 10 3 17 12 14 19
-6 18 -55 9 -106 -19 -24 -13 -47 -24 -51 -24 -4 0 -10 16 -12 35 l-4 34 85 3
c72 3 86 6 89 21 3 15 -6 17 -77 17 l-80 0 17 29 c14 25 19 28 42 19 35 -13
155 -11 182 3 13 6 57 44 98 83 41 39 84 76 95 82 19 11 16 15 -38 67 -32 31
-66 59 -77 62 -11 4 -20 15 -20 25 0 10 -6 20 -12 22 -7 3 -13 15 -13 29 0 20
-5 24 -32 24 -35 0 -37 -5 25 67 17 21 36 55 43 77 l12 40 47 -6 48 -6 38 52
37 53 21 -34 c11 -18 23 -55 26 -83z m-5662 -14 c13 -22 22 -56 22 -80 0 -29
4 -41 15 -41 11 0 15 -19 17 -92 2 -75 6 -93 18 -93 9 0 17 13 20 35 l6 35 7
-27 c10 -37 32 -35 48 4 l13 31 12 -35 c35 -102 74 -148 129 -149 27 0 28 -1
11 -12 -139 -88 -180 -138 -172 -209 l5 -47 -35 17 c-33 15 -37 15 -65 0 -22
-13 -36 -15 -54 -8 -14 5 -32 7 -40 4 -17 -7 -31 -48 -26 -77 2 -17 1 -17 -29
-2 -44 23 -63 13 -58 -27 l5 -32 -24 28 c-27 31 -58 31 -57 -1 0 -18 -2 -19
-18 -10 -23 15 -40 -2 -40 -37 0 -17 -6 -26 -16 -26 -9 0 -33 -19 -52 -42 -22
-25 -41 -39 -48 -34 -19 11 -14 61 8 89 23 29 26 47 8 46 -17 0 -58 -53 -66
-84 l-7 -25 -28 35 -27 34 44 26 c25 15 61 31 81 36 40 11 48 39 11 39 -13 0
-50 -13 -82 -30 -32 -16 -59 -28 -60 -27 -1 1 -4 19 -8 40 l-7 37 91 0 c73 0
90 3 90 15 0 12 -16 15 -80 15 -44 0 -80 2 -80 5 0 3 7 16 16 29 13 21 19 23
47 15 48 -14 133 -11 173 6 20 8 66 45 103 82 36 38 77 75 90 84 23 14 23 16
6 30 -9 8 -37 33 -61 57 -24 23 -50 42 -59 42 -8 0 -15 9 -15 20 0 10 -8 23
-17 29 -10 5 -15 13 -11 17 4 3 3 15 -3 26 -8 15 -17 18 -35 14 -22 -6 -20 -1
20 49 25 30 50 73 56 94 10 39 11 40 40 29 45 -15 72 -3 103 47 16 25 32 45
36 45 4 0 17 -17 29 -39z"/>
<path d="M5605 12013 c-10 -86 -59 -287 -95 -383 -17 -47 -51 -122 -75 -167
-24 -45 -40 -84 -37 -87 12 -13 26 -4 88 56 73 70 78 69 89 -17 8 -64 24 -105
41 -105 17 0 44 51 44 83 0 20 17 85 25 95 2 2 29 -24 60 -58 80 -83 110 -81
61 3 -55 95 -131 375 -161 590 -9 68 -32 63 -40 -10z"/>
<path d="M4554 12003 c-27 -193 -90 -403 -166 -552 -26 -52 -48 -96 -48 -98 0
-1 7 -3 15 -3 8 0 44 28 80 61 36 34 68 60 71 57 2 -3 9 -34 15 -69 13 -80 24
-109 43 -109 21 0 32 24 45 93 17 94 19 94 84 27 32 -33 65 -60 73 -60 19 0
19 1 -20 78 -61 122 -128 370 -151 565 -9 72 -31 77 -41 10z"/>
<path d="M5086 10911 c-3 -5 -11 -44 -17 -87 -23 -168 -106 -422 -175 -538
-24 -41 -32 -62 -24 -70 7 -7 29 8 73 52 34 34 68 62 74 62 15 0 22 -21 29
-87 4 -30 15 -64 25 -76 18 -22 18 -22 33 -2 8 11 18 36 21 55 8 51 25 110 31
110 3 0 32 -28 65 -62 42 -45 62 -59 70 -51 8 8 2 28 -22 74 -67 134 -113 305
-155 586 -5 34 -19 50 -28 34z"/>
<path d="M4560 9702 c0 -6 -9 -62 -20 -125 -24 -145 -96 -364 -155 -475 -61
-114 -47 -126 44 -38 79 77 83 76 96 -24 4 -30 14 -66 22 -79 l16 -25 17 22
c10 12 23 51 30 87 7 36 17 68 22 71 5 3 36 -23 68 -57 43 -45 63 -60 70 -53
8 8 3 28 -19 70 -64 127 -105 270 -144 493 -13 77 -28 136 -35 139 -7 2 -12
-1 -12 -6z"/>
<path d="M5605 9658 c-25 -203 -101 -446 -184 -587 -36 -61 -36 -61 -14 -61
10 0 46 28 80 62 34 34 65 59 68 56 4 -3 12 -40 20 -82 7 -42 18 -83 25 -91
11 -14 15 -14 31 1 10 9 21 33 24 53 9 56 25 111 33 111 4 0 34 -27 66 -61 71
-72 95 -68 53 10 -69 127 -117 304 -162 599 -10 60 -32 55 -40 -10z"/>
<path d="M5033 8564 c-41 -20 -56 -35 -73 -70 l-22 -44 -104 0 -104 0 -13 33
c-18 41 -46 65 -94 83 -97 34 -217 -2 -250 -77 -16 -38 -19 -39 -65 -39 -26 0
-48 5 -48 10 0 6 -76 10 -208 10 -196 0 -209 -1 -225 -20 -15 -18 -17 -47 -17
-245 0 -193 2 -225 15 -225 13 0 15 -68 15 -555 0 -363 -3 -555 -10 -555 -6 0
-10 -88 -10 -245 l0 -245 54 0 c39 0 55 -4 60 -15 11 -29 71 -45 168 -45 153
0 137 31 140 -279 l3 -266 57 -10 c37 -7 66 -19 83 -35 25 -23 35 -25 139 -28
128 -4 172 8 203 54 16 25 19 58 23 271 l5 243 26 25 c14 15 43 30 65 35 48
12 684 13 701 2 10 -6 13 -80 15 -292 l3 -285 52 -6 c35 -5 63 -15 83 -32 52
-45 242 -51 312 -10 51 29 57 61 57 296 1 300 5 306 206 316 113 6 127 9 150
31 41 38 47 79 41 265 -3 94 -9 400 -12 680 -5 443 -3 530 11 662 21 182 17
341 -9 392 -10 19 -31 38 -47 44 -24 9 -29 17 -29 44 l0 33 -229 0 c-143 0
-232 -4 -236 -10 -14 -23 -52 -10 -76 27 -40 61 -71 77 -152 81 -90 4 -151
-23 -182 -80 l-20 -38 -87 0 c-83 0 -88 1 -88 21 0 31 -69 95 -115 108 -62 17
-107 13 -162 -15z m-425 -80 c21 -24 22 -33 22 -200 l0 -176 -29 -29 c-38 -38
-87 -39 -125 -4 l-26 24 0 178 c0 148 3 183 16 201 34 48 102 51 142 6z m583
10 c23 -25 24 -31 27 -198 l3 -173 -26 -31 c-22 -27 -34 -32 -69 -32 -33 0
-48 6 -67 26 -24 25 -24 29 -24 204 0 175 0 179 24 204 34 36 98 36 132 0z
m540 -14 l30 -30 -3 -180 c-3 -166 -5 -181 -24 -200 -11 -11 -36 -23 -56 -26
-30 -5 -41 -1 -69 24 l-34 30 -4 137 c-4 168 3 220 34 251 35 35 88 33 126 -6z
m589 -230 c0 -198 6 -190 -105 -137 -89 43 -174 131 -204 212 -38 100 -45 95
144 95 l165 0 0 -170z m-2135 128 c-13 -64 -65 -156 -113 -199 -38 -33 -186
-119 -207 -119 -8 0 -6 336 2 343 3 4 78 7 165 7 l160 0 -7 -32z m1439 -643
c56 -107 159 -186 286 -218 l55 -14 3 -241 2 -241 -42 -11 c-162 -41 -263
-124 -314 -256 l-17 -44 -506 0 -506 0 -24 57 c-45 103 -153 185 -281 215
l-50 11 0 258 0 258 43 11 c141 36 246 115 299 225 l22 45 500 0 501 0 29 -55z
m-1644 -947 c72 -22 156 -72 206 -124 47 -48 102 -141 119 -201 l6 -23 -220 0
-221 0 0 185 0 186 38 -6 c20 -4 53 -11 72 -17z m2336 -4 c-3 -9 -6 -90 -6
-180 l0 -164 -220 0 c-249 0 -233 -6 -199 85 24 65 100 152 167 191 51 30 203
83 241 84 17 0 22 -4 17 -16z m-1736 -534 l0 -170 -130 0 -130 0 0 150 0 150
36 0 c31 0 36 3 31 20 -5 19 0 20 94 20 l99 0 0 -170z m1220 139 c0 -5 23 -9
50 -9 l50 0 0 -160 0 -160 -130 0 -130 0 0 173 0 172 80 -3 c44 -2 80 -8 80
-13z m-1220 -474 l0 -75 -130 0 -130 0 0 75 0 75 130 0 130 0 0 -75z m1320
-15 l0 -80 -130 0 -130 0 0 80 0 80 130 0 130 0 0 -80z"/>
<path d="M6050 8358 c1 -33 79 -126 140 -167 l65 -43 5 103 c3 57 4 107 2 112
-2 4 -50 7 -108 7 -77 0 -104 -3 -104 -12z"/>
<path d="M3920 8255 c0 -81 3 -105 13 -105 27 0 125 80 156 126 52 79 48 84
-69 84 l-100 0 0 -105z"/>
<path d="M4607 7678 c-62 -97 -160 -172 -269 -207 l-38 -13 0 -207 0 -208 43
-13 c112 -33 216 -116 267 -213 l25 -47 456 0 457 0 27 56 c50 103 160 192
288 233 l37 13 -2 190 -3 191 -40 12 c-105 31 -205 107 -265 199 l-43 66 -453
0 -453 0 -34 -52z m678 -268 c75 -29 141 -91 150 -142 10 -50 -23 -117 -75
-153 -103 -71 -298 -92 -438 -46 -120 39 -194 122 -176 197 16 69 90 130 194
158 85 24 267 16 345 -14z"/>
<path d="M4943 7329 c-41 -13 -70 -29 -87 -50 -32 -38 -32 -40 0 -72 32 -32
111 -63 186 -72 113 -14 266 31 298 89 15 26 14 28 -22 61 -20 19 -59 40 -89
49 -74 22 -208 20 -286 -5z"/>
<path d="M3922 6624 l3 -129 153 -3 c172 -3 170 -4 124 69 -52 80 -166 163
-255 185 l-28 6 3 -128z"/>
<path d="M6185 6711 c-27 -10 -68 -27 -90 -39 -74 -38 -175 -165 -142 -177 7
-3 78 -4 157 -3 l145 3 3 118 c3 131 6 127 -73 98z"/>
<path d="M8246 8195 c-3 -9 -6 -31 -6 -48 0 -48 -46 -240 -82 -347 -18 -52
-54 -138 -80 -190 -29 -57 -44 -98 -38 -104 5 -5 37 18 79 59 69 66 71 67 79
44 5 -13 12 -49 16 -79 4 -30 14 -64 22 -75 15 -20 15 -20 34 2 10 12 23 50
29 85 6 34 15 66 19 70 5 5 35 -18 70 -54 44 -45 64 -60 72 -52 7 7 3 24 -15
56 -59 106 -112 286 -149 507 -21 127 -35 163 -50 126z"/>
<path d="M9496 8195 c-3 -9 -6 -31 -6 -48 -1 -105 -93 -410 -166 -546 -60
-113 -46 -124 45 -36 69 66 71 67 79 44 5 -13 12 -49 16 -80 5 -36 14 -63 26
-74 17 -16 19 -15 33 7 9 12 20 50 26 83 6 32 15 63 20 68 6 6 33 -14 70 -54
44 -46 64 -60 72 -52 8 8 2 25 -20 65 -58 102 -116 317 -158 582 -8 50 -26 70
-37 41z"/>
<path d="M6996 8153 c-26 -186 -90 -399 -165 -546 -66 -130 -53 -138 57 -33
60 58 67 55 77 -29 17 -140 68 -137 89 5 11 77 17 78 81 11 51 -54 85 -75 85
-54 0 4 -18 44 -39 88 -58 119 -117 342 -146 558 -4 29 -11 47 -19 47 -9 0
-16 -18 -20 -47z"/>
<path d="M700 8164 c0 -53 -50 -273 -86 -375 -20 -57 -57 -146 -84 -197 -61
-119 -47 -133 44 -43 34 33 65 61 68 61 9 0 28 -68 28 -102 0 -35 20 -78 35
-78 21 0 35 25 46 86 18 100 21 101 85 33 79 -82 108 -80 60 4 -55 98 -112
292 -146 502 -11 66 -20 123 -20 128 0 4 -7 7 -15 7 -10 0 -15 -10 -15 -26z"/>
<path d="M1937 8079 c-24 -152 -77 -323 -142 -456 -77 -159 -73 -168 30 -71
38 35 69 57 74 52 5 -5 14 -40 20 -77 20 -134 58 -129 87 11 7 36 16 67 18 70
3 2 31 -23 63 -57 85 -89 104 -83 54 17 -59 118 -114 312 -141 502 -15 107
-19 120 -33 120 -9 0 -19 -37 -30 -111z"/>
<path d="M3196 8133 c-19 -165 -82 -377 -157 -526 -27 -55 -49 -103 -49 -108
0 -21 26 -5 86 53 41 39 68 58 74 52 5 -5 14 -40 19 -78 17 -117 60 -127 81
-18 6 31 15 68 21 81 10 23 11 23 68 -38 81 -84 107 -80 57 10 -54 96 -121
337 -149 534 -10 66 -17 91 -29 93 -12 2 -17 -10 -22 -55z"/>
<path d="M7627 7193 c-4 -3 -7 -20 -7 -37 0 -125 -104 -464 -181 -589 -16 -26
-29 -51 -29 -57 0 -27 26 -14 89 46 l71 66 10 -27 c5 -14 10 -38 10 -53 0 -38
17 -94 32 -103 22 -14 37 11 54 87 9 41 19 76 24 79 4 2 35 -23 69 -57 75 -75
96 -69 51 14 -58 108 -115 304 -145 503 -10 61 -19 116 -21 123 -4 13 -17 16
-27 5z"/>
<path d="M8877 7194 c-4 -4 -7 -26 -7 -48 0 -110 -84 -390 -162 -545 -29 -56
-45 -98 -39 -104 5 -5 37 18 79 58 42 39 73 61 77 55 4 -6 11 -41 16 -78 6
-42 17 -74 28 -86 19 -18 19 -18 34 5 8 13 18 42 21 64 4 22 12 55 17 73 l11
33 55 -60 c31 -34 63 -61 74 -61 24 0 24 -1 -6 53 -59 105 -113 288 -149 506
-20 124 -31 153 -49 135z"/>
<path d="M1325 7133 c-23 -192 -111 -468 -189 -592 -23 -36 -24 -42 -10 -48
11 -4 36 14 80 58 73 73 79 71 90 -21 4 -30 13 -68 21 -84 15 -28 15 -28 34
-9 11 11 24 45 30 79 17 96 20 97 85 32 80 -81 106 -79 60 3 -37 67 -65 143
-97 268 -24 93 -69 330 -69 364 0 4 -6 7 -14 7 -10 0 -17 -18 -21 -57z"/>
<path d="M2585 7178 c-2 -7 -9 -47 -15 -88 -26 -171 -101 -404 -171 -527 -52
-94 -30 -100 56 -13 33 33 63 60 67 60 9 0 28 -67 28 -102 0 -35 20 -78 35
-78 22 0 35 26 46 87 17 95 20 96 86 31 86 -85 104 -79 53 17 -55 105 -150
462 -150 565 0 49 -24 82 -35 48z"/>
<path d="M5091 5405 c-24 -173 -97 -405 -167 -532 -58 -104 -38 -113 51 -23
33 33 63 60 67 60 9 0 28 -67 28 -102 0 -35 20 -78 35 -78 22 0 35 26 46 87
17 95 20 96 86 31 81 -80 107 -78 59 5 -53 91 -128 356 -150 532 -11 84 -17
105 -30 105 -9 0 -17 -29 -25 -85z"/>
<path d="M5616 4277 c-16 -155 -98 -420 -172 -555 -57 -105 -39 -111 53 -20
41 41 66 59 73 52 5 -5 14 -40 19 -78 18 -126 58 -126 86 -1 9 41 20 77 24 79
4 3 31 -22 60 -55 48 -54 81 -74 81 -49 0 6 -14 37 -30 70 -58 114 -114 321
-143 525 -10 66 -17 91 -29 93 -12 2 -17 -11 -22 -61z"/>
<path d="M4556 4308 c-2 -7 -11 -58 -19 -113 -26 -168 -101 -393 -168 -507
-30 -50 -37 -78 -19 -78 5 0 41 29 79 65 l69 65 11 -31 c6 -18 11 -45 11 -61
0 -35 25 -98 39 -98 15 0 38 49 46 100 14 89 19 90 89 21 34 -33 65 -61 69
-61 12 0 8 35 -8 57 -47 67 -120 311 -150 503 -9 58 -19 115 -21 128 -5 24
-22 30 -28 10z"/>
<path d="M5087 3304 c-4 -4 -7 -21 -7 -37 0 -107 -91 -412 -166 -558 -62 -120
-50 -133 44 -45 l70 66 11 -31 c6 -18 11 -45 11 -61 0 -35 25 -98 39 -98 15 0
38 49 46 100 14 89 19 90 89 21 34 -33 65 -61 69 -61 15 0 6 33 -27 98 -58
115 -114 323 -140 521 -11 78 -22 102 -39 85z"/>
<path d="M4566 1978 c-3 -7 -10 -49 -16 -92 -26 -170 -92 -377 -165 -515 -33
-62 -42 -91 -29 -91 3 0 39 30 79 66 l74 65 10 -38 c6 -21 11 -51 11 -68 0
-34 19 -77 37 -82 17 -6 33 30 49 105 7 36 16 67 19 70 3 3 32 -23 66 -58 79
-83 95 -71 46 31 -64 132 -103 284 -153 587 -5 32 -21 43 -28 20z"/>
<path d="M5625 1943 c-29 -185 -60 -305 -115 -444 -22 -56 -54 -125 -70 -151
-55 -89 -34 -91 61 -6 38 33 72 59 74 56 3 -3 10 -34 16 -69 6 -35 14 -74 19
-86 19 -46 53 -18 65 53 4 22 11 54 17 73 l10 33 62 -61 c88 -87 108 -84 56
10 -58 104 -131 375 -155 572 -9 67 -31 78 -40 20z"/>
<path d="M7346 11751 c-23 -26 -20 -31 16 -29 32 3 33 2 38 -43 7 -55 32 -96
67 -110 20 -7 23 -13 15 -21 -7 -7 -12 -23 -12 -37 0 -13 -7 -32 -16 -42 -9
-10 -13 -23 -9 -29 5 -8 13 -5 26 9 11 12 26 21 34 21 19 0 19 8 0 27 -14 14
-14 17 0 32 10 12 15 37 15 77 0 33 5 65 11 71 8 8 7 13 -2 18 -7 5 -17 1 -24
-8 -10 -14 -17 -11 -61 24 -72 58 -79 61 -98 40z"/>
<path d="M7656 11724 c-42 -33 -61 -43 -69 -35 -21 21 -24 11 -19 -61 3 -45
10 -80 20 -90 14 -16 13 -20 -3 -38 -20 -22 -21 -21 19 -38 34 -15 44 -9 25
14 -8 9 -12 28 -11 41 2 13 -2 30 -8 38 -9 11 -5 17 19 30 35 18 61 61 61 103
0 34 16 52 48 52 14 0 22 5 20 13 -9 26 -45 16 -102 -29z"/>
<path d="M7664 11478 c4 -13 10 -30 12 -38 3 -9 -5 -31 -18 -50 -26 -39 -67
-51 -88 -25 -11 13 -10 19 9 38 32 35 26 56 -8 23 l-28 -27 -18 28 c-22 33
-34 14 -14 -23 17 -33 -7 -60 -45 -50 -29 7 -46 53 -38 104 2 18 0 32 -6 32
-25 0 -30 -80 -7 -124 9 -17 15 -56 15 -101 0 -81 10 -118 42 -152 42 -45 48
-33 48 101 0 126 7 150 35 126 10 -9 15 -41 17 -118 3 -89 6 -107 18 -104 8 1
0 -11 -18 -28 -18 -16 -36 -30 -41 -30 -5 0 -23 11 -39 25 -31 26 -52 32 -52
16 0 -18 62 -61 87 -61 52 0 107 63 128 145 4 17 13 71 21 120 8 50 17 104 20
121 6 33 -9 74 -28 74 -6 0 -8 -9 -4 -22z"/>
<path d="M1645 11690 c-19 -21 -13 -42 7 -22 19 19 48 -15 48 -55 0 -47 24
-88 59 -103 28 -11 29 -14 17 -32 -8 -11 -12 -27 -9 -37 2 -9 -3 -23 -11 -30
-15 -13 -22 -41 -11 -41 3 0 13 8 24 19 10 10 24 20 31 23 10 3 10 9 -1 26
-12 19 -12 24 1 32 9 6 17 35 21 87 4 43 4 80 2 83 -3 3 -11 -4 -19 -14 -14
-19 -15 -19 -41 6 -16 13 -44 37 -64 51 -36 27 -36 27 -54 7z"/>
<path d="M1956 11665 c-61 -47 -71 -51 -81 -35 -4 6 -11 7 -17 4 -6 -4 -6 -10
1 -17 6 -6 11 -37 11 -68 0 -32 5 -61 10 -64 15 -9 12 -42 -5 -49 -24 -9 -18
-21 17 -34 21 -7 36 -8 42 -2 6 6 3 12 -7 16 -12 4 -15 14 -11 34 4 15 1 31
-5 34 -20 13 -11 31 19 43 32 12 60 62 60 106 0 28 23 52 44 44 20 -8 28 3 15
20 -18 21 -32 16 -93 -32z"/>
<path d="M1967 11393 c4 -42 2 -52 -20 -75 -29 -31 -74 -37 -84 -12 -3 8 4 25
16 38 20 22 28 46 14 46 -4 0 -17 -10 -31 -22 l-23 -23 -18 23 c-23 31 -34 17
-15 -20 19 -36 4 -61 -35 -56 -35 4 -53 42 -46 96 3 32 2 43 -8 40 -19 -7 -21
-103 -3 -130 10 -16 15 -49 15 -106 0 -83 2 -92 45 -146 9 -11 22 -16 31 -13
12 5 15 28 15 130 0 68 3 127 7 130 3 4 15 0 25 -10 15 -14 18 -32 18 -126 0
-100 2 -109 18 -103 9 3 2 -7 -16 -24 -40 -37 -52 -37 -92 -4 -42 36 -54 20
-12 -17 45 -40 82 -39 126 6 40 40 59 95 77 225 6 47 15 89 20 95 12 13 11 49
-3 80 -18 39 -28 30 -21 -22z"/>
<path d="M7655 5499 c-48 -36 -71 -47 -78 -40 -21 21 -24 10 -19 -61 3 -45 10
-80 20 -90 14 -16 13 -20 -3 -38 -10 -11 -16 -21 -14 -23 7 -5 60 -27 64 -27
12 0 4 28 -9 33 -9 4 -12 15 -9 31 3 14 0 32 -6 40 -9 11 -4 18 24 35 37 22
55 54 55 101 0 31 33 62 56 53 18 -7 18 11 0 26 -10 9 -28 0 -81 -40z"/>
<path d="M7335 5520 c-22 -24 -12 -39 15 -23 24 16 36 1 43 -56 7 -52 35 -95
66 -99 17 -3 21 -8 15 -20 -3 -9 -9 -28 -12 -42 -3 -14 -11 -35 -19 -47 -18
-27 -2 -38 20 -12 9 10 24 19 32 19 18 0 19 12 3 28 -10 10 -10 17 0 32 6 11
12 46 12 78 0 32 5 63 11 69 8 8 8 13 -1 18 -6 4 -17 0 -23 -9 -11 -14 -19
-10 -72 34 -33 27 -63 50 -66 50 -3 0 -14 -9 -24 -20z"/>
<path d="M7655 5253 c20 -46 17 -69 -13 -101 -33 -35 -62 -41 -82 -17 -11 13
-9 20 14 44 34 36 21 49 -15 15 l-28 -27 -12 27 c-12 25 -29 35 -29 16 0 -5 5
-20 11 -34 22 -47 -29 -76 -64 -38 -11 12 -17 36 -17 70 0 29 -4 52 -9 52 -23
0 -29 -78 -9 -113 7 -12 15 -65 18 -117 5 -85 8 -99 34 -133 49 -64 56 -53 56
87 0 90 4 127 13 135 27 22 37 -9 37 -121 0 -96 2 -108 18 -108 13 -1 9 -8
-16 -30 -39 -36 -43 -37 -80 -5 -34 29 -42 31 -42 11 0 -21 53 -56 84 -56 35
0 98 64 114 116 6 22 17 76 22 120 6 43 15 93 21 110 13 42 11 88 -3 102 -18
18 -31 15 -23 -5z"/>
<path d="M2007 5410 c-37 -28 -69 -45 -72 -40 -3 6 -13 10 -21 10 -11 0 -12
-4 -4 -19 5 -11 10 -43 10 -70 0 -28 5 -60 12 -71 10 -15 9 -22 -6 -38 -19
-22 -16 -27 32 -37 33 -7 47 10 17 21 -10 4 -13 14 -9 30 4 14 1 31 -7 41 -12
14 -12 17 0 21 7 2 27 16 43 31 23 20 31 38 35 74 6 50 27 72 57 61 19 -7 21
7 4 24 -17 17 -19 17 -91 -38z"/>
<path d="M1690 5435 c-16 -19 -3 -40 16 -24 22 18 44 -7 44 -50 0 -45 32 -99
64 -107 22 -5 23 -8 13 -37 -5 -18 -16 -45 -24 -60 -18 -34 -10 -46 14 -25 10
8 26 18 37 22 18 6 18 7 1 26 -16 18 -17 22 -3 38 10 11 17 43 20 90 4 73 1
81 -20 60 -9 -9 -25 0 -71 35 -65 51 -73 54 -91 32z"/>
<path d="M1756 5164 c-11 -28 -6 -99 8 -119 8 -13 15 -55 17 -111 4 -81 7 -94
32 -128 16 -20 34 -35 40 -33 8 2 13 45 15 128 3 128 10 152 37 129 12 -10 15
-35 15 -121 0 -97 2 -109 18 -109 13 -1 11 -6 -11 -25 -36 -32 -64 -32 -98 1
-15 14 -29 21 -33 16 -3 -6 10 -24 30 -42 44 -38 72 -35 122 13 37 36 54 85
77 227 9 52 18 107 21 121 6 27 -10 69 -25 69 -4 0 -6 -22 -3 -48 4 -45 2 -50
-28 -75 -36 -31 -52 -33 -70 -12 -9 11 -8 20 10 45 28 39 18 51 -16 19 -21
-20 -27 -21 -34 -9 -5 8 -10 18 -10 23 0 8 -30 10 -30 2 0 -3 7 -16 15 -29 31
-46 -19 -86 -58 -47 -16 15 -21 32 -20 71 1 51 -10 73 -21 44z"/>
</g>
</svg>
