<?xml version="1.0" encoding="UTF-8"?>
<svg id="Layer_2" xmlns="http://www.w3.org/2000/svg" viewBox="0 0 200 200">
  <defs>
    <style>.cls-1, .cls-2{stroke-width:0px;}.cls-2{fill:#ffda00;}</style>
  </defs>
  <g id="Layer_1-2">
    <path class="cls-2" d="m113.87,92.68l59.64-35.44c2.44-1.45,3.14-4.66,1.54-6.99-14.94-21.82-40.06-36.12-68.53-36.04-44.89.13-81.8,36.62-82.43,81.51-.64,46.21,36.62,83.86,82.68,83.86,28.36,0,53.38-14.28,68.27-36.03,1.6-2.34.89-5.54-1.54-6.99l-59.64-35.45c-3.2-1.9-3.2-6.53,0-8.43Z"/>
    <!-- Cheese holes -->
    <circle cx="80" cy="50" r="8" fill="#d4a174"/>
    <circle cx="120" cy="80" r="5" fill="#e3b887"/>
    <circle cx="40" cy="120" r="7" fill="#d4a174"/>
    <circle cx="60" cy="80" r="4" fill="#e3b887"/>
    <circle cx="100" cy="120" r="6" fill="#d4a174"/>
    <circle cx="140" cy="40" r="3" fill="#e3b887"/>
    <!-- Additional cheese holes -->
    <circle cx="90" cy="110" r="6" fill="#d4a174"/>
    <circle cx="130" cy="60" r="5" fill="#e3b887"/>
    <circle cx="70" cy="30" r="4" fill="#d4a174"/>
    <!-- More holes toward the bottom -->
    <circle cx="80" cy="155" r="5" fill="#d4a174"/>
    <circle cx="130" cy="165" r="7" fill="#e3b887"/>
  </g>
</svg>
