<svg width="634" height="117" viewBox="0 0 634 117" fill="none" xmlns="http://www.w3.org/2000/svg">
<path d="M0.780273 76.3579C0.780273 53.7828 19.3483 35.7158 44.7847 35.7158C68.5444 35.7158 83.4361 49.5753 87.9446 67.7926H61.85C58.8443 61.5622 53.6527 56.8923 44.7847 56.8923C34.2401 56.8923 26.2167 64.2092 26.2167 76.3579C26.2167 88.5066 34.2525 95.8236 44.7847 95.8236C53.6527 95.8236 58.8443 91.1537 61.85 84.9233H87.9446C83.4237 103.141 68.532 117 44.7847 117C19.3483 117 0.780273 98.9446 0.780273 76.3579Z" fill="white"/>
<path d="M97.2018 2.46313H122.334V48.4343C126.325 43.242 134.653 38.968 145.464 38.968C165.938 38.968 177.75 52.8671 177.75 72.8654V117H152.618V76.8333C152.618 66.3013 148.121 59.8846 139.138 59.8846C129.649 59.8846 122.322 66.1426 122.322 79.8943V117H97.1895V2.46313H97.2018Z" fill="white"/>
<path d="M188.315 76.2019C188.315 52.8374 207.272 35.7158 232.374 35.7158C257.476 35.7158 277.753 50.9761 276.766 81.8089H212.764C213.924 89.7511 220.242 96.757 233.707 96.757C241.025 96.757 247.665 93.6471 249.664 89.439H275.927C270.608 105.636 253.317 117 232.374 117C206.605 117 188.315 99.8669 188.315 76.2019ZM213.418 66.8607H248.998C246.332 57.5195 238.187 54.3981 231.708 54.3981C221.736 54.3981 215.577 59.693 213.418 66.8607Z" fill="white"/>
<path d="M284.725 76.874C284.725 55.042 301.167 36.748 322.507 36.748C333.424 36.748 341.404 41.9748 344.656 46.1289V0H369.248V115.3H344.656V107.619C341.404 111.773 333.424 117 322.507 117C301.167 117 284.725 98.7059 284.725 76.874ZM346.615 76.874C346.615 65.8039 339.119 57.8153 328.044 57.8153C316.969 57.8153 309.473 65.8039 309.473 76.874C309.473 87.944 316.969 95.9327 328.044 95.9327C339.119 95.9327 346.615 87.944 346.615 76.874Z" fill="white"/>
<path d="M381.134 76.874C381.134 55.042 397.833 36.748 419.506 36.748C430.594 36.748 438.699 41.9748 442.002 46.1289V0H466.977V115.3H442.002V107.619C438.699 111.773 430.594 117 419.506 117C397.833 117 381.134 98.7059 381.134 76.874ZM443.991 76.874C443.991 65.8039 436.378 57.8153 425.13 57.8153C413.882 57.8153 406.269 65.8039 406.269 76.874C406.269 87.944 413.882 95.9327 425.13 95.9327C436.378 95.9327 443.991 87.944 443.991 76.874Z" fill="white"/>
<path d="M477.543 76.3579C477.543 54.2452 494.243 35.7158 515.915 35.7158C527.003 35.7158 535.108 41.0099 538.411 45.2175V37.4266H563.387V115.278H538.411V107.498C535.108 111.706 527.003 117 515.915 117C494.243 117 477.543 98.4707 477.543 76.3579ZM540.4 76.3579C540.4 65.1455 532.787 57.0541 521.539 57.0541C510.292 57.0541 502.678 65.1455 502.678 76.3579C502.678 87.5703 510.292 95.6618 521.539 95.6618C532.787 95.6618 540.4 87.5703 540.4 76.3579Z" fill="white"/>
<path d="M580.555 39.101H605.561V50.5983C608.216 43.8479 616.158 38.179 625.268 38.179C627.751 38.179 630.407 38.3269 633.382 39.101V62.5623C629.571 61.3329 626.264 60.7181 622.293 60.7181C611.524 60.7181 605.561 68.3906 605.561 79.4325V115.768H580.555V39.101Z" fill="white"/>
</svg>
