<svg width="149" height="132" viewBox="0 0 149 132" fill="none" xmlns="http://www.w3.org/2000/svg">
<path d="M86.9101 57.1511C84.6007 57.154 83.1542 54.6558 84.3063 52.6544L104.895 16.8894C106.047 14.8879 108.934 14.8842 110.091 16.8828L130.77 52.5955C131.927 54.594 130.487 57.0958 128.178 57.0988L86.9101 57.1511Z" fill="#FFE352"/>
<path d="M70.7821 59.8374L91.2321 23.6537C92.0673 22.1773 91.4825 20.3088 89.9531 19.5848C75.6853 12.8148 58.3631 12.9697 43.5888 21.5541C20.2911 35.1004 11.9775 64.9989 25.0166 88.3438C38.4405 112.379 69.0395 120.628 92.9857 106.803C107.732 98.2892 116.477 83.4212 117.745 67.7224C117.883 66.036 116.557 64.5952 114.861 64.5804L73.2942 64.1885C71.0713 64.1645 69.6914 61.7745 70.7821 59.8374Z" fill="#088BA7"/>
</svg>
