<svg width="175" height="152" viewBox="0 0 175 152" fill="none" xmlns="http://www.w3.org/2000/svg">
<path d="M101.339 65.5223C98.9991 65.5252 97.5195 63.0235 98.6869 61.0381L124.016 17.9589C125.174 15.9891 128.074 16.0049 129.246 17.9875L154.687 61.0037C155.859 62.9863 154.43 65.4564 152.109 65.4593L101.339 65.5223Z" fill="#FFE352"/>
<path d="M83.0807 68.6407L107.336 26.6228C108.326 24.9083 107.633 22.7385 105.819 21.8978C88.8962 14.0363 68.351 14.2161 50.8279 24.1846C23.1954 39.9151 13.335 74.6345 28.8001 101.743C44.7216 129.654 81.0139 139.233 109.415 123.179C126.906 113.292 137.278 96.0271 138.782 77.7971C138.945 75.8387 137.373 74.1657 135.361 74.1484L86.0602 73.6934C83.4237 73.6655 81.7871 70.8901 83.0807 68.6407Z" fill="#FF6978"/>
</svg>
