<svg width="591" height="117" viewBox="0 0 591 117" fill="none" xmlns="http://www.w3.org/2000/svg">
<path d="M0.71582 76.3579C0.71582 53.7828 18.0313 35.7158 41.7517 35.7158C63.9086 35.7158 77.7957 49.5753 82 67.7926H57.6657C54.8628 61.5622 50.0215 56.8923 41.7517 56.8923C31.9184 56.8923 24.4363 64.2092 24.4363 76.3579C24.4363 88.5066 31.93 95.8236 41.7517 95.8236C50.0215 95.8236 54.8628 91.1537 57.6657 84.9233H82C77.7841 103.141 63.897 117 41.7517 117C18.0313 117 0.71582 98.9446 0.71582 76.3579Z" fill="black"/>
<path d="M90.6326 2.46313H114.069V48.4343C117.791 43.242 125.557 38.968 135.639 38.968C154.732 38.968 165.747 52.8671 165.747 72.8654V117H142.311V76.8333C142.311 66.3013 138.117 59.8846 129.74 59.8846C120.891 59.8846 114.058 66.1426 114.058 79.8943V117H90.6211V2.46313H90.6326Z" fill="black"/>
<path d="M175.6 76.2019C175.6 52.8374 193.278 35.7158 216.686 35.7158C240.095 35.7158 259.004 50.9761 258.084 81.8089H198.399C199.481 89.7511 205.373 96.757 217.929 96.757C224.754 96.757 230.946 93.6471 232.81 89.439H257.301C252.341 105.636 236.217 117 216.686 117C192.656 117 175.6 99.8669 175.6 76.2019ZM199.009 66.8607H232.189C229.703 57.5195 222.107 54.3981 216.065 54.3981C206.766 54.3981 201.023 59.693 199.009 66.8607Z" fill="black"/>
<path d="M265.505 76.874C265.505 55.042 280.839 36.748 300.739 36.748C310.92 36.748 318.361 41.9748 321.394 46.1289V0H344.326V115.3H321.394V107.619C318.361 111.773 310.92 117 300.739 117C280.839 117 265.505 98.7059 265.505 76.874ZM323.22 76.874C323.22 65.8039 316.23 57.8153 305.902 57.8153C295.575 57.8153 288.584 65.8039 288.584 76.874C288.584 87.944 295.575 95.9327 305.902 95.9327C316.23 95.9327 323.22 87.944 323.22 76.874Z" fill="black"/>
<path d="M355.411 76.874C355.411 55.042 370.984 36.748 391.194 36.748C401.534 36.748 409.092 41.9748 412.172 46.1289V0H435.463V115.3H412.172V107.619C409.092 111.773 401.534 117 391.194 117C370.984 117 355.411 98.7059 355.411 76.874ZM414.027 76.874C414.027 65.8039 406.928 57.8153 396.439 57.8153C385.95 57.8153 378.85 65.8039 378.85 76.874C378.85 87.944 385.95 95.9327 396.439 95.9327C406.928 95.9327 414.027 87.944 414.027 76.874Z" fill="black"/>
<path d="M445.316 76.3579C445.316 54.2452 460.889 35.7158 481.1 35.7158C491.44 35.7158 498.997 41.0099 502.078 45.2175V37.4266H525.368V115.278H502.078V107.498C498.997 111.706 491.44 117 481.1 117C460.889 117 445.316 98.4707 445.316 76.3579ZM503.933 76.3579C503.933 65.1455 496.833 57.0541 486.344 57.0541C475.855 57.0541 468.756 65.1455 468.756 76.3579C468.756 87.5703 475.855 95.6618 486.344 95.6618C496.833 95.6618 503.933 87.5703 503.933 76.3579Z" fill="black"/>
<path d="M541.379 39.101H564.698V50.5983C567.174 43.8479 574.58 38.179 583.076 38.179C585.391 38.179 587.868 38.3269 590.642 39.101V62.5623C587.088 61.3329 584.004 60.7181 580.301 60.7181C570.258 60.7181 564.698 68.3906 564.698 79.4325V115.768H541.379V39.101Z" fill="black"/>
</svg>
