<svg width="149" height="131" viewBox="0 0 149 131" fill="none" xmlns="http://www.w3.org/2000/svg">
<path d="M86.9101 56.4236C84.6007 56.4265 83.1542 53.9284 84.3063 51.9269L104.895 16.1619C106.047 14.1604 108.934 14.1568 110.091 16.1553L130.77 51.868C131.927 53.8665 130.487 56.3684 128.178 56.3713L86.9101 56.4236Z" fill="#FFE352"/>
<path d="M70.7821 59.1099L91.232 22.9262C92.0673 21.4498 91.4825 19.5813 89.9531 18.8573C75.6853 12.0874 58.363 12.2422 43.5888 20.8266C20.2911 34.3729 11.9775 64.2715 25.0166 87.6163C38.4405 111.651 69.0395 119.901 92.9856 106.076C107.732 97.5617 116.477 82.6937 117.745 66.995C117.883 65.3085 116.557 63.8677 114.861 63.8529L73.2942 63.461C71.0713 63.437 69.6914 61.047 70.7821 59.1099Z" fill="#F5AD44"/>
</svg>
