<?xml version="1.0" encoding="UTF-8"?><svg id="Layer_2" xmlns="http://www.w3.org/2000/svg" viewBox="0 0 517.48 102.51"><defs><style>.cls-1{fill:#fff;stroke-width:0px;}</style></defs><g id="Layer_1-2"><path class="cls-1" d="m0,67.35c0-19.53,14.95-35.16,35.43-35.16,19.13,0,31.12,11.99,34.75,27.75h-21.01c-2.42-5.39-6.6-9.43-13.74-9.43-8.49,0-14.95,6.33-14.95,16.84s6.47,16.84,14.95,16.84c7.14,0,11.32-4.04,13.74-9.43h21.01c-3.64,15.76-15.63,27.75-34.75,27.75C14.95,102.51,0,86.88,0,67.35Z"/><path class="cls-1" d="m79.25,0h20.34v40.55c3.23-4.58,9.97-8.35,18.72-8.35,16.57,0,26.13,12.26,26.13,29.9v38.93h-20.34v-35.43c0-9.29-3.64-14.95-10.91-14.95-7.68,0-13.61,5.52-13.61,17.65v32.73h-20.34V0Z"/><path class="cls-1" d="m153.57,67.22c0-20.21,15.36-35.02,35.7-35.02s36.77,13.2,35.97,39.87h-51.86c.94,6.87,6.06,12.93,16.97,12.93,5.93,0,11.31-2.69,12.93-6.33h21.28c-4.31,14.01-18.32,23.84-35.29,23.84-20.88,0-35.7-14.82-35.7-35.29Zm20.34-8.08h28.83c-2.16-8.08-8.76-10.78-14.01-10.78-8.08,0-13.07,4.58-14.82,10.78Z"/><path class="cls-1" d="m231.11,67.35c0-19.13,13.6-35.16,31.25-35.16,9.03,0,15.63,4.58,18.32,8.22V0h20.34v101.03h-20.34v-6.74c-2.69,3.64-9.29,8.22-18.32,8.22-17.65,0-31.25-16.03-31.25-35.16Zm51.19,0c0-9.7-6.2-16.7-15.36-16.7s-15.36,7-15.36,16.7,6.2,16.7,15.36,16.7,15.36-7,15.36-16.7Z"/><path class="cls-1" d="m311,67.35c0-19.13,13.6-35.16,31.25-35.16,9.03,0,15.63,4.58,18.32,8.22V0h20.34v101.03h-20.34v-6.74c-2.69,3.64-9.29,8.22-18.32,8.22-17.65,0-31.25-16.03-31.25-35.16Zm51.19,0c0-9.7-6.2-16.7-15.36-16.7s-15.36,7-15.36,16.7,6.2,16.7,15.36,16.7,15.36-7,15.36-16.7Z"/><path class="cls-1" d="m390.9,67.35c0-19.13,13.6-35.16,31.25-35.16,9.03,0,15.63,4.58,18.32,8.22v-6.74h20.34v67.35h-20.34v-6.74c-2.69,3.64-9.29,8.22-18.32,8.22-17.65,0-31.25-16.03-31.25-35.16Zm51.19,0c0-9.7-6.2-16.7-15.36-16.7s-15.36,7-15.36,16.7,6.2,16.7,15.36,16.7,15.36-7,15.36-16.7Z"/><path class="cls-1" d="m474.51,33.68h20.34v10.1c2.16-5.93,8.62-10.91,16.03-10.91,2.02,0,4.18.13,6.6.81v20.61c-3.1-1.08-5.79-1.62-9.02-1.62-8.76,0-13.61,6.74-13.61,16.43v31.92h-20.34V33.68Z"/></g></svg>