<?xml version="1.0" encoding="utf-8"?>
<!-- Generator: Adobe Illustrator 25.0.1, SVG Export Plug-In . SVG Version: 6.00 Build 0)  -->
<svg version="1.0" id="katman_1" xmlns="http://www.w3.org/2000/svg" xmlns:xlink="http://www.w3.org/1999/xlink" x="0px" y="0px"
	 viewBox="0 0 560 400" style="enable-background:new 0 0 560 400;" xml:space="preserve">
<style type="text/css">
	.st0{fill-rule:evenodd;clip-rule:evenodd;fill:#E3120B;}
	.st1{fill-rule:evenodd;clip-rule:evenodd;fill:#FFFFFF;}
</style>
<g transform="matrix(1.18062 0 0 1.18062 99.9622 109.215)">
	<path class="st0" d="M-25.4-12.5h355.7v178.7H-25.4L-25.4-12.5z"/>
	<path class="st1" d="M139,24.4l0.2,8.6l-2,0.1c-0.2-5.3-1.3-6-9.3-6h-1.7v30.2c0,4.2,1.1,5.3,5.2,5.4l0.1,1.4
		c-3.9-0.1-6.8-0.1-8.7-0.1c-2,0-5,0-9,0.1l0.1-1.4c4.1-0.1,5.2-1.2,5.2-5.4V27.1h-2c-8.2,0-9.4,0.7-9.5,6l-2-0.1l0.2-8.6
		c7.5,0.1,13.2,0.1,16.9,0.1C126.1,24.5,131.7,24.5,139,24.4 M142.3,62.9c3.7,0,4.2-0.7,4.3-6V31.7c-0.1-5.2-0.6-6-4.3-6l-0.1-1.3
		c5.1-0.3,6.2-0.4,10.8-1.3v17.1c2.9-3.2,5.3-4.5,8.6-4.5c5.5,0,8.5,3.3,8.5,9.7v11.4c0.1,5.2,0.6,6,4.3,6l0.1,1.3
		c-3.2-0.1-5.7-0.2-7.3-0.2c-1.6,0-3.9,0.1-6.9,0.2l0.1-1.3c2.9-0.4,3.2-1,3.3-6v-8.4c0-7-1.2-9.3-4.9-9.3c-2,0-4.1,1.3-5,3.2
		c-0.3,0.7-0.6,1.4-0.8,2.1c-0.1,0.3-0.1,0.5-0.1,0.6v11.8c0,5,0.3,5.5,3.3,6l0.1,1.3c-3.1-0.1-5.4-0.2-7-0.2
		c-1.6,0-4.1,0.1-7.2,0.2L142.3,62.9z M183.4,46.5c5.1-0.1,6.7-0.2,11.8-0.8c-0.7-5.4-2.7-8-6.1-8C185.7,37.8,184,40.4,183.4,46.5
		 M201.1,58.8c-3.5,4.3-6.8,6.1-11.2,6.1c-7.7,0-13-5.7-13-14c0-9,5.4-15,13.2-15c4.2,0,7.2,1.6,9.3,4.8c1.4,2.3,1.8,4,1.8,8h-17.6
		c0.2,8.4,3.3,13.1,8.4,13.1c3,0,5.6-1.4,8.3-4.6L201.1,58.8z M-4.1,115.7c4.5-0.1,5.7-1.3,5.7-6v-29c0-4.6-1.2-5.9-5.7-6l-0.2-1.5
		l9.5,0.1l15-0.2l3.9,0.1l0.2,9l-2.5,0.2c-0.4-5.6-1.5-6.2-10.3-6.2h-1.4l-0.6,0.1v16.7c1.2,0,2.1,0.1,2.7,0.1
		c0.9,0.1,1.9,0.1,2.8,0.1c4.8,0,5.9-1,6-5.6h2.1C23,91.1,23,93,23,94.9c0,1.5,0,3.6,0.1,6.3h-2c-0.2-4.4-1.2-5.3-5.9-5.3l-3.3-0.1
		l-2.3,0.1v12.9c0,5.3,0.3,5.5,5.5,5.5c6.9,0,8.9-1.5,9.5-7.4L27,107l-1.4,10.3l-4.8,0.1l-15-0.1l-10.2,0.1L-4.1,115.7z M58.2,112.9
		c-3.5,3.6-6.3,5.1-10.4,5.1c-8.1,0-13.4-6.4-13.4-15.9c0-10,5.5-16.3,14.4-16.3c2.3,0,4.7,0.4,8.4,1.4l0.1,7.3l-2.8,0.2
		c-1-5.4-2.1-6.7-5.7-6.7c-4.6,0-7,4-7,12c0,9.3,2.9,14.5,8.1,14.5c2.7,0,4.9-1.2,7.3-3.8L58.2,112.9z M72.4,102.4
		c0.6,8.7,3.5,13.5,8.3,13.5c4.4,0,7.1-4.6,7.1-12.3c0-9.1-3.7-15.5-8.7-15.5c-4.5,0-6.8,3.8-6.8,11.5
		C72.3,100.6,72.3,101.5,72.4,102.4 M64.8,103.1v-0.9c0-10.4,5.6-16.4,15.2-16.4c8.9,0,15.2,6.6,15.2,16.1c0,9.6-6.1,16.1-15.3,16.1
		C71,118,65.2,112,64.8,103.1 M102.5,115.8c4,0,4.6-0.8,4.6-6.6V95c0-5.6-0.6-6.4-4.6-6.5l-0.1-1.4c5.4-0.3,6.6-0.5,11.3-1.5
		l0.3,5.5c3.5-3.9,6.2-5.3,9.9-5.3c6,0,9.4,3.9,9.4,10.8v12.7c-0.1,0.5-0.1,1-0.1,1.5c0,3.9,1,5.1,4.8,5.1l0.1,1.5
		c-3.6-0.1-6.3-0.2-8.1-0.2c-1.7,0-4.3,0.1-7.6,0.2l0.1-1.5c3.2-0.5,3.5-1.1,3.5-6.6l0.1-3.8v-5.5c0-7.8-1.4-10.3-5.3-10.3
		c-2.4,0-4.5,1.2-5.7,3.5c-0.5,0.9-0.9,2.4-0.9,3v13c0.1,5.5,0.4,6.1,3.6,6.6l0.2,1.5c-3.5-0.1-6.1-0.2-7.8-0.2
		c-1.8,0-4.4,0.1-7.9,0.2L102.5,115.8z M151,102.4c0.6,8.7,3.5,13.5,8.2,13.5c4.4,0,7.1-4.6,7.1-12.3c0-9.1-3.6-15.5-8.7-15.5
		c-4.4,0-6.7,3.8-6.7,11.5C150.9,100.6,150.9,101.5,151,102.4 M143.3,103.1v-0.9c0-10.4,5.6-16.4,15.2-16.4c9,0,15.2,6.6,15.2,16.1
		c0,9.6-6.1,16.1-15.4,16.1C149.6,118,143.6,112,143.3,103.1 M180.7,115.8c4.1,0,4.8-0.8,4.8-6.6V95c0-5.6-0.6-6.4-4.8-6.5l-0.1-1.4
		c5.5-0.3,6.7-0.5,11.4-1.5l0.3,5.5c3.5-3.8,6.2-5.3,9.8-5.3c4.2,0,6.7,1.7,8.4,5.8c3.8-4.2,6.5-5.8,10.3-5.8c5.8,0,9.1,4,9.1,10.8
		v12.7c0,0.5-0.1,1-0.1,1.5c0,3.9,1.1,5.1,4.8,5.1l0.1,1.5c-3.6-0.1-6.3-0.2-8-0.2c-1.7,0-4.2,0.1-7.6,0.2l0.1-1.5
		c3.3-0.5,3.6-1.1,3.6-6.6v-9.3c0-7.6-1.3-10.3-5.2-10.3c-2.3,0-4.6,1.4-5.6,3.5c-0.3,0.7-0.6,1.5-0.8,2.3c-0.1,0.3-0.1,0.6-0.1,0.7
		v13c0,5.5,0.4,6.1,3.6,6.6l0.1,1.5c-3.3-0.1-5.7-0.2-7.3-0.2c-1.6,0-4,0.1-7.2,0.2l0.1-1.5c3.3-0.5,3.6-1.1,3.6-6.6v-9.3
		c0-7.6-1.4-10.3-5.2-10.3c-2.3,0-4.4,1.3-5.6,3.5c-0.5,1-0.9,2.4-0.9,3v13c0.1,5.5,0.3,6.1,3.6,6.6l0.1,1.5
		c-3.4-0.1-5.9-0.2-7.6-0.2c-1.8,0-4.4,0.1-8,0.2L180.7,115.8z M244.1,75.3C244.1,75.3,244.1,75.3,244.1,75.3c0-2.3,1.8-4.1,4.1-4.1
		h0c2.3,0,4.1,1.9,4.1,4.1c0,2.3-1.8,4.2-4.1,4.2C245.8,79.5,244.1,77.7,244.1,75.3 M252,85.6v19.8l0.1,3.8c0,5.8,0.6,6.6,4.8,6.6
		l0.1,1.5c-3.8-0.1-6.6-0.2-8.5-0.2c-1.8,0-4.6,0.1-8.3,0.2l0.1-1.5c4.1,0,4.7-0.8,4.7-6.6l0.1-3.8v-6.5l-0.1-4
		c0-5.6-0.6-6.4-4.7-6.5l-0.1-1.4C245.7,86.7,247,86.5,252,85.6 M264.4,116.2l-0.2-6.3l3.1-0.1c1.4,4.8,2.4,5.7,5.6,5.7
		c2.8,0,4.7-1.5,4.7-3.7c0-2.1-1.3-3.6-5.2-6.3c-2-1.4-3.3-2.3-4.1-2.8c-1.6-1.2-2.8-2.7-3.4-4.4c-0.4-0.9-0.6-2-0.6-3.3
		c0-5.5,3.8-9.2,9.6-9.2c2.2,0,3.4,0.2,8.3,1.4l0.1,6.1l-3.1,0.1c-0.7-4-2-5.5-4.9-5.5c-2.8,0-4.8,1.6-4.8,3.8c0,2.2,1,3.5,4.2,5.5
		c2.9,1.9,5.1,3.6,6.6,5c1.7,1.7,2.7,3.8,2.7,6.1c0,5.5-4.6,9.7-10.5,9.7C270.5,118,268.3,117.5,264.4,116.2 M289.8,87.6
		c4.9-0.4,6.7-2.5,8.1-8.9h2.8V87h7.8l-0.9,3.4h-6.9v15.1c0,7.5,1,9.3,5.2,9.3c1,0,1.9-0.1,3.4-0.5v1.8c-2.1,1.2-5,1.9-8,1.9
		c-2.7,0-5.3-1.5-6.3-3.8c-0.9-1.9-1.2-3.8-1.2-7.9V90.4h-4V87.6z"/>
</g>
</svg>
