<svg version="1.1" id="Layer_1" xmlns:x="ns_extend;" xmlns:i="ns_ai;" xmlns:graph="ns_graphs;" xmlns="http://www.w3.org/2000/svg" xmlns:xlink="http://www.w3.org/1999/xlink" x="0px" y="0px" viewBox="0 0 130.5 130.5" style="enable-background:new 0 0 130.5 130.5;" xml:space="preserve">
 <style type="text/css">
  .st0{fill:#E60F05;}
	.st1{fill:#FFFFFF;}
 </style>
 <metadata>
  <sfw xmlns="ns_sfw;">
   <slices>
   </slices>
   <sliceSourceBounds bottomLeftOrigin="true" height="130.5" width="130.5" x="1.5" y="2.1">
   </sliceSourceBounds>
  </sfw>
 </metadata>
 <g>
  <path class="st0" d="M8.4,0h113.7c4.6,0,8.4,4.1,8.4,9.1v112.3c0,5-3.7,9.1-8.4,9.1H8.4c-4.6,0-8.4-4.1-8.4-9.1V9.1
		C0,4.1,3.8,0,8.4,0z">
  </path>
  <g>
   <path class="st1" d="M92.1,83.4c-1.1-1.1-2.4-1.8-3.9-2.1s-3-0.1-4.4,0.4c-1.4,0.6-2.6,1.5-3.4,2.8c-0.8,1.2-1.3,2.7-1.3,4.2
			c0,1,0.2,2,0.6,2.9s0.9,1.8,1.6,2.5s1.5,1.3,2.5,1.6c0.9,0.4,1.9,0.6,2.9,0.6c1.5,0,3-0.4,4.2-1.3c1.2-0.8,2.2-2,2.8-3.4
			s0.7-2.9,0.4-4.4C93.9,85.8,93.2,84.5,92.1,83.4z M86.8,92.5c-2,0-3.7-1.7-3.7-3.7s1.7-3.7,3.7-3.7s3.8,1.7,3.8,3.7
			S88.8,92.5,86.8,92.5z">
   </path>
   <path class="st1" d="M105.5,79h-2.2c-2,0-3-0.9-3.9-1.9c-1.6-1.8-3.5-3.2-5.7-4.2s-4.5-1.4-6.9-1.4H25.6c-0.2,0-0.4,0.1-0.6,0.2
			s-0.3,0.2-0.5,0.3c-0.1,0.1-0.2,0.3-0.3,0.5S24,72.9,24,73.1v2.8v7.3c0,1.1-0.9,0.7-0.9,2.5v1c0,1.2,0.7,1.9,1.8,1.9h2
			c0.3,0,1-0.2,1-1c0-6.2,5.1-11.3,11.1-11.3s11.3,4.8,11.3,11.3c0,0.6,0.4,0.9,0.9,0.9h23.3c0.6,0,1-0.4,1-1
			c0-5.9,4.7-11.3,11.3-11.3C93,76.2,98,81.3,98,87.5c0,0.4,0.2,1,1,1h6.6c1,0,1.9-1,1.9-1.9V81C107.3,79.7,106.7,79,105.5,79z">
   </path>
   <path class="st1" d="M44.4,83.4c-1.1-1.1-2.4-1.8-3.9-2.1s-3-0.1-4.4,0.4c-1.4,0.6-2.6,1.5-3.4,2.8c-0.8,1.2-1.3,2.7-1.3,4.2
			c0,1,0.2,2,0.6,2.9c0.4,0.9,0.9,1.8,1.6,2.5s1.5,1.3,2.5,1.6c0.9,0.4,1.9,0.6,2.9,0.6c1.5,0,3-0.4,4.2-1.3c1.2-0.8,2.2-2,2.8-3.4
			s0.7-2.9,0.4-4.4C46.2,85.8,45.5,84.5,44.4,83.4z M39.1,92.5c-2,0-3.7-1.7-3.7-3.7s1.7-3.7,3.7-3.7s3.8,1.7,3.8,3.7
			S41.1,92.5,39.1,92.5z">
   </path>
   <path class="st1" d="M24.4,65.8c0.1,0.2,0.3,0.3,0.5,0.4s0.4,0.1,0.6,0.1h61.2c5.3-0.1,10.5,2,14.3,5.6c0.6,0.6,1.4,1.9,2.6,1.9
			h1.2c0.6,0,0.8-0.3,0.8-1v-8.7c0-12.2-7.4-22-20-26.8c-13.1-5.2-44.3-3.2-56.9,0.1c-2,0.5-4.7,1.5-4.7,5.3v20l0.1,1.9
			C24,65.1,24.2,65.5,24.4,65.8z M75.2,44.8c0-0.6,0.2-1,1-1h3.9c9.4,0,15.8,6.4,19.3,15.9c0.2,0.5,0.1,1.3-0.9,1.3H76.2
			c-0.6,0-1-0.6-1-1V44.8z M52.4,44.8c0-0.1,0-0.3,0.1-0.4c0-0.1,0.1-0.2,0.2-0.3c0.1-0.1,0.2-0.2,0.3-0.2s0.2-0.1,0.4-0.1h16.5
			c0.6,0,1,0.4,1,1v15.1c0,0.5-0.4,1-1,1H53.3c-0.5,0-1-0.2-1-1L52.4,44.8L52.4,44.8z M29.3,44.8c0-0.2,0-1,0.9-1h16.9
			c0.6,0,1,0.4,1,0.9V60c0,0.3-0.2,0.9-1,0.9H30.2c-0.7,0-0.9-0.6-0.9-1L29.3,44.8z">
   </path>
  </g>
 </g>
</svg>