<svg xmlns="http://www.w3.org/2000/svg" viewBox="0 0 183.74 219.51"><title>University of Oxford crest logo</title><path d="M492.11,462.8c-6.12,0-11.08,1-11.08,2.13s5,2.12,11.08,2.12,11.07-.95,11.07-2.12-5-2.13-11.07-2.13" transform="translate(-420.13 -402.24)" style="fill:#001c54"/><path d="M507.36,449.53,501,454l-.06.46,1.52.68c.3.15.3.39.15.54l-4,3.39-.38,0-2.85-4.19c-.2-.27-.12-.54.22-.6l1.91-.31v-.48l-5-7h-.81l-5,7V454l1.91.31c.34.06.42.33.22.6L486,459.05l-.38,0-3.75-3.39c-.15-.15-.15-.39.15-.54l1.52-.68-.06-.46-6.66-4.49-.54.21,3.91,11.95c2-.89,6.54-1.52,11.88-1.54s9.9.65,11.88,1.54l3.91-11.95Z" transform="translate(-420.13 -402.24)" style="fill:#001c54"/><path d="M512,542.93c-6.12,0-11.08,1-11.08,2.13s5,2.12,11.08,2.12,11.08-.95,11.08-2.12-5-2.13-11.08-2.13" transform="translate(-420.13 -402.24)" style="fill:#001c54"/><path d="M527.23,529.66l-6.39,4.49-.05.46,1.52.68c.3.15.3.39.15.54l-4,3.39-.38,0L515.21,535c-.2-.28-.13-.54.22-.6l1.91-.31v-.48l-5-7h-.82l-4.95,7v.48l1.91.31c.34.06.41.33.22.6l-2.85,4.19-.38,0-3.75-3.39c-.15-.15-.15-.39.15-.54l1.52-.68-.06-.46-6.66-4.49-.54.21,3.91,12c2-.89,6.55-1.52,11.88-1.55s9.9.65,11.88,1.55l3.91-12Z" transform="translate(-420.13 -402.24)" style="fill:#001c54"/><path d="M531.8,462.8c-6.12,0-11.08,1-11.08,2.13s5,2.12,11.08,2.12,11.07-.95,11.07-2.12-5-2.13-11.07-2.13" transform="translate(-420.13 -402.24)" style="fill:#001c54"/><path d="M547,449.53,540.65,454l-.06.46,1.52.68c.3.15.3.39.15.54l-4,3.39-.38,0L535,454.86c-.2-.27-.12-.54.22-.6l1.91-.31v-.48l-5-7h-.81l-5,7V454l1.91.31c.34.06.42.33.22.6l-2.85,4.19-.38,0-3.75-3.43c-.16-.15-.15-.39.15-.54l1.52-.64-.06-.46-6.66-4.49-.54.21,3.91,11.95c2-.89,6.54-1.52,11.88-1.54s9.9.65,11.88,1.54l3.91-11.95Z" transform="translate(-420.13 -402.24)" style="fill:#001c54"/><path d="M504.37,573.12a2.2,2.2,0,1,1-2.2-2.21,2.2,2.2,0,0,1,2.2,2.21" transform="translate(-420.13 -402.24)" style="fill:#001c54"/><path d="M526.74,576.79a2.21,2.21,0,1,1-2.21-2.2,2.21,2.21,0,0,1,2.21,2.2" transform="translate(-420.13 -402.24)" style="fill:#001c54"/><path d="M441,452.82" transform="translate(-420.13 -402.24)" style="fill:#001c54"/><path d="M533.71,413" transform="translate(-420.13 -402.24)" style="fill:#001c54"/><path d="M569.31,456.79" transform="translate(-420.13 -402.24)" style="fill:#001c54"/><path d="M586.46,528.53" transform="translate(-420.13 -402.24)" style="fill:#001c54"/><path d="M514.1,417.36a2.2,2.2,0,1,1-2.2-2.21,2.2,2.2,0,0,1,2.2,2.21" transform="translate(-420.13 -402.24)" style="fill:#001c54"/><path d="M566.6,438a2.21,2.21,0,1,1-2.11-2.29A2.2,2.2,0,0,1,566.6,438" transform="translate(-420.13 -402.24)" style="fill:#001c54"/><path d="M456,532.71a6.69,6.69,0,0,1,1.27,3.88c0,1.54-.52,2.79-3.28,4.7L446,547l-1.47-2.11,8.3-5.9c1.4-1,2-1.68,2-2.8a3.94,3.94,0,0,0-.77-2.21,3.24,3.24,0,0,0-2.72-1.52c-.82,0-1.7.57-3.27,1.67l-7.49,5.08-1.44-2.07,7.13-4.83c2-1.39,3.56-2.35,5-2.35a5.81,5.81,0,0,1,4.66,2.78" transform="translate(-420.13 -402.24)" style="fill:#001c54"/><polygon points="10.37 114.91 25.53 109.6 26.37 111.89 17.7 122.49 28.65 118.15 29.47 120.39 14.49 126.14 13.65 123.85 22.36 113.24 11.19 117.15 10.37 114.91" style="fill:#001c54"/><rect x="428.33" y="503.9" width="16.04" height="2.57" transform="translate(-489.52 -332.76) rotate(-8.44)" style="fill:#001c54"/><polygon points="7.63 83.72 7.7 81.06 23.53 87.49 23.41 90.13 7.16 94.98 7.18 92.32 20.36 88.62 7.63 83.72" style="fill:#001c54"/><path d="M442.24,450.09c-2.27,0-3.32,1.3-4.76,3.91l-1.88,3.37L449.72,465l1.22-2.2-5.87-3.21.35-.64c1-1.79,1.33-2.06,3.85-1.84l4.58.41,1.31-2.37-5.27-.45a7.47,7.47,0,0,0-2.57,0,2.78,2.78,0,0,0-.76.39,4.65,4.65,0,0,0,.17-.86,4.18,4.18,0,0,0-.2-1.31,4,4,0,0,0-2-2.27,4.63,4.63,0,0,0-2.28-.63m-2.85,4.86c.94-1.71,1.61-2.36,2.6-2.36a2.74,2.74,0,0,1,1.3.35,2.58,2.58,0,0,1,1.23,1.48,2.4,2.4,0,0,1,.09.69,6.62,6.62,0,0,1-1.09,2.91l-.33.6-4.52-2.43Z" transform="translate(-420.13 -402.24)" style="fill:#001c54"/><rect x="464.4" y="425" width="2.57" height="16.04" transform="translate(-587.32 -31.15) rotate(-37.33)" style="fill:#001c54"/><polygon points="48.47 18.92 58.84 13.52 59.85 15.47 55.82 17.57 62.21 29.85 59.94 31.04 53.54 18.76 49.48 20.87 48.47 18.92" style="fill:#001c54"/><polygon points="74.35 8.64 77.05 7.89 74.88 18.62 76.64 24.71 74.19 25.42 72.47 19.37 64.85 11.43 67.49 10.66 72.97 16.37 74.35 8.64" style="fill:#001c54"/><polygon points="123.28 30.57 131.42 16.75 139.09 21.27 137.97 23.16 132.5 19.93 130.25 23.76 135.4 26.79 134.31 28.64 129.16 25.6 125.47 31.86 123.28 30.57" style="fill:#001c54"/><polygon points="164.49 66.29 170.33 59.31 171.23 62.07 166.89 67.05 173.35 68.5 174.2 71.11 165.37 68.97 159.09 76.49 158.2 73.77 162.93 68.25 155.85 66.63 154.99 64 164.49 66.29" style="fill:#001c54"/><polygon points="159.9 82.05 175.89 80.75 176.61 89.61 174.42 89.79 173.91 83.46 169.49 83.82 169.97 89.78 167.84 89.95 167.35 84 160.11 84.59 159.9 82.05" style="fill:#001c54"/><path d="M587.1,498.59a8.27,8.27,0,0,0-4.9,1.48,7,7,0,0,0-2.86,5.75c0,5.42,5.1,7.59,8.92,7.59A8.17,8.17,0,0,0,593.1,512a7.1,7.1,0,0,0,2.85-5.84c0-4.73-4.35-7.51-8.85-7.51m1.26,12.22c-3.12,0-6.77-1.7-6.77-4.85a4.49,4.49,0,0,1,1.81-3.7,6,6,0,0,1,3.58-1.06c1.59,0,4.46.45,6,2.52a4.06,4.06,0,0,1,.78,2.43,4.47,4.47,0,0,1-1.82,3.64,6,6,0,0,1-3.54,1" transform="translate(-420.13 -402.24)" style="fill:#001c54"/><path d="M577.79,445.21a9.42,9.42,0,0,0-5,1.57,8.34,8.34,0,0,0-4.2,6.8,7,7,0,0,0,1.12,3.81,7,7,0,0,0,6,3.35,9.6,9.6,0,0,0,5.05-1.6c2-1.26,4.19-3.59,4.19-6.76a7.27,7.27,0,0,0-7.16-7.17m-2.5,13.07a4.11,4.11,0,0,1-3.63-2A4.25,4.25,0,0,1,571,454c0-1.81,1.14-3.67,3.24-5a7.58,7.58,0,0,1,4-1.31,4.13,4.13,0,0,1,3.64,2,4.49,4.49,0,0,1,.72,2.44c0,1.77-1.12,3.51-3.15,4.8a7.94,7.94,0,0,1-4.12,1.38" transform="translate(-420.13 -402.24)" style="fill:#001c54"/><path d="M534,412.18c-3.35,0-6.25,2.25-7.43,6.25a9.33,9.33,0,0,0-.43,2.62,8.11,8.11,0,0,0,.92,4.07,7.08,7.08,0,0,0,6.26,3.64,6.83,6.83,0,0,0,3.32-.83,9.6,9.6,0,0,0,4.49-8.2,8.09,8.09,0,0,0-.91-3.92,7,7,0,0,0-6.24-3.62m-.83,14.3a4.35,4.35,0,0,1-3.78-2.28,6,6,0,0,1-.66-2.88c0-2.87,1.91-6.9,5.41-6.9,2,0,4.43,1.46,4.43,5.09,0,2.31-1.63,7-5.4,7" transform="translate(-420.13 -402.24)" style="fill:#001c54"/><polygon points="25.08 68.09 27.24 68.7 24.81 77.51 9.29 73.26 11.94 64.35 14.05 64.94 12.1 71.36 16.38 72.54 18.03 66.7 20.09 67.29 18.45 73.11 23.29 74.43 25.08 68.09" style="fill:#001c54"/><path d="M449.28,436.83a6,6,0,0,1,4.5-2.33l.39,2.12a4.77,4.77,0,0,0-3.13,1.6,3.1,3.1,0,0,0-.9,2,1.74,1.74,0,0,0,.61,1.34c1.11,1,3-.11,4.2-.59a9.54,9.54,0,0,1,3.51-.91,4.19,4.19,0,0,1,2.88,1.09,4.52,4.52,0,0,1,1.6,3.41,5.51,5.51,0,0,1-1.59,3.76,8,8,0,0,1-4.8,2.54l-.55-2.14a6.76,6.76,0,0,0,3.59-1.83,3.14,3.14,0,0,0,.87-2,2.13,2.13,0,0,0-.75-1.61,2,2,0,0,0-1.42-.47,9.73,9.73,0,0,0-3.28,1c-1.95.8-4,1.45-5.84-.19a4,4,0,0,1-1.43-3.06,5.6,5.6,0,0,1,1.53-3.71" transform="translate(-420.13 -402.24)" style="fill:#001c54"/><path d="M575.77,519.35l6.06,2.74-.3.68c-.83,1.87-1.14,2.17-3.67,2.18h-4.59l-1.09,2.48,5.29,0a7.47,7.47,0,0,0,2.56-.25,2.59,2.59,0,0,0,.67-.4,3.62,3.62,0,0,0-.06.41,4.17,4.17,0,0,0,.33,1.69,4.63,4.63,0,0,0,4.14,2.52c2.55,0,3.53-1.53,4.77-4.34l1.49-3.44L576.79,517Zm9.47,9.51a2.65,2.65,0,0,1-2.42-1.61,2.53,2.53,0,0,1-.16-.92,7.42,7.42,0,0,1,.85-2.75l.28-.62,4.62,2.08-.51,1.24c-.86,2-1.42,2.58-2.66,2.59" transform="translate(-420.13 -402.24)" style="fill:#001c54"/><path d="M567.33,534.52c-1.66,2.08-2.92,3.94-2.92,6.35a8,8,0,0,0,3.27,6.23A8.17,8.17,0,0,0,572.8,549c2.23,0,4-.67,6.8-4.15l2.53-3.19-12.53-10ZM573,546.59a5.88,5.88,0,0,1-3.72-1.48,6.12,6.12,0,0,1-2.6-4.58,7,7,0,0,1,1.92-4.18l1.06-1.33,9.16,7.31-.7.88c-1.7,2.13-2.86,3.39-5.12,3.39" transform="translate(-420.13 -402.24)" style="fill:#001c54"/><path d="M603.87,494a91.87,91.87,0,1,0-143.65,75.76,21.59,21.59,0,0,0,28.69,14.52,92.68,92.68,0,0,0,10.3,2.74,43.61,43.61,0,0,1-3.76,7.71l.07,0-.08.05,1.91,1.91a3.37,3.37,0,0,1,1.64-.43,3.43,3.43,0,0,1,0,6.86,4.87,4.87,0,0,1-3.86-2.19,14.21,14.21,0,0,0-.45,3.58c0,6.59,7.18,14.12,17.15,17.29,10-3.1,17.16-10.68,17.15-17.28a12.28,12.28,0,0,0-.44-3.59,5.14,5.14,0,0,1-3.88,2.19,3.43,3.43,0,1,1,1.8-6.34l1.86-1.86.07,0a44.87,44.87,0,0,1-2.34-7c16.52-2.23,30.45-9.22,41.54-20.87h0a91,91,0,0,0,36.28-73M481.09,583.15a19,19,0,0,1-16.62-28c1,.88,2,1.8,3.09,2.73a14.9,14.9,0,0,0-1.45,6.39c0,5.69,2.87,10.39,8.3,13.59a70.78,70.78,0,0,0,10.38,4.94,19.06,19.06,0,0,1-3.71.37m30.9-27.6a61.84,61.84,0,0,1-11.61-1.1,21.57,21.57,0,0,0-25-11A61.54,61.54,0,1,1,512,555.55m13.7,1.1a21.08,21.08,0,0,0-3.27,10A95.13,95.13,0,0,1,506.7,561a6.49,6.49,0,0,1,5.3-2.9,64.52,64.52,0,0,0,13.7-1.48m-19.51,1.21a6.92,6.92,0,0,0-1.86,2c-2.33-1.13-5.25-2.58-7.16-3.65a78.47,78.47,0,0,0,9,1.61m-25.09-12.65a19,19,0,0,1,15.74,8.46,61.29,61.29,0,0,1-9-3v0l-.1-.05A15.19,15.19,0,0,0,469,555.42c-1.16-.65-2.32-1.32-3.46-2a18.88,18.88,0,0,1,15.54-8.19m43.58,48.36a5.94,5.94,0,0,0-6.17,6.08,6,6,0,0,0,6.17,6.07,5.82,5.82,0,0,0,1.47-.21c-.71,5.1-6.64,10.8-14.29,13.36-7.59-2.54-13.52-8.28-14.31-13.35a5.8,5.8,0,0,0,1.46.2,5.88,5.88,0,0,0,6.17-6.07,6.05,6.05,0,0,0-6-6.07,38.43,38.43,0,0,0,2.77-6.07,72,72,0,0,0,12.22,1.13,90.55,90.55,0,0,0,9.23-.48A44.61,44.61,0,0,0,525,593.6c-.12,0-.24,0-.36,0m-10.56-7.5c-12.32,0-27.69-4.19-38.26-10.42-3.2-1.88-7-5.4-7-11.4a12.45,12.45,0,0,1,.88-4.59,82,82,0,0,0,10.57,7.72,2.85,2.85,0,0,0,1.61.48,3,3,0,0,0,3-3,2.94,2.94,0,0,0-1.81-2.78c-2.18-1-6.75-2.84-11.68-5.4a12.4,12.4,0,0,1,15.19-3.78l3.37,2c10.74,6.56,38.35,23.37,71.7,14.14-12.66,11.42-28.25,17-47.54,17m51.72-21a72.79,72.79,0,0,1-40.74,2.27c.39-5.31,2.58-11,5.94-12a64.3,64.3,0,1,0-58.64-10.79,21.75,21.75,0,0,0-9.08,7.48c-1.18-.8-2.31-1.63-3.35-2.49l-.59.59a42.41,42.41,0,0,0,3.09,3.21,21.29,21.29,0,0,0-3,10.92c0,.62,0,1.23.09,1.84a89.13,89.13,0,1,1,106.28-1" transform="translate(-420.13 -402.24)" style="fill:#001c54"/><path d="M488.54,480.58a3.25,3.25,0,0,1,2.33.71,2.31,2.31,0,0,1,.69,1.64c0,2-1.51,2.84-3.35,2.84h-2.06v-.31c.58-.05.65-.11.65-1v-2.64c0-.86-.06-.92-.58-1v-.31Zm-.39,3.93c0,.71.17.85.56.85.69,0,1.38-.76,1.38-2.18,0-1.72-.87-2.19-1.55-2.19a.74.74,0,0,0-.34.06s0,.2,0,.4Z" transform="translate(-420.13 -402.24)" style="fill:#001c54"/><path d="M497.62,483.11a2.61,2.61,0,0,1-2.7,2.78,2.56,2.56,0,0,1-2.66-2.64,2.69,2.69,0,0,1,2.77-2.79,2.53,2.53,0,0,1,2.59,2.65m-3.87-.14c0,1.45.54,2.5,1.33,2.5s1.06-.66,1.06-2.11c0-1.61-.57-2.49-1.26-2.49s-1.12.7-1.12,2.1" transform="translate(-420.13 -402.24)" style="fill:#001c54"/><path d="M504.67,480.58v.32c-.61.05-.64.09-.62.93l.08,2.68c0,.88,0,.91.62,1v.31h-2.5v-.31c.6-.06.62-.08.61-1l0-2.81h0l-1.54,4h-.43L499.37,482h0l-.06,1.77a9.28,9.28,0,0,0,0,1.32c0,.3.21.37.73.41v.31h-2v-.31c.38,0,.53-.11.58-.41s.08-.67.13-1.39l.09-1.61c.05-1,0-1.1-.64-1.15v-.32h1.88l1.4,3.17,1.22-3.17Z" transform="translate(-420.13 -402.24)" style="fill:#001c54"/><path d="M507.27,484.5c0,.86.06.92.61,1v.31h-2.59v-.31c.55-.05.61-.11.61-1v-2.64c0-.86-.06-.92-.61-1v-.31h2.59v.31c-.55,0-.61.1-.61,1Z" transform="translate(-420.13 -402.24)" style="fill:#001c54"/><path d="M494.4,495.42h-.69l-3-3.77h0v1.47a12.68,12.68,0,0,0,.06,1.53c0,.28.25.38.78.41v.31h-2v-.31c.35,0,.56-.13.6-.41a13.34,13.34,0,0,0,.06-1.53v-1.47c0-.59,0-.7-.17-.92a.77.77,0,0,0-.61-.25v-.31h1.77l2.66,3.32h0v-1.07a13.5,13.5,0,0,0-.06-1.52c0-.28-.26-.38-.79-.41v-.31h2v.31c-.4,0-.61.13-.65.41a12.62,12.62,0,0,0-.06,1.52Z" transform="translate(-420.13 -402.24)" style="fill:#001c54"/><path d="M497.64,495.42,496,491.25c-.26-.69-.42-.73-.81-.78v-.31h2.58v.31l-.27,0c-.29,0-.29.11-.21.39.15.45.77,2,1.07,2.8.25-.68.76-2.2.89-2.58s.12-.58-.24-.61l-.24,0v-.31h1.93v.31c-.46.06-.57.1-.88.82-.05.11-1,2.49-1.62,4.12Z" transform="translate(-420.13 -402.24)" style="fill:#001c54"/><path d="M501.24,493.71c.17.46.64,1.35,1.42,1.35a.71.71,0,0,0,.73-.79c0-.47-.31-.74-.8-1l-.12-.06c-.66-.3-1.4-.72-1.4-1.57A1.67,1.67,0,0,1,503,490a2.74,2.74,0,0,1,.74.1l.41.11c0,.31.09.7.18,1.25l-.35.05c-.17-.52-.46-1.09-1.09-1.09a.68.68,0,0,0-.69.7c0,.4.31.63.82.86l.18.08c.73.34,1.36.74,1.36,1.68s-.79,1.7-2,1.7a2.87,2.87,0,0,1-.87-.13,4.92,4.92,0,0,1-.5-.19c-.06-.37-.17-.8-.26-1.33Z" transform="translate(-420.13 -402.24)" style="fill:#001c54"/><path d="M490.85,503.67c0,.86.07.92.61,1v.31h-2.59v-.31c.55-.05.61-.11.61-1V501c0-.86-.06-.92-.61-1v-.31h2.59v.31c-.55,0-.61.1-.61,1Z" transform="translate(-420.13 -402.24)" style="fill:#001c54"/><path d="M494,503.77c0,.42,0,.62.16.69a1.36,1.36,0,0,0,.56.07,1,1,0,0,0,.76-.23,2.08,2.08,0,0,0,.39-.79l.34.06c0,.3-.21,1.13-.29,1.38h-4v-.31c.61,0,.67-.11.67-1V501c0-.86-.06-.92-.6-1v-.31h2.59v.31c-.57,0-.64.1-.64,1Z" transform="translate(-420.13 -402.24)" style="fill:#001c54"/><path d="M498.47,503.77c0,.42,0,.62.16.69a1.34,1.34,0,0,0,.56.07,1,1,0,0,0,.77-.23,2.09,2.09,0,0,0,.39-.79l.34.06c0,.3-.22,1.13-.29,1.38h-4v-.31c.61,0,.67-.11.67-1V501c0-.86-.06-.92-.6-1v-.31h2.6v.31c-.58,0-.64.1-.64,1Z" transform="translate(-420.13 -402.24)" style="fill:#001c54"/><path d="M502.29,505c-.55-1.44-1.3-3.41-1.59-4.16s-.42-.73-.81-.77v-.31h2.58v.31l-.27,0c-.3,0-.3.1-.21.39.15.44.78,2,1.07,2.8.25-.68.76-2.2.89-2.58s.12-.57-.24-.61l-.24,0v-.31h1.93v.31c-.46.05-.57.09-.88.82,0,.11-1,2.49-1.62,4.11Z" transform="translate(-420.13 -402.24)" style="fill:#001c54"/><path d="M523.11,480.58v.31c-.61.06-.64.09-.62.93l.08,2.68c0,.88,0,.91.61,1v.31h-2.5v-.31c.6-.06.62-.08.61-1l0-2.81h0l-1.54,4h-.43L517.81,482h0l-.06,1.77a9,9,0,0,0,0,1.32c0,.3.21.37.73.41v.31h-2v-.31c.38,0,.53-.11.58-.41s.09-.67.13-1.4l.09-1.61c.05-1,0-1.1-.64-1.15v-.31h1.88l1.4,3.16,1.22-3.16Z" transform="translate(-420.13 -402.24)" style="fill:#001c54"/><path d="M525.7,484.5c0,.86.07.92.61,1v.31h-2.59v-.31c.55,0,.61-.1.61-1v-2.64c0-.86-.06-.92-.61-1v-.31h2.59v.31c-.55,0-.61.1-.61,1Z" transform="translate(-420.13 -402.24)" style="fill:#001c54"/><path d="M531.64,485.83H531l-3-3.77h0v1.47a13.21,13.21,0,0,0,.06,1.52c0,.28.25.38.78.41v.31h-2v-.31c.35,0,.56-.13.6-.41a13.24,13.24,0,0,0,.06-1.52v-1.47c0-.59,0-.7-.18-.92a.76.76,0,0,0-.61-.25v-.31h1.77l2.66,3.32h0v-1.07a12.65,12.65,0,0,0-.06-1.52c0-.28-.26-.38-.78-.41v-.31h2v.31c-.4,0-.61.13-.65.41a11.88,11.88,0,0,0-.07,1.52Z" transform="translate(-420.13 -402.24)" style="fill:#001c54"/><path d="M535,485.46l.24,0c.29,0,.31-.12.21-.41l-.29-.81h-1.31l-.24.76c-.11.35-.11.42.26.46l.23,0v.31h-1.86v-.31c.41-.06.53-.09.79-.76l1.6-4.13.55-.11.54,1.51c.34,1,.69,1.9,1,2.71s.4.73.79.78v.31H535Zm-1-1.73h1l-.51-1.53h0Z" transform="translate(-420.13 -402.24)" style="fill:#001c54"/><path d="M523,494.08c0,.86.06.92.73,1v.31H521v-.31c.64-.05.7-.11.7-1v-3.5h-.14c-.53,0-.75.1-.88.24a1.93,1.93,0,0,0-.3.78H520c0-.67.08-1.22.1-1.63h.25c.12.18.2.2.42.2H524c.21,0,.25-.05.37-.2h.25c0,.34,0,1,.09,1.6l-.35,0a1.87,1.87,0,0,0-.33-.82,1.08,1.08,0,0,0-.78-.2H523Z" transform="translate(-420.13 -402.24)" style="fill:#001c54"/><path d="M527.22,494.08c0,.86.07.92.62,1v.31h-2.59v-.31c.55-.05.61-.11.61-1v-2.64c0-.87-.06-.92-.61-1v-.31h2.59v.31c-.55.05-.62.1-.62,1Z" transform="translate(-420.13 -402.24)" style="fill:#001c54"/><path d="M533.87,492.7a2.61,2.61,0,0,1-2.7,2.78,2.56,2.56,0,0,1-2.66-2.64,2.69,2.69,0,0,1,2.77-2.79,2.53,2.53,0,0,1,2.59,2.65m-3.87-.14c0,1.45.55,2.5,1.33,2.5s1.06-.66,1.06-2.11c0-1.61-.57-2.49-1.26-2.49s-1.13.7-1.13,2.1" transform="translate(-420.13 -402.24)" style="fill:#001c54"/><path d="M525.4,499.75v.31c-.61.06-.64.09-.62.93l.08,2.68c0,.89,0,.91.61,1v.31H523v-.31c.6-.06.62-.08.62-1l0-2.81h0l-1.54,4h-.43l-1.46-3.72h0l-.06,1.77a8.87,8.87,0,0,0,0,1.32c0,.3.21.37.73.41v.31h-2v-.31c.38,0,.53-.11.58-.41a13.8,13.8,0,0,0,.13-1.39l.09-1.61c.06-1,0-1.1-.64-1.15v-.31h1.88l1.4,3.17,1.22-3.17Z" transform="translate(-420.13 -402.24)" style="fill:#001c54"/><path d="M526.64,501c0-.86-.06-.92-.6-1v-.31h3.79c0,.14,0,.72.08,1.32l-.35,0a1.5,1.5,0,0,0-.3-.74c-.12-.13-.39-.19-.82-.19h-.13c-.3,0-.32,0-.32.28V502h.4c.69,0,.71,0,.79-.66h.35v1.88h-.35c-.08-.7-.1-.75-.79-.75H528v1.3c0,.42,0,.61.16.69a1.3,1.3,0,0,0,.56.07,1.2,1.2,0,0,0,.85-.24,2.45,2.45,0,0,0,.39-.82l.35.06a10.63,10.63,0,0,1-.28,1.42H526v-.31c.61-.05.68-.11.68-1Z" transform="translate(-420.13 -402.24)" style="fill:#001c54"/><path d="M533.11,504.63l.24,0c.29,0,.31-.12.2-.4l-.29-.82H532l-.24.77c-.1.34-.1.42.26.47l.23,0v.31h-1.86v-.31c.41-.06.53-.09.79-.76l1.6-4.13.55-.11.55,1.51c.34.95.69,1.89,1,2.71s.4.73.79.78v.31h-2.51Zm-1-1.73h1l-.5-1.52h0Z" transform="translate(-420.13 -402.24)" style="fill:#001c54"/><path d="M521.91,473.5c-3.16,0-5.3.43-6.95,1.4a8,8,0,0,0-3,3.07,8.07,8.07,0,0,0-3-3.07c-1.65-1-3.79-1.4-6.95-1.4H481.21v38.85h22.54c4.41,0,6.75,1.63,6.93,4.84h2.64c.18-3.16,2.32-4.84,6.92-4.84H543V473.5Zm-18.17,36.42H483.85v-34h18.22c2.62,0,4.41.33,5.61,1,2.47,1.45,3,4.32,3,6.47,0,0,0,20.88,0,28.49a11,11,0,0,0-6.93-2m36.61,0H520.24a11.11,11.11,0,0,0-6.92,1.93c0-7.2,0-26,0-28.21s.52-5.24,3-6.69c1.2-.7,3-1,5.61-1h18.44Z" transform="translate(-420.13 -402.24)" style="fill:#001c54"/><path d="M546.25,476.29v40.45H517l-.33.83c-.51,1.26-1.42,2.43-4.62,2.43s-4.11-1.17-4.62-2.43l-.34-.83H477.83V476.29h-2.65v1.23l-2.54-.78a2.42,2.42,0,1,0-.78,2.53l3.31,1v3.25l-2.49-.44a2.42,2.42,0,1,0-.47,2.6l3,.53v3.32l-2.6-.11a2.41,2.41,0,1,0-.11,2.64l2.72.12v3.6l-2.66.1a2.41,2.41,0,1,0,.09,2.64l2.57-.09v3.32l-2.91.5a2.41,2.41,0,1,0,.45,2.6l2.46-.42v3.26l-3.18,1a2.41,2.41,0,1,0,.78,2.53l2.41-.74v3.15l-3.51,1.52a2.39,2.39,0,0,0-1.32-.4,2.41,2.41,0,1,0,2.37,2.83l2.47-1.07v2.88h30.27c1.23,2.15,3.36,3.26,6.59,3.26s5.35-1.11,6.59-3.26H548.9v-43.1Z" transform="translate(-420.13 -402.24)" style="fill:#001c54"/></svg>