<svg width="35" height="34" viewBox="0 0 35 34" fill="none" xmlns="http://www.w3.org/2000/svg">
<g clip-path="url(#clip0_241_1808)">
<path opacity="0.2" d="M7.97602 26.1838C6.78688 24.9947 7.57559 22.4981 6.97032 21.0353C6.34288 19.5188 4.04053 18.2983 4.04053 16.6826C4.04053 15.067 6.3429 13.8465 6.97033 12.3301C7.57559 10.8673 6.78688 8.37072 7.97602 7.18158C9.16515 5.99244 11.6617 6.78115 13.1246 6.17589C14.641 5.54845 15.8615 3.24609 17.4772 3.24609C19.0928 3.24609 20.3133 5.54846 21.8297 6.1759C23.2926 6.78116 25.7891 5.99244 26.9782 7.18158C28.1674 8.37072 27.3787 10.8673 27.9839 12.3301C28.6114 13.8466 30.9137 15.0671 30.9137 16.6827C30.9137 18.2984 28.6114 19.5189 27.9839 21.0353C27.3787 22.4981 28.1674 24.9947 26.9782 26.1838C25.7891 27.3729 23.2926 26.5842 21.8297 27.1895C20.3132 27.8169 19.0927 30.1193 17.4771 30.1193C15.8614 30.1193 14.641 27.8169 13.1245 27.1895C11.6617 26.5842 9.16516 27.3729 7.97602 26.1838Z" fill="#FF9433"/>
<path d="M7.97602 26.1838C6.78688 24.9947 7.57559 22.4981 6.97032 21.0353C6.34288 19.5188 4.04053 18.2983 4.04053 16.6826C4.04053 15.067 6.3429 13.8465 6.97033 12.3301C7.57559 10.8673 6.78688 8.37072 7.97602 7.18158C9.16515 5.99244 11.6617 6.78115 13.1246 6.17589C14.641 5.54845 15.8615 3.24609 17.4772 3.24609C19.0928 3.24609 20.3133 5.54846 21.8297 6.1759C23.2926 6.78116 25.7891 5.99244 26.9782 7.18158C28.1674 8.37072 27.3787 10.8673 27.9839 12.3301C28.6114 13.8466 30.9137 15.0671 30.9137 16.6827C30.9137 18.2984 28.6114 19.5189 27.9839 21.0353C27.3787 22.4981 28.1674 24.9947 26.9782 26.1838C25.7891 27.3729 23.2926 26.5842 21.8297 27.1895C20.3132 27.8169 19.0927 30.1193 17.4771 30.1193C15.8614 30.1193 14.641 27.8169 13.1245 27.1895C11.6617 26.5842 9.16516 27.3729 7.97602 26.1838Z" stroke="#FF9433" stroke-width="2.06717" stroke-linecap="round" stroke-linejoin="round"/>
<path d="M23.1619 13.582L15.5822 20.8171L11.7925 17.1996" stroke="#FF9433" stroke-width="2.06717" stroke-linecap="round" stroke-linejoin="round"/>
</g>
<defs>
<clipPath id="clip0_241_1808">
<rect width="33.0747" height="33.0747" fill="white" transform="translate(0.939453 0.145508)"/>
</clipPath>
</defs>
</svg>
