<svg width="34" height="35" viewBox="0 0 34 35" fill="none" xmlns="http://www.w3.org/2000/svg">
<g clip-path="url(#clip0_241_1772)">
<path opacity="0.2" d="M16.9752 21.6311C21.5419 21.6311 25.2439 17.9291 25.2439 13.3624C25.2439 8.79576 21.5419 5.09375 16.9752 5.09375C12.4086 5.09375 8.70654 8.79576 8.70654 13.3624C8.70654 17.9291 12.4086 21.6311 16.9752 21.6311Z" fill="#FF9433"/>
<path d="M23.1768 8.19434H29.3783" stroke="#FF9433" stroke-width="2.06717" stroke-linecap="round" stroke-linejoin="round"/>
<path d="M26.2776 5.09375V11.2953" stroke="#FF9433" stroke-width="2.06717" stroke-linecap="round" stroke-linejoin="round"/>
<path d="M4.44189 28.8648C5.71263 26.6652 7.53982 24.8388 9.7399 23.5691C11.94 22.2993 14.4355 21.6308 16.9757 21.6309C19.5159 21.6309 22.0114 22.2994 24.2114 23.5692C26.4115 24.839 28.2386 26.6655 29.5093 28.865" stroke="#FF9433" stroke-width="2.06717" stroke-linecap="round" stroke-linejoin="round"/>
<path d="M24.7337 16.2284C24.181 17.7207 23.2092 19.0218 21.935 19.9752C20.6608 20.9286 19.1384 21.4938 17.5508 21.603C15.9631 21.7121 14.3777 21.3606 12.985 20.5906C11.5923 19.8205 10.4515 18.6648 9.69976 17.2622C8.94798 15.8595 8.61717 14.2697 8.74706 12.6836C8.87695 11.0975 9.46202 9.58262 10.432 8.32098C11.4019 7.05933 12.7155 6.10457 14.215 5.57139C15.7144 5.03821 17.3359 4.94929 18.8846 5.31531" stroke="#FF9433" stroke-width="2.06717" stroke-linecap="round" stroke-linejoin="round"/>
</g>
<defs>
<clipPath id="clip0_241_1772">
<rect width="33.0747" height="33.0747" fill="white" transform="translate(0.437988 0.958984)"/>
</clipPath>
</defs>
</svg>
