<svg width="34" height="34" viewBox="0 0 34 34" fill="none" xmlns="http://www.w3.org/2000/svg">
<g clip-path="url(#clip0_241_1796)">
<path opacity="0.2" d="M15.3746 25.9543C21.3684 25.9543 26.2273 21.0954 26.2273 15.1017C26.2273 9.10792 21.3684 4.24902 15.3746 4.24902C9.38087 4.24902 4.52197 9.10792 4.52197 15.1017C4.52197 21.0954 9.38087 25.9543 15.3746 25.9543Z" fill="#FF9433"/>
<path d="M11.2402 15.1025H19.5089" stroke="#FF9433" stroke-width="2.06717" stroke-linecap="round" stroke-linejoin="round"/>
<path d="M15.3745 10.9688V19.2374" stroke="#FF9433" stroke-width="2.06717" stroke-linecap="round" stroke-linejoin="round"/>
<path d="M15.3746 25.9543C21.3684 25.9543 26.2273 21.0954 26.2273 15.1017C26.2273 9.10792 21.3684 4.24902 15.3746 4.24902C9.38087 4.24902 4.52197 9.10792 4.52197 15.1017C4.52197 21.0954 9.38087 25.9543 15.3746 25.9543Z" stroke="#FF9433" stroke-width="2.06717" stroke-linecap="round" stroke-linejoin="round"/>
<path d="M23.0483 22.7773L29.3274 29.0564" stroke="#FF9433" stroke-width="2.06717" stroke-linecap="round" stroke-linejoin="round"/>
</g>
<defs>
<clipPath id="clip0_241_1796">
<rect width="33.0747" height="33.0747" fill="white" transform="translate(0.388428 0.116211)"/>
</clipPath>
</defs>
</svg>
