<svg width="38" height="38" viewBox="0 0 38 38" fill="none" xmlns="http://www.w3.org/2000/svg">
<g clip-path="url(#clip0_241_1784)">
<path opacity="0.2" d="M11.5944 18.5486C11.5944 16.2555 12.2744 14.0138 13.5484 12.1071C14.8224 10.2003 16.6333 8.71425 18.7519 7.83669C20.8705 6.95913 23.2018 6.72951 25.4509 7.17689C27.7 7.62427 29.766 8.72854 31.3875 10.3501C33.009 11.9716 34.1133 14.0375 34.5607 16.2867C35.008 18.5358 34.7784 20.867 33.9009 22.9857C33.0233 25.1043 31.5372 26.9151 29.6305 28.1891C27.7238 29.4632 25.4821 30.1432 23.1889 30.1432H10.4349C9.28395 30.142 8.14636 29.8961 7.09767 29.4217C6.04899 28.9473 5.1132 28.2553 4.35242 27.3916C3.59164 26.5279 3.02326 25.5123 2.68502 24.4121C2.34678 23.3119 2.24641 22.1524 2.39057 21.0104C2.53474 19.8685 2.92013 18.7703 3.52118 17.7887C4.12223 16.8071 4.92519 15.9646 5.87676 15.3171C6.82833 14.6695 7.90674 14.2318 9.04042 14.0329C10.1741 13.834 11.3371 13.8785 12.4523 14.1635" fill="#FF9433"/>
<path d="M13.9126 30.1444H10.4342C9.28322 30.1433 8.14562 29.8974 7.09694 29.423C6.04826 28.9486 5.11247 28.2566 4.35169 27.3929C3.5909 26.5292 3.02253 25.5135 2.68429 24.4134C2.34605 23.3132 2.24568 22.1537 2.38984 21.0117C2.534 19.8698 2.9194 18.7716 3.52045 17.79C4.1215 16.8084 4.92446 15.9659 5.87603 15.3183C6.8276 14.6708 7.90601 14.2331 9.03969 14.0342C10.1734 13.8353 11.3364 13.8798 12.4515 14.1648" stroke="#FF9433" stroke-width="2.31891" stroke-linecap="round" stroke-linejoin="round"/>
<path d="M11.5938 18.5495C11.5939 16.7123 12.0306 14.9016 12.8679 13.2664C13.7052 11.6311 14.919 10.2183 16.4094 9.1442C17.8998 8.07012 19.6241 7.36556 21.4402 7.08859C23.2563 6.81161 25.1122 6.97015 26.8551 7.55114C28.5979 8.13212 30.1777 9.11892 31.4643 10.4302C32.751 11.7415 33.7076 13.3398 34.2554 15.0933C34.8032 16.8469 34.9264 18.7055 34.615 20.516C34.3036 22.3265 33.5664 24.0371 32.4642 25.5068" stroke="#FF9433" stroke-width="2.31891" stroke-linecap="round" stroke-linejoin="round"/>
<path d="M17.1094 23.4691L22.0285 18.5498L26.9476 23.4691" stroke="#FF9433" stroke-width="2.31891" stroke-linecap="round" stroke-linejoin="round"/>
<path d="M22.0288 30.1443V18.5498" stroke="#FF9433" stroke-width="2.31891" stroke-linecap="round" stroke-linejoin="round"/>
</g>
<defs>
<clipPath id="clip0_241_1784">
<rect width="37.1025" height="37.1025" fill="white"/>
</clipPath>
</defs>
</svg>
